<svg width="19" height="21" viewBox="0 0 19 21" fill="none" xmlns="http://www.w3.org/2000/svg">
<path d="M2.25 0C1.0075 0 0 1.0075 0 2.25V17.75C0 18.9925 1.0075 20 2.25 20H9.26953C9.09653 19.6995 9 19.366 9 19V13C9 11.0305 11.767 10 14.5 10C15.005 10 15.5105 10.0355 16 10.1055V8H10.25C9.0075 8 8 6.9925 8 5.75V0H2.25ZM9.5 0.439453V5.75C9.5 6.1635 9.8365 6.5 10.25 6.5H15.5605L9.5 0.439453ZM14.5 11C12.0145 11 10 11.8955 10 13C10 14.1045 12.0145 15 14.5 15C16.9855 15 19 14.1045 19 13C19 11.8955 16.9855 11 14.5 11ZM10 14.5V16C10 17.105 12.015 18 14.5 18C16.985 18 19 17.105 19 16V14.5C19 15.605 16.985 16.5 14.5 16.5C12.015 16.5 10 15.605 10 14.5ZM10 17.5V19C10 20.105 12.015 21 14.5 21C16.985 21 19 20.105 19 19V17.5C19 18.605 16.985 19.5 14.5 19.5C12.015 19.5 10 18.605 10 17.5Z" fill="#A5A5A5"/>
</svg>
