<svg width="20" height="20" viewBox="0 0 20 20" fill="none" xmlns="http://www.w3.org/2000/svg">
<path d="M10.0048 0.500015C9.86462 0.499139 9.72701 0.53756 9.60757 0.610919C9.48812 0.684278 9.39162 0.789639 9.32901 0.915054L6.75284 6.0674L0.635654 7.0088C0.498729 7.02996 0.37034 7.08863 0.264725 7.1783C0.159109 7.26798 0.0803947 7.38515 0.0373103 7.51683C-0.00577407 7.64851 -0.0115446 7.78955 0.0206387 7.92431C0.0528219 8.05907 0.121701 8.18229 0.219638 8.28029L4.45108 12.5117L3.5087 18.6358C3.48762 18.7728 3.50492 18.9129 3.55868 19.0407C3.61244 19.1685 3.70056 19.2789 3.81325 19.3596C3.92594 19.4403 4.0588 19.4882 4.19708 19.498C4.33536 19.5078 4.47365 19.4791 4.59659 19.4151L9.99991 16.5957L15.4032 19.4151C15.5262 19.4791 15.6645 19.5078 15.8027 19.498C15.941 19.4882 16.0739 19.4403 16.1866 19.3596C16.2993 19.2789 16.3874 19.1685 16.4411 19.0407C16.4949 18.9129 16.5122 18.7728 16.4911 18.6358L15.5487 12.5117L19.7802 8.28029C19.8781 8.18229 19.947 8.05907 19.9792 7.92431C20.0114 7.78955 20.0056 7.64851 19.9625 7.51683C19.9194 7.38515 19.8407 7.26798 19.7351 7.1783C19.6295 7.08863 19.5011 7.02996 19.3642 7.0088L13.247 6.0674L10.6708 0.915054C10.6089 0.791123 10.514 0.686744 10.3964 0.613486C10.2789 0.540229 10.1433 0.500954 10.0048 0.500015ZM9.99991 2.92677L12.079 7.08498C12.1326 7.19225 12.2111 7.28512 12.3079 7.35581C12.4048 7.42649 12.5172 7.47293 12.6357 7.49123L17.6728 8.26662L14.2196 11.7197C14.1363 11.8031 14.0738 11.9048 14.0372 12.0168C14.0005 12.1288 13.9908 12.2478 14.0087 12.3643L14.7831 17.3994L10.3466 15.085C10.2395 15.0292 10.1206 15.0001 9.99991 15.0001C9.8792 15.0001 9.76027 15.0292 9.65323 15.085L5.21671 17.3994L5.99112 12.3643C6.00906 12.2478 5.9993 12.1288 5.96266 12.0168C5.92601 11.9048 5.8635 11.8031 5.78018 11.7197L2.32706 8.26662L7.36417 7.49123C7.48267 7.47293 7.59505 7.42649 7.69191 7.35581C7.78876 7.28512 7.86725 7.19225 7.92081 7.08498L9.99991 2.92677Z" fill="#CBA977"/>
</svg>
