<svg width="18" height="16" viewBox="0 0 18 16" fill="none" xmlns="http://www.w3.org/2000/svg">
<path d="M16.75 10H1.25C0.8355 10 0.5 9.6645 0.5 9.25V6.75C0.5 6.3355 0.8355 6 1.25 6H16.75C17.1645 6 17.5 6.3355 17.5 6.75V9.25C17.5 9.6645 17.1645 10 16.75 10ZM16.75 4.5H1.25C0.8355 4.5 0.5 4.1645 0.5 3.75V1.25C0.5 0.8355 0.8355 0.5 1.25 0.5H16.75C17.1645 0.5 17.5 0.8355 17.5 1.25V3.75C17.5 4.1645 17.1645 4.5 16.75 4.5ZM16.75 15.5H1.25C0.8355 15.5 0.5 15.1645 0.5 14.75V12.25C0.5 11.8355 0.8355 11.5 1.25 11.5H16.75C17.1645 11.5 17.5 11.8355 17.5 12.25V14.75C17.5 15.1645 17.1645 15.5 16.75 15.5Z" fill="#CBA977"/>
</svg>
