<svg width="53" height="52" viewBox="0 0 53 52" fill="none" xmlns="http://www.w3.org/2000/svg">
<rect x="0.666748" width="52" height="52" rx="12" fill="white"/>
<path d="M25.4167 15.5001C25.3174 15.4987 25.2187 15.517 25.1265 15.5541C25.0342 15.5912 24.9503 15.6462 24.8795 15.716C24.8087 15.7857 24.7525 15.8689 24.7142 15.9606C24.6758 16.0523 24.6561 16.1507 24.6561 16.2501C24.6561 16.3495 24.6758 16.4479 24.7142 16.5396C24.7525 16.6313 24.8087 16.7144 24.8795 16.7842C24.9503 16.854 25.0342 16.909 25.1265 16.9461C25.2187 16.9831 25.3174 17.0015 25.4167 17.0001H25.9167V18.0382C21.3046 18.4214 17.6667 22.2907 17.6667 27.0001C17.6667 31.9626 21.7042 36.0001 26.6667 36.0001C31.6292 36.0001 35.6667 31.9626 35.6667 27.0001C35.6667 24.7883 34.8615 22.7631 33.533 21.1944L34.4451 20.2823C34.5533 20.1769 34.6271 20.0413 34.657 19.8933C34.6869 19.7452 34.6713 19.5916 34.6125 19.4525C34.5536 19.3134 34.4541 19.1954 34.327 19.1138C34.1999 19.0322 34.0511 18.9908 33.9001 18.9952C33.7054 19.0009 33.5204 19.0821 33.3845 19.2218L32.4724 20.1339C31.0832 18.9574 29.335 18.1975 27.4167 18.0382V17.0001H27.9167C28.0161 17.0015 28.1148 16.9831 28.207 16.9461C28.2993 16.909 28.3832 16.854 28.454 16.7842C28.5248 16.7144 28.581 16.6313 28.6193 16.5396C28.6577 16.4479 28.6774 16.3495 28.6774 16.2501C28.6774 16.1507 28.6577 16.0523 28.6193 15.9606C28.581 15.8689 28.5248 15.7857 28.454 15.716C28.3832 15.6462 28.2993 15.5912 28.207 15.5541C28.1148 15.517 28.0161 15.4987 27.9167 15.5001H25.4167ZM29.9167 23.0001C30.1086 23.0001 30.3005 23.0733 30.447 23.2198C30.74 23.5123 30.7395 23.9873 30.447 24.2803L28.1111 26.6163C28.1436 26.7393 28.1667 26.8666 28.1667 27.0001C28.1667 27.8286 27.4952 28.5001 26.6667 28.5001C25.8382 28.5001 25.1667 27.8286 25.1667 27.0001C25.1667 26.1716 25.8382 25.5001 26.6667 25.5001C26.8002 25.5001 26.9275 25.5227 27.0505 25.5557L29.3865 23.2198C29.533 23.0733 29.7249 23.0001 29.9167 23.0001Z" fill="#CBA977"/>
</svg>
