<svg width="16" height="12" viewBox="0 0 16 12" fill="none" xmlns="http://www.w3.org/2000/svg">
<path d="M5.08747 0.351588L0.346671 5.15143C-0.115557 5.62021 -0.115557 6.38019 0.346671 6.84897L5.08747 11.6488C5.31898 11.8832 5.6224 12 5.92581 12C6.22922 12 6.53263 11.8832 6.76335 11.648C7.22637 11.1792 7.22637 10.4201 6.76335 9.95127L4.04608 7.20016H14.8148C15.469 7.20016 16 6.66258 16 6.0002C16 5.33782 15.469 4.80024 14.8148 4.80024H4.04608L6.76335 2.04833C7.22637 1.57955 7.22637 0.820373 6.76335 0.351588C6.30033 -0.117196 5.55049 -0.117196 5.08747 0.351588Z" fill="#CBA977"/>
</svg>
