<svg width="22" height="12" viewBox="0 0 22 12" fill="none" xmlns="http://www.w3.org/2000/svg">
<path d="M6.50008 11.2498C6.57038 11.1801 6.62617 11.0972 6.66425 11.0058C6.70232 10.9144 6.72193 10.8163 6.72193 10.7173C6.72193 10.6183 6.70232 10.5203 6.66425 10.4289C6.62617 10.3375 6.57038 10.2546 6.50008 10.1848L3.05008 6.73483L20.7051 6.73483C20.904 6.73483 21.0948 6.65581 21.2354 6.51516C21.3761 6.37451 21.4551 6.18374 21.4551 5.98483C21.4551 5.78592 21.3761 5.59515 21.2354 5.4545C21.0948 5.31385 20.904 5.23483 20.7051 5.23483L3.06508 5.23483L6.50008 1.80733C6.63977 1.66681 6.71817 1.47672 6.71817 1.27858C6.71817 1.08044 6.63977 0.890352 6.50008 0.749831C6.35956 0.610142 6.16947 0.531736 5.97133 0.531736C5.77319 0.531736 5.5831 0.610142 5.44258 0.749831L0.672579 5.51983C0.608378 5.58143 0.557293 5.65537 0.522397 5.73721C0.4875 5.81905 0.469512 5.90711 0.469512 5.99608C0.469512 6.08505 0.4875 6.1731 0.522397 6.25495C0.557293 6.33679 0.608378 6.41073 0.672579 6.47233L5.43508 11.2498C5.5048 11.3201 5.58775 11.3759 5.67915 11.414C5.77054 11.4521 5.86857 11.4717 5.96758 11.4717C6.06659 11.4717 6.16462 11.4521 6.25601 11.414C6.34741 11.3759 6.43036 11.3201 6.50008 11.2498Z" fill="#B3B3B3"/>
</svg>
