<svg width="20" height="18" viewBox="0 0 20 18" fill="none" xmlns="http://www.w3.org/2000/svg">
<path d="M7.25 0C6.29252 0 5.5 0.792523 5.5 1.75V3H1.75C0.785 3 0 3.785 0 4.75V11H8.5V10.75C8.5 10.335 8.835 10 9.25 10H10.75C11.165 10 11.5 10.335 11.5 10.75V11H20V4.75C20 3.785 19.215 3 18.25 3H14.5V1.75C14.5 0.792523 13.7075 0 12.75 0H7.25ZM7.25 1.5H12.75C12.8975 1.5 13 1.60248 13 1.75V3H7V1.75C7 1.60248 7.10248 1.5 7.25 1.5ZM0 12.5V16.25C0 17.215 0.785 18 1.75 18H18.25C19.215 18 20 17.215 20 16.25V12.5H11.5V12.75C11.5 13.165 11.165 13.5 10.75 13.5H9.25C8.835 13.5 8.5 13.165 8.5 12.75V12.5H0Z" 
fill="#A5A5A5"/>
</svg>
