<svg width="20" height="19" viewBox="0 0 20 19" fill="none" xmlns="http://www.w3.org/2000/svg">
<path d="M7.25 0C6.29252 0 5.5 0.792523 5.5 1.75V3H1.75C0.792523 3 0 3.79252 0 4.75V16.75C0 17.7075 0.792523 18.5 1.75 18.5H18.25C19.2075 18.5 20 17.7075 20 16.75V4.75C20 3.79252 19.2075 3 18.25 3H14.5V1.75C14.5 0.792523 13.7075 0 12.75 0H7.25ZM7.25 1.5H12.75C12.8975 1.5 13 1.60248 13 1.75V3H7V1.75C7 1.60248 7.10248 1.5 7.25 1.5ZM1.75 4.5H18.25C18.3975 4.5 18.5 4.60248 18.5 4.75V11.5H11.5V11.25C11.5 10.836 11.164 10.5 10.75 10.5H9.25C8.836 10.5 8.5 10.836 8.5 11.25V11.5H1.5V4.75C1.5 4.60248 1.60248 4.5 1.75 4.5ZM1.5 13H8.5V13.25C8.5 13.664 8.836 14 9.25 14H10.75C11.164 14 11.5 13.664 11.5 13.25V13H18.5V16.75C18.5 16.8975 18.3975 17 18.25 17H1.75C1.60248 17 1.5 16.8975 1.5 16.75V13Z" fill="#CBA977"/>
</svg>
