<svg width="17" height="23" viewBox="0 0 17 23" fill="none" xmlns="http://www.w3.org/2000/svg">
<path d="M15.0577 7.57174C15.2184 9.19674 14.6336 10.3485 13.3032 11.0271C14.3479 11.2771 15.1291 11.7369 15.647 12.4066C16.1648 13.0762 16.3657 14.0316 16.2497 15.2726C16.1872 15.9066 16.0421 16.4646 15.8144 16.9467C15.5867 17.4289 15.2988 17.8262 14.9505 18.1387C14.6023 18.4512 14.1693 18.7124 13.6514 18.9222C13.1336 19.132 12.5912 19.286 12.0242 19.3842C11.4572 19.4825 10.8077 19.5494 10.0755 19.5851V23.0003H8.01304V19.6387C7.29876 19.6387 6.75412 19.6342 6.37912 19.6253V23.0003H4.31662V19.5851C4.1559 19.5851 3.91483 19.5829 3.5934 19.5784C3.27197 19.574 3.02644 19.5717 2.85679 19.5717H0.178223L0.593401 17.1208H2.08001C2.52644 17.1208 2.78537 16.8932 2.85679 16.4378V11.0539H3.07108C3.01751 11.045 2.94608 11.0405 2.85679 11.0405V7.19674C2.74072 6.5896 2.3434 6.28603 1.66483 6.28603H0.178223V4.0896L3.01751 4.10299C3.58894 4.10299 4.02197 4.09853 4.31662 4.0896V0.7146H6.37912V4.02264C7.11126 4.00478 7.6559 3.99585 8.01304 3.99585V0.7146H10.0755V4.0896C10.7809 4.1521 11.4059 4.25255 11.9505 4.39094C12.4952 4.52933 12.9997 4.73022 13.4639 4.99362C13.9282 5.25701 14.2965 5.60522 14.5688 6.03826C14.8412 6.4713 15.0041 6.98246 15.0577 7.57174ZM12.1782 14.8708C12.1782 14.5494 12.1113 14.2637 11.9773 14.0137C11.8434 13.7637 11.6782 13.5583 11.4818 13.3976C11.2854 13.2369 11.0287 13.1008 10.7117 12.9892C10.3947 12.8775 10.1023 12.795 9.83447 12.7414C9.56662 12.6878 9.23626 12.6476 8.8434 12.6208C8.45054 12.5941 8.14251 12.5807 7.91929 12.5807C7.69608 12.5807 7.40813 12.5851 7.05546 12.5941C6.70278 12.603 6.49072 12.6075 6.41929 12.6075V17.1342C6.49072 17.1342 6.6559 17.1365 6.91483 17.1409C7.17376 17.1454 7.38804 17.1476 7.55769 17.1476C7.72733 17.1476 7.96394 17.1409 8.26751 17.1275C8.57108 17.1142 8.83224 17.0963 9.05099 17.074C9.26974 17.0517 9.52421 17.0137 9.81438 16.9601C10.1046 16.9066 10.3523 16.8441 10.5577 16.7726C10.763 16.7012 10.9751 16.6075 11.1938 16.4914C11.4126 16.3753 11.5889 16.2414 11.7229 16.0896C11.8568 15.9378 11.9662 15.7592 12.051 15.5539C12.1358 15.3485 12.1782 15.1208 12.1782 14.8708ZM11.2273 8.49585C11.2273 8.20121 11.1715 7.94005 11.0599 7.71237C10.9483 7.48469 10.8122 7.29719 10.6514 7.14987C10.4907 7.00255 10.2764 6.87755 10.0086 6.77487C9.74072 6.67219 9.49519 6.59853 9.27197 6.55388C9.04876 6.50924 8.77421 6.47353 8.44831 6.44674C8.12242 6.41996 7.86349 6.4088 7.67153 6.41326C7.47956 6.41772 7.23849 6.42219 6.94831 6.42665C6.65813 6.43112 6.48179 6.43335 6.41929 6.43335V10.545C6.46394 10.545 6.61796 10.5472 6.88135 10.5517C7.14474 10.5561 7.35233 10.5561 7.50412 10.5517C7.6559 10.5472 7.87912 10.5383 8.17376 10.5249C8.4684 10.5115 8.71394 10.4869 8.91037 10.4512C9.10679 10.4155 9.33671 10.3664 9.6001 10.3039C9.86349 10.2414 10.08 10.1588 10.2497 10.0561C10.4193 9.95344 10.5845 9.8329 10.7452 9.69451C10.9059 9.55612 11.0264 9.38424 11.1068 9.17888C11.1872 8.97353 11.2273 8.74585 11.2273 8.49585Z" fill="#FF950D"/>
</svg>
