<svg width="16" height="15" viewBox="0 0 16 15" fill="none" xmlns="http://www.w3.org/2000/svg">
<path d="M15.5 3.33333V2.70833C15.5 1.215 14.285 0 12.7917 0H3.20833C1.715 0 0.5 1.215 0.5 2.70833V3.33333H15.5ZM0.5 4.58333V12.2917C0.5 13.785 1.715 15 3.20833 15H12.7917C14.285 15 15.5 13.785 15.5 12.2917V4.58333H0.5ZM4.45833 12.5C3.88292 12.5 3.41667 12.0337 3.41667 11.4583C3.41667 10.8829 3.88292 10.4167 4.45833 10.4167C5.03375 10.4167 5.5 10.8829 5.5 11.4583C5.5 12.0337 5.03375 12.5 4.45833 12.5ZM4.45833 8.75C3.88292 8.75 3.41667 8.28375 3.41667 7.70833C3.41667 7.13292 3.88292 6.66667 4.45833 6.66667C5.03375 6.66667 5.5 7.13292 5.5 7.70833C5.5 8.28375 5.03375 8.75 4.45833 8.75ZM8 12.5C7.42458 12.5 6.95833 12.0337 6.95833 11.4583C6.95833 10.8829 7.42458 10.4167 8 10.4167C8.57542 10.4167 9.04167 10.8829 9.04167 11.4583C9.04167 12.0337 8.57542 12.5 8 12.5ZM8 8.75C7.42458 8.75 6.95833 8.28375 6.95833 7.70833C6.95833 7.13292 7.42458 6.66667 8 6.66667C8.57542 6.66667 9.04167 7.13292 9.04167 7.70833C9.04167 8.28375 8.57542 8.75 8 8.75ZM11.5417 8.75C10.9662 8.75 10.5 8.28375 10.5 7.70833C10.5 7.13292 10.9662 6.66667 11.5417 6.66667C12.1171 6.66667 12.5833 7.13292 12.5833 7.70833C12.5833 8.28375 12.1171 8.75 11.5417 8.75Z" fill="#BEBEBE"/>
</svg>
