<svg width="77" height="70" viewBox="0 0 77 70" fill="none" xmlns="http://www.w3.org/2000/svg">
<path d="M50.5896 0.0882833C51.0788 -0.131845 51.6545 0.0732024 51.8944 0.552991L53.3944 3.55299C53.6414 4.04697 53.4412 4.64764 52.9472 4.89463C52.4532 5.14162 51.8526 4.9414 51.6056 4.44742L50.5349 2.30608L11.4104 19.9121C10.9067 20.1388 10.3147 19.9142 10.0881 19.4106C9.86144 18.9069 10.086 18.3149 10.5896 18.0883L50.5896 0.0882833Z" fill="url(#paint0_radial)"/>
<path d="M56.6656 7.05778C57.1832 6.8741 57.7521 7.14229 57.9398 7.65846L61.9398 18.6585C62.1285 19.1775 61.8608 19.7513 61.3417 19.94C60.8227 20.1287 60.2489 19.861 60.0602 19.3419L56.3993 9.27445L26.3344 19.9426C25.8139 20.1273 25.2423 19.8551 25.0576 19.3346C24.8729 18.8141 25.1451 18.2425 25.6656 18.0578L56.6656 7.05778Z" fill="url(#paint1_radial)"/>
<path fill-rule="evenodd" clip-rule="evenodd" d="M48.2929 31.2931C48.4804 31.1056 48.7348 31.0002 49 31.0002H55C55.5523 31.0002 56 31.4479 56 32.0002C56 32.5525 55.5523 33.0002 55 33.0002H49.4142L43.7071 38.7073C43.5196 38.8949 43.2652 39.0002 43 39.0002H35.917C35.441 41.8379 32.973 44.0002 30 44.0002C26.6863 44.0002 24 41.3139 24 38.0002C24 34.6865 26.6863 32.0002 30 32.0002C32.973 32.0002 35.441 34.1625 35.917 37.0002H42.5858L48.2929 31.2931ZM30 34.0002C27.7909 34.0002 26 35.7911 26 38.0002C26 40.2094 27.7909 42.0002 30 42.0002C32.2091 42.0002 34 40.2094 34 38.0002C34 35.7911 32.2091 34.0002 30 34.0002Z" fill="url(#paint2_radial)"/>
<path d="M62 32.0002C62 32.5525 61.5523 33.0002 61 33.0002C60.4477 33.0002 60 32.5525 60 32.0002C60 31.4479 60.4477 31.0002 61 31.0002C61.5523 31.0002 62 31.4479 62 32.0002Z" fill="url(#paint3_radial)"/>
<path d="M68 33.0002C68.5523 33.0002 69 32.5525 69 32.0002C69 31.4479 68.5523 31.0002 68 31.0002C67.4477 31.0002 67 31.4479 67 32.0002C67 32.5525 67.4477 33.0002 68 33.0002Z" fill="url(#paint4_radial)"/>
<path d="M8 45.0002C8.55229 45.0002 9 45.4479 9 46.0002C9 46.5525 8.55229 47.0002 8 47.0002C7.44772 47.0002 7 46.5525 7 46.0002C7 45.4479 7.44772 45.0002 8 45.0002Z" fill="url(#paint5_radial)"/>
<path d="M9 52.0002C9 51.4479 8.55229 51.0002 8 51.0002C7.44772 51.0002 7 51.4479 7 52.0002C7 52.5525 7.44772 53.0002 8 53.0002C8.55229 53.0002 9 52.5525 9 52.0002Z" fill="url(#paint6_radial)"/>
<path d="M8 57.0002C8.55229 57.0002 9 57.4479 9 58.0002C9 58.5525 8.55229 59.0002 8 59.0002C7.44772 59.0002 7 58.5525 7 58.0002C7 57.4479 7.44772 57.0002 8 57.0002Z" fill="url(#paint7_radial)"/>
<path d="M60 46.0002C60 45.4479 59.5523 45.0002 59 45.0002C58.4477 45.0002 58 45.4479 58 46.0002C58 46.5525 58.4477 47.0002 59 47.0002C59.5523 47.0002 60 46.5525 60 46.0002Z" fill="url(#paint8_radial)"/>
<path fill-rule="evenodd" clip-rule="evenodd" d="M6 15.0002C3.79086 15.0002 2 16.7911 2 19.0002C2 21.2093 3.79086 23.0002 6 23.0002H68V15.0002H65C64.4477 15.0002 64 14.5525 64 14.0002C64 13.4479 64.4477 13.0002 65 13.0002H69C69.5523 13.0002 70 13.4479 70 14.0002V23.0002H74C74.5523 23.0002 75 23.4479 75 24.0002V38.1709C76.1652 38.5828 77 39.694 77 41.0002V51.0002C77 52.3064 76.1652 53.4177 75 53.8295V69.0002C75 69.5525 74.5523 70.0002 74 70.0002H6C2.68629 70.0002 0 67.3139 0 64.0002V19.0002C0 15.6865 2.68629 13.0002 6 13.0002H11C11.5523 13.0002 12 13.4479 12 14.0002C12 14.5525 11.5523 15.0002 11 15.0002H6ZM2 23.4724V31.0002H10C10.2652 31.0002 10.5196 31.1056 10.7071 31.2931L19.7071 40.2931C19.8946 40.4806 20 40.735 20 41.0002V48.0832C22.8377 48.5592 25 51.0272 25 54.0002C25 57.3139 22.3137 60.0002 19 60.0002C15.6863 60.0002 13 57.3139 13 54.0002C13 51.0272 15.1623 48.5592 18 48.0832V41.4144L9.58579 33.0002H2V64.0002C2 66.2094 3.79086 68.0002 6 68.0002H73V62.0002H54C53.7348 62.0002 53.4804 61.8949 53.2929 61.7073L46.5858 55.0002H43.917C43.441 57.8379 40.973 60.0002 38 60.0002C34.6863 60.0002 32 57.3139 32 54.0002C32 50.6865 34.6863 48.0002 38 48.0002C40.973 48.0002 43.441 50.1625 43.917 53.0002H47C47.2652 53.0002 47.5196 53.1056 47.7071 53.2931L54.4142 60.0002H73V54.0002H59C54.5817 54.0002 51 50.4185 51 46.0002C51 41.5819 54.5817 38.0002 59 38.0002H73V25.0002H6C4.46329 25.0002 3.06151 24.4225 2 23.4724ZM59 40.0002C55.6863 40.0002 53 42.6865 53 46.0002C53 49.3139 55.6863 52.0002 59 52.0002H74C74.5523 52.0002 75 51.5525 75 51.0002V41.0002C75 40.4479 74.5523 40.0002 74 40.0002H59ZM19 50.0002C16.7909 50.0002 15 51.7911 15 54.0002C15 56.2094 16.7909 58.0002 19 58.0002C21.2091 58.0002 23 56.2094 23 54.0002C23 51.7911 21.2091 50.0002 19 50.0002ZM38 50.0002C35.7909 50.0002 34 51.7911 34 54.0002C34 56.2094 35.7909 58.0002 38 58.0002C40.2091 58.0002 42 56.2094 42 54.0002C42 51.7911 40.2091 50.0002 38 50.0002Z" fill="url(#paint9_radial)"/>
<defs>
<radialGradient id="paint0_radial" cx="0" cy="0" r="1" gradientUnits="userSpaceOnUse" gradientTransform="translate(-2.0861e-07 70.0002) rotate(-42.2738) scale(104.063)">
<stop stop-color="#FF661A"/>
<stop offset="1" stop-color="#BF00E6"/>
</radialGradient>
<radialGradient id="paint1_radial" cx="0" cy="0" r="1" gradientUnits="userSpaceOnUse" gradientTransform="translate(-2.0861e-07 70.0002) rotate(-42.2738) scale(104.063)">
<stop stop-color="#FF661A"/>
<stop offset="1" stop-color="#BF00E6"/>
</radialGradient>
<radialGradient id="paint2_radial" cx="0" cy="0" r="1" gradientUnits="userSpaceOnUse" gradientTransform="translate(-2.0861e-07 70.0002) rotate(-42.2738) scale(104.063)">
<stop stop-color="#FF661A"/>
<stop offset="1" stop-color="#BF00E6"/>
</radialGradient>
<radialGradient id="paint3_radial" cx="0" cy="0" r="1" gradientUnits="userSpaceOnUse" gradientTransform="translate(-2.0861e-07 70.0002) rotate(-42.2738) scale(104.063)">
<stop stop-color="#FF661A"/>
<stop offset="1" stop-color="#BF00E6"/>
</radialGradient>
<radialGradient id="paint4_radial" cx="0" cy="0" r="1" gradientUnits="userSpaceOnUse" gradientTransform="translate(-2.0861e-07 70.0002) rotate(-42.2738) scale(104.063)">
<stop stop-color="#FF661A"/>
<stop offset="1" stop-color="#BF00E6"/>
</radialGradient>
<radialGradient id="paint5_radial" cx="0" cy="0" r="1" gradientUnits="userSpaceOnUse" gradientTransform="translate(-2.0861e-07 70.0002) rotate(-42.2738) scale(104.063)">
<stop stop-color="#FF661A"/>
<stop offset="1" stop-color="#BF00E6"/>
</radialGradient>
<radialGradient id="paint6_radial" cx="0" cy="0" r="1" gradientUnits="userSpaceOnUse" gradientTransform="translate(-2.0861e-07 70.0002) rotate(-42.2738) scale(104.063)">
<stop stop-color="#FF661A"/>
<stop offset="1" stop-color="#BF00E6"/>
</radialGradient>
<radialGradient id="paint7_radial" cx="0" cy="0" r="1" gradientUnits="userSpaceOnUse" gradientTransform="translate(-2.0861e-07 70.0002) rotate(-42.2738) scale(104.063)">
<stop stop-color="#FF661A"/>
<stop offset="1" stop-color="#BF00E6"/>
</radialGradient>
<radialGradient id="paint8_radial" cx="0" cy="0" r="1" gradientUnits="userSpaceOnUse" gradientTransform="translate(-2.0861e-07 70.0002) rotate(-42.2738) scale(104.063)">
<stop stop-color="#FF661A"/>
<stop offset="1" stop-color="#BF00E6"/>
</radialGradient>
<radialGradient id="paint9_radial" cx="0" cy="0" r="1" gradientUnits="userSpaceOnUse" gradientTransform="translate(-2.0861e-07 70.0002) rotate(-42.2738) scale(104.063)">
<stop stop-color="#FF661A"/>
<stop offset="1" stop-color="#BF00E6"/>
</radialGradient>
</defs>
</svg>
