<svg width="28" height="28" viewBox="0 0 28 28" fill="none" xmlns="http://www.w3.org/2000/svg">
<path d="M14 2C20.616 2 26 7.383 26 14C26 20.617 20.616 26.001 14 26.001C7.383 26.001 2 20.617 2 14C2 7.383 7.383 2 14 2ZM14 0C6.268 0 0 6.269 0 14C0 21.732 6.268 28.001 14 28.001C21.732 28.001 28 21.732 28 14C28 6.269 21.732 0 14 0Z" fill="#BAC6CA"/>
<path d="M13.9962 21.3077C11.6242 21.3077 9.49918 19.6267 9.02818 17.2107C8.86918 16.3977 9.39918 15.6097 10.2122 15.4507C11.0252 15.2917 11.8142 15.8227 11.9722 16.6367C12.1912 17.7537 13.2782 18.4917 14.3942 18.2687C15.8822 17.9807 16.0002 17.8027 16.0002 16.9237C16.0002 16.4597 15.8822 16.1247 15.6382 15.8987C15.3202 15.6057 14.7542 15.4627 14.1302 15.5077C12.5712 15.6407 11.2492 15.2607 10.3172 14.4047C9.71618 13.8537 9.00018 12.8277 9.00018 11.0757C9.00018 9.70467 9.51718 8.55367 10.4952 7.74767C11.6222 6.81967 13.2962 6.45867 14.9672 6.78467C17.0042 7.18067 18.5762 8.75267 18.9722 10.7897C19.1302 11.6027 18.6002 12.3907 17.7862 12.5487C16.9712 12.7047 16.1852 12.1757 16.0282 11.3617C15.8662 10.5317 15.2252 9.89067 14.3942 9.72967C13.6142 9.57867 12.8312 9.70867 12.4032 10.0627C12.2292 10.2057 12.0002 10.4657 12.0002 11.0757C12.0002 11.6077 12.1162 11.9837 12.3472 12.1947C12.6342 12.4607 13.1982 12.5757 13.8862 12.5177C15.3662 12.3987 16.7412 12.8317 17.6752 13.6957C18.5422 14.4987 19.0002 15.6147 19.0002 16.9237C19.0002 20.4357 16.1732 20.9817 14.9652 21.2137C14.6402 21.2767 14.3152 21.3077 13.9962 21.3077Z" fill="#BAC6CA"/>
<path d="M14.1548 8.83106C13.3268 8.83106 12.6548 8.15905 12.6548 7.33105V6.33105C12.6548 5.50305 13.3268 4.83105 14.1548 4.83105C14.9828 4.83105 15.6548 5.50305 15.6548 6.33105V7.33105C15.6548 8.15905 14.9828 8.83106 14.1548 8.83106Z" fill="#BAC6CA"/>
<path d="M14.1548 22.8311C13.3268 22.8311 12.6548 22.1591 12.6548 21.3311V20.3311C12.6548 19.5031 13.3268 18.8311 14.1548 18.8311C14.9828 18.8311 15.6548 19.5031 15.6548 20.3311V21.3311C15.6548 22.1591 14.9828 22.8311 14.1548 22.8311Z" fill="#BAC6CA"/>
</svg>
