<svg width="26" height="23" viewBox="0 0 26 23" fill="none" xmlns="http://www.w3.org/2000/svg">
<path d="M23.0831 2.72713C20.4319 0.137831 16.1324 0.137831 13.4812 2.72713L2.47385 13.3443C0.414966 15.354 0.414966 18.6253 2.47385 20.635C4.53274 22.6447 7.88323 22.6447 9.94136 20.635L20.9487 10.0171C22.4222 8.57884 22.4222 6.24802 20.9487 4.80977C19.4753 3.37225 17.0867 3.37225 15.6148 4.80977L7.34003 12.887C7.04504 13.1757 7.04504 13.6404 7.34003 13.929C7.63502 14.217 8.11183 14.217 8.40682 13.929L16.6823 5.85109C17.565 4.9902 19 4.9902 19.8827 5.85109C20.7654 6.71271 20.7654 8.11415 19.8827 8.97578L8.87533 19.5929C7.4019 21.0312 5.01483 21.0312 3.54139 19.5929C2.06796 18.1554 2.06796 15.8239 3.54139 14.3864L14.4409 3.87229C16.5035 1.85888 19.8488 1.85888 21.9084 3.87229C23.9726 5.88644 23.9726 9.14884 21.9099 11.1622L13.7423 19.1356C13.4458 19.4243 13.4458 19.889 13.7423 20.1769C14.0373 20.4656 14.5141 20.4656 14.8091 20.1769L23.0831 12.0997C25.7357 9.5119 25.7357 5.31496 23.0831 2.72713Z" fill="#8B9296" stroke="#8B9296" stroke-width="0.5"/>
</svg>
