<svg width="16" height="16" viewBox="0 0 16 16" fill="none" xmlns="http://www.w3.org/2000/svg">
<path d="M1.14588 0.000495998C0.919 0.0005556 0.69729 0.0682974 0.509097 0.195061C0.320904 0.321824 0.17478 0.50185 0.0894056 0.712121C0.00403138 0.922392 -0.0167134 1.15336 0.0298234 1.37548C0.0763602 1.59761 0.188064 1.80081 0.350654 1.95909L6.38726 7.99755L0.350654 14.036C0.241196 14.1411 0.153808 14.267 0.0936072 14.4064C0.0334062 14.5457 0.00160277 14.6956 5.90337e-05 14.8474C-0.0014847 14.9992 0.0272626 15.1498 0.0846171 15.2903C0.141972 15.4308 0.226781 15.5585 0.334077 15.6658C0.441374 15.7731 0.569 15.858 0.709484 15.9154C0.849967 15.9727 1.00048 16.0015 1.15221 15.9999C1.30395 15.9984 1.45385 15.9666 1.59313 15.9064C1.73242 15.8461 1.8583 15.7587 1.96339 15.6492L8 9.61078L14.0366 15.6492C14.1417 15.7587 14.2676 15.8461 14.4069 15.9064C14.5461 15.9666 14.696 15.9984 14.8478 15.9999C14.9995 16.0015 15.15 15.9727 15.2905 15.9154C15.431 15.858 15.5586 15.7732 15.6659 15.6658C15.7732 15.5585 15.858 15.4308 15.9154 15.2903C15.9727 15.1498 16.0015 14.9992 15.9999 14.8474C15.9984 14.6956 15.9666 14.5457 15.9064 14.4064C15.8462 14.267 15.7588 14.1411 15.6493 14.036L9.61273 7.99755L15.6493 1.95909C15.8141 1.79885 15.9267 1.59254 15.9723 1.3672C16.0179 1.14186 15.9943 0.908004 15.9047 0.696279C15.8152 0.484555 15.6637 0.304838 15.4703 0.180681C15.2769 0.056524 15.0504 -0.00628103 14.8207 0.000495998C14.5244 0.00932743 14.2432 0.133199 14.0366 0.345869L8 6.38433L1.96339 0.345869C1.8571 0.236582 1.73 0.149713 1.58959 0.0903926C1.44918 0.0310724 1.2983 0.000504885 1.14588 0.000495998Z" fill="#CBA977"/>
</svg>
