<svg width="36" height="36" viewBox="0 0 80 80" fill="none" xmlns="http://www.w3.org/2000/svg">
<circle cx="40" cy="40" r="40" fill="#D1D3D5"/>
<path fill-rule="evenodd" clip-rule="evenodd" d="M21.667 26.6665C21.667 23.9044 23.9049 21.6665 26.667 21.6665H51.667C52.5875 21.6665 53.3337 22.4127 53.3337 23.3332C53.3337 24.2536 52.5875 24.9998 51.667 24.9998H26.667C25.7458 24.9998 25.0003 25.7453 25.0003 26.6665C25.0003 27.5877 25.7458 28.3332 26.667 28.3332H41.667C42.5875 28.3332 43.3337 29.0794 43.3337 29.9998C43.3337 30.9203 42.5875 31.6665 41.667 31.6665H26.667C23.9049 31.6665 21.667 29.4286 21.667 26.6665Z" fill="white"/>
<path d="M55.0003 28.3332H25.0003L21.667 26.6665V53.3332C21.667 56.0948 23.9053 58.3332 26.667 58.3332H55.0003C56.842 58.3332 58.3337 56.8415 58.3337 54.9998V31.6665C58.3337 29.8248 56.842 28.3332 55.0003 28.3332ZM51.667 46.6665C49.8253 46.6665 48.3337 45.1748 48.3337 43.3332C48.3337 41.4915 49.8253 39.9998 51.667 39.9998C53.5087 39.9998 55.0003 41.4915 55.0003 43.3332C55.0003 45.1748 53.5087 46.6665 51.667 46.6665Z" fill="white"/>
</svg>