<svg width="18" height="17" viewBox="0 0 18 17" fill="none" xmlns="http://www.w3.org/2000/svg">
<path d="M3.37508 0.416748C1.88677 0.416748 0.666748 1.63677 0.666748 3.12508V10.2084C0.666748 11.6967 1.88677 12.9167 3.37508 12.9167H4.00008V15.2084C4.00008 16.0276 5.01146 16.533 5.66675 16.0417L9.83342 12.9167H14.6251C16.1134 12.9167 17.3334 11.6967 17.3334 10.2084V3.12508C17.3334 1.63677 16.1134 0.416748 14.6251 0.416748H3.37508ZM5.45842 4.58342H12.5417C12.8876 4.58342 13.1667 4.86258 13.1667 5.20842C13.1667 5.55425 12.8876 5.83342 12.5417 5.83342H5.45842C5.11258 5.83342 4.83342 5.55425 4.83342 5.20842C4.83342 4.86258 5.11258 4.58342 5.45842 4.58342ZM5.45842 7.50008H10.8751C11.2209 7.50008 11.5001 7.77925 11.5001 8.12508C11.5001 8.47091 11.2209 8.75008 10.8751 8.75008H5.45842C5.11258 8.75008 4.83342 8.47091 4.83342 8.12508C4.83342 7.77925 5.11258 7.50008 5.45842 7.50008Z" fill="#BEBEBE"/>
</svg>
