<svg width="21" height="18" viewBox="0 0 21 18" fill="none" xmlns="http://www.w3.org/2000/svg">
<path d="M7.58334 0C6.62587 0 5.83334 0.792523 5.83334 1.75V3H2.08334C1.11834 3 0.333344 3.785 0.333344 4.75V11H8.83334V10.75C8.83334 10.335 9.16834 10 9.58334 10H11.0833C11.4983 10 11.8333 10.335 11.8333 10.75V11H20.3333V4.75C20.3333 3.785 19.5483 3 18.5833 3H14.8333V1.75C14.8333 0.792523 14.0408 0 13.0833 0H7.58334ZM7.58334 1.5H13.0833C13.2309 1.5 13.3333 1.60248 13.3333 1.75V3H7.33334V1.75C7.33334 1.60248 7.43582 1.5 7.58334 1.5ZM0.333344 12.5V16.25C0.333344 17.215 1.11834 18 2.08334 18H18.5833C19.5483 18 20.3333 17.215 20.3333 16.25V12.5H11.8333V12.75C11.8333 13.165 11.4983 13.5 11.0833 13.5H9.58334C9.16834 13.5 8.83334 13.165 8.83334 12.75V12.5H0.333344Z" fill="#CBA977"/>
</svg>
