<svg width="20" height="20" viewBox="0 0 20 20" fill="none" xmlns="http://www.w3.org/2000/svg">
<path d="M10 0C4.48615 0 0 4.48615 0 10C0 11.6377 0.431354 13.1674 1.13086 14.5322L0.046875 18.4141C-0.205601 19.3158 0.685963 20.2063 1.58789 19.9541L5.47168 18.8701C6.83552 19.5687 8.36348 20 10 20C15.5139 20 20 15.5139 20 10C20 4.48615 15.5139 0 10 0ZM10 1.5C14.7031 1.5 18.5 5.29685 18.5 10C18.5 14.7031 14.7031 18.5 10 18.5C8.49851 18.5 7.09613 18.1091 5.87207 17.4268C5.69924 17.3303 5.4953 17.3061 5.30469 17.3594L1.61133 18.3906L2.64258 14.6992C2.69585 14.5086 2.67163 14.3047 2.5752 14.1318C1.89183 12.9067 1.5 11.5023 1.5 10C1.5 5.29685 5.29685 1.5 10 1.5ZM9.98828 4.48926C9.78954 4.49236 9.60016 4.57423 9.46173 4.71686C9.3233 4.8595 9.24715 5.05125 9.25 5.25V11.25C9.24859 11.3494 9.26696 11.4481 9.30402 11.5403C9.34108 11.6325 9.3961 11.7164 9.46588 11.7872C9.53566 11.858 9.61882 11.9142 9.71051 11.9526C9.8022 11.9909 9.90061 12.0107 10 12.0107C10.0994 12.0107 10.1978 11.9909 10.2895 11.9526C10.3812 11.9142 10.4643 11.858 10.5341 11.7872C10.6039 11.7164 10.6589 11.6325 10.696 11.5403C10.733 11.4481 10.7514 11.3494 10.75 11.25V5.25C10.7514 5.14962 10.7327 5.04997 10.6949 4.95695C10.6571 4.86394 10.6011 4.77946 10.53 4.70852C10.459 4.63758 10.3745 4.58161 10.2814 4.54395C10.1883 4.50629 10.0887 4.48769 9.98828 4.48926ZM10 13.5C9.73478 13.5 9.48043 13.6054 9.29289 13.7929C9.10536 13.9804 9 14.2348 9 14.5C9 14.7652 9.10536 15.0196 9.29289 15.2071C9.48043 15.3946 9.73478 15.5 10 15.5C10.2652 15.5 10.5196 15.3946 10.7071 15.2071C10.8946 15.0196 11 14.7652 11 14.5C11 14.2348 10.8946 13.9804 10.7071 13.7929C10.5196 13.6054 10.2652 13.5 10 13.5Z" fill="#CBA977"/>
</svg>
