<svg width="55" height="65" viewBox="0 0 55 65" fill="none" xmlns="http://www.w3.org/2000/svg">
<path d="M42.5 0H12.5C5.607 0 0 5.607 0 12.5V52.5C0 59.393 5.607 65 12.5 65H42.5C49.393 65 55 59.393 55 52.5V12.5C55 5.607 49.393 0 42.5 0ZM50 52.5C50 56.636 46.636 60 42.5 60H12.5C8.364 60 5 56.636 5 52.5V12.5C5 8.364 8.364 5 12.5 5H42.5C46.636 5 50 8.364 50 12.5V52.5Z" fill="#D1D3D5"/>
<path d="M37.5 43H17.5C16.119 43 15 44.119 15 45.5C15 46.881 16.119 48 17.5 48H37.5C38.881 48 40 46.881 40 45.5C40 44.119 38.881 43 37.5 43Z" fill="#D1D3D5"/>
<path d="M38.2527 17.8353L23.6248 32.4623L19.2678 28.1053C18.2908 27.1283 16.7088 27.1283 15.7327 28.1053C14.7558 29.0813 14.7558 30.6643 15.7327 31.6403L21.8578 37.7653C22.3458 38.2533 22.9857 38.4973 23.6257 38.4973C24.2657 38.4973 24.9048 38.2533 25.3938 37.7653L41.7877 21.3703C42.7647 20.3943 42.7647 18.8113 41.7877 17.8353C40.8117 16.8583 39.2287 16.8583 38.2527 17.8353Z" fill="#D1D3D5"/>
</svg>
