<svg width="74" height="74" viewBox="0 0 74 74" fill="none" xmlns="http://www.w3.org/2000/svg">
<rect y="0.000213623" width="74" height="74" rx="16" fill="#F1EAE3"/>
<path d="M50.3327 37.0002C50.3327 35.1455 49.3034 33.4742 47.7247 32.6135C48.322 30.8455 47.892 28.8222 46.5347 27.4649C45.1774 26.1075 43.1547 25.6789 41.386 26.2749C40.5253 24.6962 38.854 23.6669 36.9993 23.6669C35.1447 23.6669 33.4733 24.6962 32.6127 26.2749C30.8433 25.6769 28.8207 26.1075 27.464 27.4649C26.1067 28.8222 25.676 30.8455 26.274 32.6135C24.6953 33.4742 23.666 35.1455 23.666 37.0002C23.666 38.8549 24.6953 40.5262 26.274 41.3869C25.6767 43.1549 26.1067 45.1782 27.464 46.5355C28.822 47.8929 30.846 48.3235 32.6127 47.7255C33.4733 49.3042 35.1447 50.3335 36.9993 50.3335C38.854 50.3335 40.5253 49.3042 41.386 47.7255C43.1547 48.3235 45.1774 47.8922 46.5347 46.5355C47.892 45.1782 48.3227 43.1549 47.7247 41.3869C49.3034 40.5262 50.3327 38.8549 50.3327 37.0002ZM42.7067 34.7075L36.04 41.3742C35.8447 41.5695 35.5887 41.6669 35.3327 41.6669C35.0767 41.6669 34.8207 41.5695 34.6253 41.3742L31.292 38.0409C30.9013 37.6509 30.9013 37.0169 31.292 36.6269C31.6827 36.2362 32.3153 36.2362 32.706 36.6269L35.332 39.2529L41.2913 33.2935C41.682 32.9029 42.3147 32.9029 42.7053 33.2935C43.0967 33.6835 43.0967 34.3169 42.7067 34.7075Z" fill="#CBA977"/>
</svg>
