<svg width="16" height="20" viewBox="0 0 16 20" fill="none" xmlns="http://www.w3.org/2000/svg">
<path d="M5.25 0C3.74011 0 2.5 1.27637 2.5 2.83041V14.152C2.5 15.7061 3.74011 16.9825 5.25 16.9825H13.25C14.7599 16.9825 16 15.7061 16 14.152V2.83041C16 1.27637 14.7599 0 13.25 0H5.25ZM5.25 1.54386H13.25C13.9491 1.54386 14.5 2.11085 14.5 2.83041V14.152C14.5 14.8716 13.9491 15.4386 13.25 15.4386H5.25C4.55089 15.4386 4 14.8716 4 14.152V2.83041C4 2.11085 4.55089 1.54386 5.25 1.54386ZM1.5 2.5731L0.890625 2.99123C0.334125 3.37308 0 4.0159 0 4.70395V14.6667C0 17.3669 2.1265 19.5556 4.75 19.5556H11.4297C12.0987 19.5556 12.7233 19.2117 13.0938 18.6389L13.5 18.0117H4.75C2.955 18.0117 1.5 16.5142 1.5 14.6667V2.5731Z" fill="#CBA977"/>
</svg>
