<svg width="195" height="369" viewBox="0 0 195 369" fill="none" xmlns="http://www.w3.org/2000/svg">
<path d="M174.904 150.686V218.179C174.904 219.584 174.763 220.959 174.486 222.293C172.2 233.452 160.788 242 147.172 242H61.4977C53.0556 242 45.4595 238.712 40.3614 233.555C36.252 229.395 33.7656 224.027 33.7656 218.179V150.686C33.7656 145.686 35.5846 141.037 38.6793 137.195C43.6909 130.964 52.0682 126.865 61.4977 126.865H147.17C149.162 126.865 151.107 127.047 152.985 127.396C158.86 128.483 164.055 131.178 167.91 134.918C172.259 139.13 174.904 144.656 174.904 150.686Z" fill="white"/>
<path d="M145.484 126.864C161.662 126.864 174.898 140.1 174.898 156.278V239.621C174.898 255.799 161.662 269.035 145.484 269.035H63.1785C47.0005 269.035 33.7643 255.799 33.7643 239.621V156.278C33.7643 140.1 47.0005 126.864 63.1785 126.864H145.484ZM145.484 122.257H63.1785C44.419 122.257 29.1562 137.518 29.1562 156.278V239.621C29.1562 258.381 44.4175 273.642 63.1785 273.642H145.484C164.244 273.642 179.506 258.381 179.506 239.621V156.278C179.506 137.518 164.244 122.257 145.484 122.257Z" fill="#132026"/>
<path d="M175.978 272.789C173.219 304.432 151.43 332.487 151.43 332.487C151.43 332.487 160.995 342.886 160.995 351.576V351.582C160.995 353.701 160.424 355.718 159.003 357.456C152.72 365.143 144.456 367.752 130.792 364.072C120.542 361.307 105.404 351.006 104.326 335.607C103.266 320.428 116.563 283.931 114.489 269.035C114.125 266.414 113.291 264.463 111.816 263.409C109.571 261.802 104.266 261.882 99.7405 262.326C96.7987 262.615 94.184 263.051 92.9574 263.27C92.4846 263.357 92.2209 263.409 92.2209 263.409C93.3322 265.395 94.3397 267.21 95.2146 269.035C98.7676 276.458 100.208 284.15 97.9619 304.905C96.091 322.197 77.9455 336.737 60.3881 327.749C53.9278 324.444 51.6403 318.438 51.2497 312.362C50.6328 302.988 54.5202 293.463 54.5202 293.463C54.5202 293.463 39.4045 277.632 31.6239 258.608C30.4088 255.637 29.3725 252.584 28.6014 249.504C26.7016 241.908 26.4076 234.129 29.0107 226.89C36.1744 206.995 56.1446 204.276 56.1446 204.276C56.1446 204.276 57.55 186.569 60.1416 167.164C61.9563 153.546 64.3562 139.086 67.2533 129.313L79.2715 126.866L145.148 113.448C147.273 117.565 149.247 122.321 151.079 127.522C151.903 129.836 152.692 132.244 153.458 134.72C154.915 139.453 156.274 144.446 157.53 149.576C166.058 184.225 170.186 225.191 171.13 235.469C171.28 237.048 171.35 237.899 171.35 237.899C171.35 237.899 172.622 240.191 173.884 244.7C175.499 250.481 177.101 259.902 175.978 272.789Z" fill="white"/>
<g opacity="0.35">
<path opacity="0.35" d="M160.996 351.583C160.996 353.702 160.425 355.719 159.004 357.457C152.721 365.144 144.457 367.753 130.793 364.073C120.543 361.308 105.405 351.007 104.326 335.609C103.267 320.429 116.564 283.932 114.49 269.036C114.126 266.415 113.292 264.464 111.817 263.41C108.109 260.755 96.0674 262.714 92.9583 263.272C90.3379 259.252 86.6696 252.157 86.7272 244.055C86.7272 244.055 87.3932 246.484 89.3073 247.771C92.4985 249.917 98.2957 251.265 103.95 250.296C114.811 248.443 123.172 249.041 129.414 256.383C136.416 264.624 108.222 318.546 112.139 334.773C115.781 349.828 143.628 372.182 160.996 351.583Z" fill="#132026"/>
</g>
<path d="M173.605 237.254C173.57 236.846 173.509 236.173 173.423 235.259C173.015 230.81 172.149 222.065 170.751 211.015C169.419 212.422 168.019 213.64 166.561 214.64C167.728 224.175 168.469 231.682 168.837 235.687C168.984 237.235 169.051 238.076 169.053 238.086C169.079 238.409 169.175 238.729 169.331 239.012C169.342 239.034 170.507 241.186 171.663 245.321C173.192 250.784 174.785 259.948 173.684 272.591C171.019 303.162 149.823 330.801 149.61 331.076C148.921 331.964 148.974 333.219 149.733 334.047C153.471 338.123 162.107 350.014 157.218 356C151.206 363.357 143.483 365.106 131.391 361.851C122.358 359.415 107.647 350.094 106.622 335.451C106.142 328.562 108.923 316.365 111.612 304.571C114.71 290.987 117.914 276.942 116.77 268.722C116.293 265.287 115.112 262.936 113.156 261.538C111.268 260.188 108.015 259.75 104.584 259.75C99.2209 259.75 93.4294 260.822 91.769 261.153C91.0468 261.298 90.4357 261.779 90.1272 262.448C89.8188 263.117 89.8491 263.894 90.2094 264.536C91.3654 266.605 92.3152 268.321 93.1368 270.032C96.5342 277.131 97.8588 284.436 95.6708 304.66C94.7411 313.255 89.2725 321.435 81.7399 325.499C75.2421 329.008 68.0309 329.077 61.4366 325.701C47.0906 318.359 56.5547 294.573 56.6513 294.335C56.9943 293.495 56.8112 292.531 56.1842 291.874C56.0358 291.718 41.2833 276.145 33.755 257.737C32.524 254.726 31.541 251.769 30.8347 248.945C28.8456 240.991 28.9595 233.834 31.1764 227.67C37.7606 209.384 55.6985 206.665 56.4538 206.56C57.5276 206.413 58.3535 205.539 58.44 204.46C58.4429 204.431 58.4832 203.916 58.5611 202.997C57.0995 202.123 55.6365 201.202 54.1764 200.251C54.1029 201.071 54.0424 201.776 53.9934 202.347C48.63 203.569 33.1669 208.545 26.8421 226.111C24.3111 233.149 24.1511 241.209 26.3665 250.064C27.1275 253.099 28.1797 256.267 29.4928 259.48C36.2817 276.083 48.3187 290.07 51.8644 293.984C49.8119 299.78 43.3603 321.622 59.3394 329.799C67.3246 333.887 76.058 333.8 83.9308 329.551C92.8932 324.714 99.1474 315.365 100.253 305.153C102.561 283.828 101.067 275.923 97.2938 268.039C96.8311 267.075 96.3381 266.123 95.8005 265.126C101.445 264.28 108.506 263.87 110.478 265.282C111.326 265.887 111.924 267.294 112.209 269.352C113.237 276.738 110.129 290.364 107.124 303.543C104.233 316.223 101.501 328.199 102.029 335.768C103.219 352.795 119.936 363.529 130.195 366.296C134.465 367.446 138.312 368.029 141.805 368.029C149.696 368.029 155.77 365.051 160.788 358.912C167.871 350.239 158.042 336.817 154.382 332.382C158.985 326.04 175.823 301.127 178.275 272.989C179.436 259.656 177.734 249.908 176.102 244.079C175.094 240.484 174.063 238.187 173.605 237.254Z" fill="#132026"/>
<path d="M149.745 300.359C137.326 300.359 122.771 295.686 112.39 284.116C111.726 283.375 111.788 282.236 112.527 281.572C113.268 280.907 114.408 280.969 115.071 281.709C127.177 295.201 145.406 298.576 158.105 295.931C165.217 294.45 170.298 291.053 171.696 286.844C172.009 285.9 173.025 285.388 173.973 285.703C174.917 286.015 175.429 287.036 175.115 287.98C173.281 293.503 167.349 297.686 158.84 299.458C156.025 300.046 152.955 300.359 149.745 300.359Z" fill="#132026"/>
<path d="M77.0168 220.072C69.2492 223.215 57.2296 222.558 49.0339 221.566C44.1188 220.971 40.6681 216.437 41.3931 211.539C42.0533 207.069 45.9883 203.819 50.5012 204.031C58.1664 204.39 69.6643 204.558 76.9447 202.942" fill="white"/>
<g opacity="0.35">
<path opacity="0.35" d="M77.0171 220.07C69.2481 223.219 57.227 222.555 49.0328 221.569C44.1177 220.974 40.667 216.435 41.3935 211.54C41.5376 210.541 41.8518 209.603 42.2972 208.747C43.5916 211.217 46.0419 213.039 49.0328 213.401C57.2126 214.394 69.2135 215.051 76.9825 211.922L77.0171 220.07Z" fill="#132026"/>
</g>
<path d="M61.5671 224.688C57.0628 224.688 52.5874 224.316 48.7547 223.852C45.7596 223.49 43.1016 221.968 41.2697 219.569C39.4362 217.165 38.668 214.193 39.1105 211.201C39.9494 205.532 44.9178 201.466 50.6055 201.729C61.8741 202.256 71.0528 201.889 76.4436 200.693C77.5967 200.441 80.4521 200.418 82.1039 205.729C83.7485 211.019 83.5438 219.914 77.8792 222.207C73.2913 224.064 67.4062 224.688 61.5671 224.688ZM50.0794 206.323C46.8709 206.323 44.1438 208.66 43.6696 211.874C43.4101 213.627 43.8598 215.366 44.9336 216.775C46.0046 218.177 47.5584 219.066 49.3097 219.278C60.9877 220.691 70.521 220.214 76.151 217.935C77.6183 217.341 78.1084 214.948 78.2525 213.947C78.8031 210.092 77.6846 206.356 76.9178 205.301C69.5077 206.826 58.4538 206.708 50.3921 206.329C50.2869 206.325 50.1817 206.323 50.0794 206.323Z" fill="#132026"/>
<path d="M136.426 220.072C144.193 223.215 156.213 222.558 164.409 221.566C169.324 220.971 172.774 216.437 172.049 211.539C171.389 207.069 167.454 203.819 162.941 204.031C155.276 204.39 143.778 204.558 136.498 202.942" fill="white"/>
<g opacity="0.35">
<path opacity="0.35" d="M164.406 221.569C156.212 222.555 144.191 223.22 136.422 220.07L136.456 211.849C144.225 214.977 156.226 214.319 164.406 213.328C167.384 212.972 169.821 211.164 171.122 208.707C171.58 209.568 171.901 210.521 172.053 211.54C172.771 216.435 169.321 220.974 164.406 221.569Z" fill="#132026"/>
</g>
<path d="M151.867 224.688C146.028 224.688 140.145 224.064 135.557 222.206C129.892 219.913 129.687 211.018 131.332 205.728C132.984 200.417 135.841 200.44 136.992 200.692C142.384 201.888 151.557 202.255 162.829 201.728C168.537 201.462 173.486 205.532 174.324 211.2C174.766 214.193 174 217.164 172.165 219.568C170.333 221.968 167.675 223.489 164.68 223.852C160.847 224.316 156.37 224.688 151.867 224.688ZM136.518 205.302C135.751 206.357 134.633 210.091 135.183 213.947C135.326 214.949 135.816 217.341 137.283 217.935C142.913 220.216 152.447 220.691 164.126 219.279C165.877 219.067 167.431 218.177 168.502 216.775C169.576 215.367 170.026 213.627 169.765 211.874C169.275 208.558 166.417 206.181 163.044 206.331C154.985 206.707 143.928 206.828 136.518 205.302Z" fill="#132026"/>
<g opacity="0.35">
<path opacity="0.35" d="M86.398 226.051C81.3114 226.051 70.3555 236.226 70.3555 231.134V203.684C70.3555 198.592 74.5239 194.429 79.6105 194.429H130.164C133.162 194.429 135.839 195.873 137.537 198.099C138.721 199.652 139.426 201.59 139.426 203.684V231.134C139.426 236.226 135.258 240.396 130.164 240.396H92.2211L88.4145 229.235" fill="#132026"/>
</g>
<path d="M139.426 197.28V224.73C139.426 229.822 135.258 233.992 130.164 233.992H79.6105C74.5239 233.992 70.3555 229.823 70.3555 224.73V197.28C70.3555 192.188 74.5239 188.025 79.6105 188.025H130.164C133.162 188.025 135.839 189.469 137.537 191.695C138.721 193.248 139.426 195.186 139.426 197.28Z" fill="white"/>
<g opacity="0.35">
<path opacity="0.35" d="M139.425 197.281V224.732C139.425 229.825 135.258 233.992 130.166 233.992H79.611C74.5186 233.992 70.3516 229.825 70.3516 224.732V214.465C77.9447 222.207 92.876 227.066 106.57 227.138C110.971 227.161 114.521 223.681 114.834 219.291C114.837 219.248 114.841 219.203 114.844 219.158C115.18 215.307 118.352 212.189 122.208 211.911C126.6 211.594 130.306 214.837 130.739 219.053C137.367 210.87 135.427 196.647 137.534 191.694C138.722 193.25 139.425 195.184 139.425 197.281Z" fill="#132026"/>
</g>
<path d="M130.163 236.296H79.6082C73.2344 236.296 68.0469 231.11 68.0469 224.735V197.281C68.0469 190.907 73.2329 185.719 79.6082 185.719H130.163C136.537 185.719 141.724 190.906 141.724 197.281V224.735C141.724 231.11 136.537 236.296 130.163 236.296ZM79.6082 190.328C75.7741 190.328 72.655 193.447 72.655 197.281V224.735C72.655 228.569 75.7741 231.688 79.6082 231.688H130.163C133.997 231.688 137.116 228.569 137.116 224.735V197.281C137.116 193.447 133.997 190.328 130.163 190.328H79.6082Z" fill="#132026"/>
<path d="M130.562 212.861C131.575 208.57 128.918 204.27 124.627 203.256C120.336 202.243 116.035 204.9 115.022 209.192C114.009 213.483 116.666 217.783 120.957 218.796C125.248 219.809 129.549 217.152 130.562 212.861Z" fill="#22A7F0"/>
<g opacity="0.7">
<path opacity="0.7" d="M130.78 211.008C130.78 211.555 130.728 212.084 130.624 212.603C129.888 208.952 126.662 206.205 122.799 206.205C118.929 206.205 115.705 208.952 114.968 212.603C114.864 212.084 114.812 211.555 114.812 211.008C114.812 206.597 118.389 203.027 122.799 203.027C127.204 203.025 130.78 206.596 130.78 211.008Z" fill="white"/>
</g>
<g opacity="0.35">
<path opacity="0.35" d="M130.777 211.006C130.777 215.415 127.204 218.988 122.795 218.988C118.386 218.988 114.812 215.415 114.812 211.006C114.812 209.985 115.004 209.014 115.36 208.117C116.51 211.095 119.406 213.204 122.795 213.204C126.184 213.204 129.079 211.095 130.229 208.117C130.585 209.014 130.777 209.985 130.777 211.006Z" fill="#132026"/>
</g>
<path d="M122.793 220.719C117.438 220.719 113.082 216.363 113.082 211.008C113.082 205.654 117.438 201.298 122.793 201.298C128.147 201.298 132.503 205.654 132.503 211.008C132.505 216.363 128.147 220.719 122.793 220.719ZM122.793 204.753C119.343 204.753 116.537 207.559 116.537 211.008C116.537 214.458 119.343 217.264 122.793 217.264C126.242 217.264 129.048 214.458 129.048 211.008C129.048 207.559 126.242 204.753 122.793 204.753Z" fill="#132026"/>
<path d="M100.175 235.72C99.2212 235.72 98.4472 234.946 98.4472 233.992V216.96C98.4472 215.908 97.9442 214.901 97.1024 214.266L91.0573 209.714C89.3536 208.432 88.3359 206.394 88.3359 204.26V188.025C88.3359 187.07 89.11 186.298 90.0641 186.298C91.0183 186.298 91.7924 187.072 91.7924 188.025V204.263C91.7924 205.315 92.294 206.323 93.1357 206.957L99.1809 211.509C100.885 212.792 101.902 214.831 101.902 216.963V233.994C101.904 234.947 101.13 235.72 100.175 235.72Z" fill="#132026"/>
<path d="M99.7526 247.381C91.0985 213.195 76.6199 204.028 56.148 204.276C56.148 204.276 36.1763 206.995 29.017 226.888C26.4124 234.125 26.7036 241.906 28.6062 249.503C28.6062 249.503 29.5834 236.212 62.0144 235.225C86.6259 234.478 99.7526 247.381 99.7526 247.381Z" fill="white"/>
<path d="M99.0056 247.571C96.8839 242.348 94.9899 237.121 92.6116 232.168C90.255 227.223 87.5524 222.502 84.1969 218.42C80.8284 214.381 76.7464 210.948 71.8299 209.11C66.971 207.169 61.5874 206.533 56.1722 206.579L56.4547 206.559C56.0036 206.628 55.3895 206.762 54.8433 206.888C54.2826 207.04 53.7161 207.164 53.1583 207.347C52.0369 207.682 50.9285 208.077 49.8417 208.522C47.6551 209.39 45.5838 210.523 43.6322 211.806C39.7549 214.407 36.3706 217.746 34.0038 221.763L33.1621 223.293C32.8925 223.809 32.5639 224.295 32.3664 224.849C31.9326 225.931 31.4266 226.998 31.0404 228.089C30.2894 230.273 29.8065 232.553 29.586 234.876C29.1219 239.525 29.6826 244.3 30.8357 248.946L30.8386 248.954C31.1456 250.19 30.3932 251.438 29.1579 251.745C27.9227 252.052 26.6744 251.299 26.3674 250.064C25.1177 245.029 24.4749 239.738 25.001 234.425C25.2532 231.774 25.8082 229.135 26.6816 226.594C27.127 225.332 27.6877 224.132 28.1907 222.901C28.4214 222.277 28.7875 221.714 29.0974 221.124L30.0645 219.374C32.783 214.768 36.6819 210.909 41.0882 207.963C43.305 206.506 45.6444 205.233 48.1019 204.256C49.3257 203.756 50.5724 203.31 51.8452 202.931C52.4751 202.726 53.1294 202.578 53.7737 202.405C54.4454 202.254 55.0508 202.112 55.8349 201.993L55.9603 201.974L56.1174 201.973C61.9175 201.905 67.8978 202.631 73.535 204.782C79.1924 206.878 84.1983 210.694 87.9618 215.288C91.7814 219.877 94.4235 225.179 96.4529 230.561L97.8208 234.65C98.2258 236.025 98.5645 237.416 98.9162 238.8L99.4221 240.878L99.8084 242.981C100.064 244.382 100.29 245.788 100.495 247.191C100.557 247.614 100.264 248.004 99.843 248.066C99.4841 248.118 99.1468 247.915 99.0171 247.594L99.0056 247.571Z" fill="#132026"/>
<path d="M187.465 217.047C182.489 235.612 159.675 237.155 158.131 246.605C156.91 254.092 156.116 265.51 145.445 267.254C137.228 268.602 122.503 269.102 118.11 256.549C117.568 255.023 117.189 253.302 116.987 251.36C115.316 235.145 121.801 220.31 129.794 210.643C144.542 192.814 160.449 183.996 156.688 167.463L136.036 134.717H156.76C173.633 154.243 183.135 172.354 187.009 188.023C189.722 199.018 189.676 208.806 187.465 217.047Z" fill="white"/>
<g opacity="0.35">
<path opacity="0.35" d="M187.46 217.048C182.485 235.612 159.67 237.156 158.127 246.606C156.906 254.092 156.112 265.511 145.441 267.255C137.224 268.603 122.499 269.103 118.105 256.55C124.141 259.101 133.819 262.991 141.773 261.249C155.675 258.203 147.299 248.052 151.137 245.523C155.541 242.623 151.338 240.248 149.811 236.291C148.844 233.775 152.818 237.858 155.328 236.355C157.435 235.088 153.105 231.402 154.832 228.391C156.502 225.484 157.314 237.973 174.323 225.484C186.163 216.794 187.747 200.307 187.003 188.025C189.717 199.019 189.671 208.807 187.46 217.048Z" fill="#132026"/>
</g>
<path d="M160.978 166.169C161.614 167.677 162.006 169.31 162.158 170.998C162.302 172.689 162.129 174.408 161.776 176.082C161.019 179.436 159.374 182.461 157.462 185.099C153.622 190.42 148.924 194.638 144.42 198.868C139.898 203.081 135.512 207.344 131.655 212.005C127.866 216.58 124.846 221.812 122.668 227.348C121.567 230.116 120.734 232.981 120.124 235.886C119.527 238.79 119.117 241.741 119.057 244.701C119.003 245.441 119.043 246.18 119.046 246.919C119.052 247.659 119.055 248.4 119.127 249.135C119.186 249.867 119.22 250.621 119.298 251.336C119.39 252.036 119.475 252.74 119.631 253.417C120.175 256.154 121.315 258.658 123.093 260.578C124.858 262.512 127.262 263.846 129.934 264.621C132.609 265.402 135.518 265.666 138.441 265.611C139.906 265.581 141.379 265.471 142.849 265.296C143.584 265.212 144.319 265.101 145.051 264.986L146.003 264.761C146.315 264.682 146.65 264.643 146.932 264.503L147.816 264.163C148.121 264.069 148.361 263.866 148.639 263.729C149.207 263.466 149.656 263.033 150.157 262.671C151.056 261.813 151.868 260.824 152.497 259.64C153.764 257.273 154.495 254.445 155.011 251.499C155.281 250.026 155.493 248.514 155.739 246.955L155.83 246.372L155.853 246.225L155.896 246.03L155.986 245.641C156.088 245.113 156.287 244.628 156.484 244.142C156.69 243.665 156.951 243.225 157.211 242.797C157.496 242.404 157.769 241.974 158.087 241.637C159.324 240.2 160.705 239.149 162.067 238.212C163.435 237.281 164.808 236.469 166.163 235.681C168.876 234.113 171.515 232.625 173.971 230.95C176.416 229.276 178.671 227.421 180.525 225.267C182.39 223.124 183.806 220.675 184.745 218.028L185.057 217.02C185.163 216.687 185.266 216.349 185.335 215.98L185.812 213.825L186.05 212.747L186.195 211.649L186.489 209.452L186.563 208.903L186.59 208.348L186.647 207.237L186.763 205.016C186.75 203.528 186.691 202.039 186.66 200.55C186.286 194.589 184.99 188.665 183.115 182.927C181.223 177.19 178.816 171.6 175.964 166.223C175.274 164.868 174.474 163.568 173.733 162.237L172.603 160.251C172.223 159.592 171.793 158.958 171.391 158.311L168.939 154.445C168.084 153.179 167.192 151.937 166.322 150.682C164.619 148.143 162.687 145.762 160.843 143.32C159.933 142.09 158.896 140.955 157.908 139.786L154.9 136.313L156.752 137.16C153.299 137.226 149.845 137.167 146.392 136.974C144.665 136.867 142.938 136.72 141.211 136.473C139.485 136.236 137.758 135.948 136.031 135.479C135.607 135.364 135.357 134.927 135.472 134.504C135.548 134.221 135.769 134.016 136.031 133.944C137.758 133.476 139.485 133.186 141.211 132.951C142.938 132.705 144.665 132.556 146.392 132.45C149.845 132.256 153.299 132.197 156.752 132.264L156.892 132.267C157.583 132.28 158.202 132.612 158.605 133.111L161.539 136.79L163.014 138.62C163.52 139.218 163.998 139.84 164.467 140.471C166.355 142.979 168.334 145.415 170.087 148.027C170.983 149.318 171.898 150.594 172.778 151.897L175.307 155.882C175.722 156.551 176.163 157.202 176.558 157.884L177.729 159.938C178.496 161.316 179.32 162.659 180.038 164.066C182.994 169.643 185.512 175.475 187.501 181.51C189.472 187.546 190.855 193.834 191.259 200.258C191.299 201.868 191.36 203.476 191.371 205.088L191.247 207.509L191.184 208.72L191.152 209.325L191.073 209.928L190.752 212.339L190.589 213.546L190.331 214.739L189.802 217.123C189.725 217.518 189.606 217.922 189.477 218.328L189.101 219.54C188.516 221.132 187.837 222.697 186.969 224.159C186.097 225.612 185.133 227.017 184.019 228.274C181.822 230.825 179.238 232.927 176.576 234.751C173.906 236.57 171.137 238.126 168.485 239.661C167.162 240.43 165.866 241.2 164.671 242.014C163.482 242.826 162.391 243.695 161.607 244.613C161.386 244.838 161.26 245.077 161.081 245.304C160.945 245.539 160.803 245.766 160.705 246C160.617 246.233 160.507 246.463 160.473 246.702L160.428 246.878L160.403 246.966L160.382 247.105L160.294 247.67C160.056 249.174 159.837 250.732 159.55 252.309C158.988 255.448 158.208 258.724 156.548 261.841C155.716 263.397 154.573 264.855 153.215 266.117C152.48 266.688 151.772 267.305 150.935 267.723C150.524 267.936 150.136 268.214 149.703 268.364L148.417 268.862C147.99 269.049 147.549 269.118 147.112 269.229L145.799 269.527C145.002 269.653 144.204 269.774 143.398 269.866C141.791 270.058 140.169 270.18 138.535 270.214C135.27 270.271 131.929 269.993 128.643 269.037C125.378 268.096 122.133 266.355 119.706 263.691C117.257 261.049 115.783 257.674 115.125 254.348C114.937 253.512 114.831 252.678 114.723 251.842C114.632 251.017 114.596 250.22 114.532 249.409C114.455 248.602 114.449 247.791 114.442 246.98C114.439 246.17 114.399 245.36 114.457 244.551C114.523 241.311 114.968 238.092 115.62 234.932C116.283 231.772 117.191 228.663 118.38 225.668C120.738 219.673 123.993 214.036 128.114 209.056C130.145 206.614 132.285 204.284 134.46 202.012C136.642 199.748 138.876 197.555 141.089 195.374C145.489 191.004 150.018 186.833 153.688 182.259C154.603 181.113 155.426 179.93 156.174 178.719C156.921 177.507 157.604 176.27 158.087 174.96C158.612 173.664 158.999 172.311 159.229 170.9C159.448 169.486 159.498 168.024 159.487 166.499V166.468C159.484 166.037 159.83 165.686 160.261 165.682C160.581 165.689 160.86 165.887 160.978 166.169Z" fill="#132026"/>
<path d="M178.232 232.47C178.048 232.47 177.861 232.442 177.676 232.381C176.729 232.074 176.212 231.058 176.519 230.111C179.249 221.698 178.754 214.462 175.05 208.604C167.326 196.388 148.088 193.759 147.894 193.733C146.907 193.605 146.212 192.701 146.339 191.716C146.467 190.728 147.367 190.035 148.356 190.159C149.212 190.27 169.444 193.016 178.087 206.664C182.4 213.473 183.025 221.735 179.946 231.222C179.698 231.986 178.992 232.47 178.232 232.47Z" fill="#132026"/>
<path d="M89.6877 260.327C88.9483 260.327 88.2564 259.869 87.9926 259.134C87.9508 259.019 83.4292 247.07 67.8797 241.271C60.5013 238.519 51.1885 239.635 43.5737 244.184C37.6266 247.737 33.8026 252.78 33.0834 258.02C32.9479 259.006 32.0427 259.693 31.0525 259.559C30.0666 259.424 29.3776 258.514 29.5131 257.528C30.3837 251.199 34.8332 245.209 41.7259 241.091C50.2545 235.993 60.7578 234.769 69.1394 237.894C86.3264 244.304 91.1853 257.364 91.3842 257.916C91.72 258.853 91.2343 259.885 90.2974 260.221C90.0942 260.293 89.8895 260.327 89.6877 260.327Z" fill="#132026"/>
<path d="M92.2163 263.407C92.2163 263.407 84.7586 251.049 86.7247 244.054L92.2163 263.407Z" fill="white"/>
<path d="M90.2486 264.597C89.1805 263.067 88.3575 261.542 87.5676 259.925C86.8008 258.314 86.1421 256.64 85.6045 254.903C85.3306 254.041 85.1231 253.139 84.904 252.251C84.7555 251.329 84.5595 250.426 84.5436 249.463C84.4571 247.585 84.6186 245.541 85.6203 243.741C85.9374 243.172 86.6567 242.967 87.226 243.284C87.5849 243.485 87.7983 243.844 87.8285 244.224L87.8386 244.365C87.9467 245.893 88.284 247.343 88.6948 248.832C89.1056 250.312 89.5899 251.826 90.1938 253.318C90.7733 254.815 91.4219 256.31 92.1166 257.793C92.7869 259.272 93.5277 260.794 94.1951 262.215L94.2326 262.295C94.7731 263.449 94.2758 264.823 93.1213 265.363C92.0878 265.848 90.8799 265.5 90.2486 264.597Z" fill="#132026"/>
<g opacity="0.35">
<path opacity="0.35" d="M95.2149 269.035C98.7679 276.458 100.208 284.151 97.9621 304.905C96.0912 322.197 77.9457 336.738 60.3883 327.75C53.9281 324.444 51.6406 318.438 51.25 312.363C59.1502 321.57 74.0886 327.738 85.2305 317.05C98.3369 304.48 97.5874 282.914 94.4668 275.733C91.0695 267.908 86.7281 257.507 73.6216 249.503C69.2802 246.854 78.4589 247.275 78.7414 244.648C79.0181 242.028 73.3117 237.162 73.7427 234.974C74.1809 232.792 80.2375 237.473 81.5449 236.787C82.858 236.102 83.2327 230.171 84.7923 230.608C86.336 231.04 86.3965 235.46 87.1014 242.387C87.8206 249.458 87.8509 251.609 87.8509 251.609C87.8509 251.609 94.1857 263.05 92.9591 263.27C92.4864 263.356 92.2226 263.408 92.2226 263.408C93.3324 265.396 94.34 267.21 95.2149 269.035Z" fill="#132026"/>
<path opacity="0.35" d="M28.6094 230.101C30.6215 237.363 39.1732 241.853 53.0695 241.853C64.5516 241.853 72.1332 236.797 72.6535 228.163C72.9865 222.636 70.9167 221.538 61.9758 221.318C53.0349 221.097 36.4721 222.288 33.2708 225.483C30.0695 228.679 28.6094 230.101 28.6094 230.101Z" fill="#132026"/>
</g>
<path d="M51.3787 196.824C51.3398 194.991 51.6094 193.196 51.9582 191.533C52.3099 189.862 52.7163 188.3 53.068 186.735C53.4212 185.172 53.7253 183.613 53.9703 182.024C54.2082 180.437 54.3768 178.827 54.5613 177.196L54.5627 177.177C54.6175 176.687 55.06 176.335 55.5501 176.39C55.9508 176.435 56.2592 176.74 56.3284 177.118C56.6297 178.783 56.8171 180.475 56.8819 182.181C56.9396 183.888 56.8834 185.609 56.7234 187.305C56.5706 189.001 56.3083 190.67 56.092 192.248C55.8758 193.832 55.7274 195.324 55.7043 196.791V196.81C55.6856 198.003 54.7026 198.956 53.5077 198.937C52.3401 198.923 51.4032 197.98 51.3787 196.824Z" fill="#132026"/>
<path d="M46.1253 196.808C55.8329 193.603 56.3288 200.262 71.9129 190.156C87.4971 180.051 110.177 182.252 119.258 191.252C125.006 196.941 122.435 208.025 116.75 213.58C115.739 214.569 114.631 215.379 113.456 215.958C104.211 220.49 98.1734 217.515 93.1747 218.157C89.8567 218.586 86.6481 222.38 80.345 228.72C71.8106 237.302 16.1821 250.05 14.5072 200.213C13.899 182.119 28.0331 159.565 44.0641 144.893" fill="white"/>
<g opacity="0.35">
<path opacity="0.35" d="M62.915 230.862C70.6552 229.427 75.6928 225.931 78.6419 221.294C80.8256 217.86 84.4362 207.815 87.2037 207.815C88.4793 207.815 85.7565 213.946 88.6234 213.946C90.3142 213.946 89.9019 209.787 92.0856 209.076C93.4463 208.633 91.7944 210.882 94.4653 213.553C95.9961 215.084 106.192 218.717 116.75 213.58C115.74 214.569 114.632 215.379 113.457 215.958C104.212 220.49 98.174 217.515 93.1753 218.157C89.8572 218.586 86.6487 222.38 80.3456 228.72C71.8112 237.302 16.1827 250.05 14.5078 200.213C21.6484 227.65 38.8469 235.328 62.915 230.862Z" fill="#132026"/>
</g>
<path d="M45.7759 195.751L46.3366 195.496L46.6191 195.369C46.7128 195.327 46.8108 195.294 46.9073 195.255L47.4882 195.032C47.6843 194.961 47.8846 194.9 48.0835 194.836C48.8835 194.586 49.7123 194.377 50.5598 194.259C51.4044 194.132 52.2592 194.075 53.0808 194.059C53.9052 194.04 54.6937 194.059 55.4317 194.054C56.9119 194.051 58.2092 193.943 59.5208 193.612C60.1752 193.45 60.8282 193.259 61.484 193.019C61.6483 192.96 61.8126 192.907 61.9769 192.844L62.4699 192.65C62.8 192.531 63.1272 192.375 63.4558 192.238C64.7718 191.666 66.0906 191.003 67.3908 190.278C68.0437 189.922 68.6866 189.531 69.3308 189.149L71.294 187.913C74.0859 186.174 77.0797 184.796 80.1714 183.763C83.2632 182.724 86.453 182.026 89.673 181.635C92.8945 181.243 96.1491 181.166 99.3879 181.4C102.627 181.638 105.854 182.189 109.002 183.13C112.144 184.079 115.229 185.406 118.031 187.365C118.728 187.856 119.407 188.388 120.056 188.966C120.219 189.11 120.38 189.256 120.536 189.409L120.772 189.635C120.85 189.71 120.936 189.801 121.017 189.883C121.344 190.223 121.656 190.581 121.941 190.958C123.094 192.462 123.861 194.213 124.276 195.98C124.694 197.751 124.785 199.543 124.652 201.281C124.518 203.023 124.161 204.716 123.632 206.346C123.101 207.975 122.395 209.542 121.516 211.021C120.637 212.498 119.583 213.892 118.32 215.133C117.689 215.754 117 216.335 116.255 216.857C115.883 217.118 115.494 217.363 115.092 217.589C114.891 217.703 114.687 217.811 114.475 217.916L113.903 218.187C112.392 218.901 110.802 219.483 109.16 219.917C108.337 220.127 107.504 220.302 106.664 220.433C105.824 220.563 104.976 220.646 104.133 220.692C102.446 220.786 100.773 220.707 99.1861 220.571C97.5991 220.44 96.0857 220.261 94.7394 220.266C94.5694 220.264 94.4094 220.274 94.2436 220.276C94.0836 220.286 93.9236 220.293 93.768 220.308C93.4206 220.341 93.2548 220.367 93.017 220.433C92.563 220.555 92.0484 220.813 91.518 221.151C90.9861 221.497 90.4413 221.915 89.8993 222.379C89.3559 222.84 88.8139 223.34 88.2734 223.856C87.1924 224.891 86.1157 225.989 85.0318 227.092L83.4016 228.754L82.5814 229.586L82.1692 230.002L81.9631 230.21L81.8478 230.325L81.7137 230.455C81.3563 230.795 80.9945 231.092 80.6327 231.366C80.2709 231.64 79.9062 231.89 79.5401 232.124C78.8093 232.594 78.0714 233.003 77.329 233.384C75.843 234.138 74.3353 234.766 72.8103 235.322C71.2868 235.877 69.746 236.356 68.1936 236.772C65.0874 237.607 61.9308 238.201 58.7439 238.57C55.557 238.937 52.337 239.071 49.1112 238.934C45.8883 238.795 42.6567 238.377 39.4843 237.603C36.3147 236.827 33.2013 235.681 30.2883 234.097C27.3767 232.517 24.6828 230.481 22.3852 228.062C20.0833 225.646 18.1922 222.859 16.7422 219.892C15.285 216.926 14.2616 213.79 13.5654 210.619C12.8649 207.445 12.5017 204.23 12.3575 201.029C12.3186 200.241 12.3013 199.396 12.3114 198.577C12.3273 197.754 12.3575 196.934 12.4253 196.118C12.5464 194.485 12.7741 192.87 13.0696 191.275C13.6692 188.087 14.5686 184.985 15.6698 181.98C16.7696 178.972 18.0784 176.059 19.527 173.229C20.977 170.4 22.5783 167.658 24.2936 164.996C26.0088 162.334 27.8423 159.754 29.7795 157.256C33.6539 152.26 37.929 147.58 42.6005 143.299C43.4812 142.492 44.8491 142.552 45.6548 143.432C46.462 144.312 46.4014 145.68 45.5222 146.486L45.5193 146.489C41.0481 150.591 36.9287 155.103 33.2042 159.91C31.3419 162.314 29.5806 164.794 27.9388 167.347C26.2971 169.9 24.7678 172.52 23.3913 175.211C22.0162 177.902 20.7795 180.658 19.7518 183.476C18.7198 186.291 17.891 189.17 17.3462 192.077C17.0766 193.531 16.8719 194.991 16.7653 196.451C16.7047 197.181 16.6788 197.91 16.6658 198.638C16.6586 199.37 16.6716 200.076 16.7091 200.836C16.846 203.828 17.1862 206.8 17.8247 209.683C18.4589 212.566 19.3799 215.367 20.6613 217.97C21.9369 220.573 23.5715 222.974 25.5505 225.05C27.5266 227.127 29.8386 228.878 32.3783 230.255C34.918 231.634 37.671 232.653 40.5235 233.348C43.3774 234.042 46.3265 234.427 49.2971 234.554C52.2693 234.678 55.2645 234.554 58.238 234.21C61.2101 233.865 64.165 233.306 67.0492 232.53C68.4905 232.141 69.9146 231.699 71.3041 231.191C72.6936 230.685 74.0514 230.115 75.3299 229.465C75.9669 229.139 76.5867 228.793 77.159 228.424C77.7326 228.058 78.2631 227.66 78.6739 227.271L78.7488 227.199L78.8396 227.109L79.0428 226.905L79.4493 226.494L80.2608 225.669L81.8867 224.01C82.9764 222.901 84.0689 221.784 85.2278 220.674C85.8087 220.119 86.4068 219.567 87.0439 219.023C87.681 218.48 88.3642 217.947 89.1325 217.446C89.5217 217.199 89.9339 216.961 90.3778 216.743C90.8218 216.527 91.309 216.337 91.8264 216.191C91.9547 216.152 92.0873 216.12 92.2214 216.092C92.354 216.061 92.488 216.032 92.6278 216.012C92.9219 215.96 93.1265 215.947 93.3644 215.92C93.595 215.898 93.8213 215.887 94.049 215.874C94.271 215.868 94.4987 215.857 94.7164 215.859C96.4734 215.859 98.046 216.06 99.5479 216.178C101.048 216.305 102.483 216.367 103.892 216.288C104.597 216.249 105.295 216.179 105.987 216.073C106.678 215.963 107.363 215.819 108.042 215.646C109.398 215.286 110.733 214.8 112.026 214.187L112.504 213.961C112.64 213.893 112.778 213.821 112.914 213.742C113.186 213.588 113.456 213.419 113.718 213.235C114.243 212.866 114.744 212.446 115.219 211.979C116.168 211.045 117.004 209.948 117.709 208.761C118.414 207.573 118.991 206.295 119.419 204.976C119.847 203.657 120.129 202.295 120.233 200.943C120.337 199.592 120.258 198.249 119.962 197C119.667 195.752 119.152 194.605 118.414 193.645C118.232 193.403 118.032 193.177 117.823 192.957C117.768 192.903 117.722 192.851 117.66 192.792L117.476 192.616C117.356 192.498 117.229 192.384 117.101 192.27C116.592 191.816 116.049 191.389 115.479 190.989C113.192 189.386 110.512 188.214 107.725 187.376C104.93 186.54 102.007 186.04 99.0621 185.826C96.116 185.614 93.141 185.686 90.2063 186.045C87.2717 186.402 84.3716 187.039 81.584 187.979C78.7949 188.911 76.1197 190.151 73.6463 191.69L71.6803 192.943C70.9956 193.36 70.3225 193.789 69.622 194.19C68.2296 195.001 66.7969 195.78 65.2662 196.437C63.734 197.086 62.1052 197.638 60.3655 197.916C59.5007 198.064 58.6099 198.132 57.735 198.136C56.8586 198.139 56.001 198.074 55.1938 197.978C54.3852 197.883 53.6285 197.766 52.9035 197.674C52.1785 197.583 51.4794 197.517 50.776 197.495L50.2485 197.486L49.7195 197.498C49.5422 197.498 49.3649 197.515 49.1862 197.524L48.9181 197.538L48.65 197.566C47.9322 197.623 47.2072 197.747 46.4692 197.864L46.4086 197.874C45.7975 197.971 45.2253 197.554 45.1287 196.943C45.0537 196.437 45.329 195.954 45.7759 195.751Z" fill="#132026"/>
<path d="M179.38 90.7499C178.497 90.9575 177.612 90.4083 177.404 89.5248L166.602 43.4122C166.395 42.5287 166.944 41.6437 167.828 41.4361C177.103 39.264 186.384 45.0208 188.556 54.2961L192.24 70.0201C194.414 79.2968 188.656 88.5778 179.38 90.7499Z" fill="white"/>
<path d="M179.004 91.2071C178.07 91.2071 177.223 90.5657 177.001 89.6187L166.199 43.5062C165.94 42.4021 166.629 41.2922 167.733 41.0328C177.214 38.8131 186.737 44.7184 188.959 54.2012L192.643 69.9252C194.864 79.408 188.957 88.9298 179.474 91.1509C179.317 91.1898 179.159 91.2071 179.004 91.2071ZM171.761 41.3946C170.493 41.3946 169.207 41.5387 167.92 41.84C167.26 41.9942 166.848 42.6587 167.002 43.3188L177.804 89.4314C177.958 90.0915 178.62 90.5037 179.283 90.3481C188.321 88.2307 193.951 79.1558 191.834 70.1169L188.15 54.3929C186.337 46.6398 179.401 41.3946 171.761 41.3946Z" fill="#132026"/>
<g opacity="0.35">
<path opacity="0.35" d="M190.518 62.6475L192.247 70.0215C194.418 79.2939 188.661 88.5764 179.384 90.7529C178.501 90.9604 177.616 90.4069 177.407 89.5234L174.531 77.2659C174.91 77.7661 175.56 78.0212 176.21 77.8742L177.303 77.6147C184.634 75.9009 189.769 69.7405 190.518 62.6475Z" fill="#132026"/>
</g>
<path d="M179.002 93.0964C177.211 93.0964 175.584 91.8669 175.157 90.0507L164.354 43.9368C163.858 41.8179 165.179 39.689 167.298 39.1932C177.789 36.7357 188.334 43.2737 190.795 53.7713L194.479 69.4953C196.938 79.9928 190.397 90.5336 179.901 92.9926C179.6 93.0632 179.298 93.0964 179.002 93.0964ZM168.996 43.5433L179.49 88.3442C187.14 86.1965 191.824 78.3568 189.995 70.5475L186.311 54.8235C184.48 47.0141 176.801 42.0687 168.996 43.5433Z" fill="#132026"/>
<path d="M15.6234 77.0929C16.507 76.8854 17.392 77.4345 17.5996 78.3181L28.4012 124.431C28.6088 125.314 28.0596 126.199 27.1761 126.407C17.9008 128.579 8.61979 122.822 6.44763 113.547L2.76347 97.8228C0.589878 88.5461 6.34818 79.2665 15.6234 77.0929Z" fill="white"/>
<path d="M23.2394 127.277C15.2225 127.277 7.94786 121.774 6.04236 113.64L2.3582 97.916C0.137039 88.4331 6.0438 78.9114 15.5266 76.6902C16.0599 76.5648 16.6134 76.6556 17.0804 76.9454C17.5474 77.2351 17.8732 77.6891 17.9986 78.2253L28.8017 124.338C29.0611 125.442 28.3722 126.552 27.2681 126.811C25.9204 127.125 24.5698 127.277 23.2394 127.277ZM16.0008 77.4628C15.9071 77.4628 15.812 77.4743 15.7183 77.496C6.67945 79.6133 1.04943 88.6897 3.16682 97.7271L6.85097 113.451C8.96692 122.489 18.0389 128.119 27.0836 126.003C27.7437 125.848 28.156 125.184 28.0017 124.524L17.1986 78.4112C17.1237 78.0913 16.9276 77.8203 16.6495 77.6459C16.4491 77.5248 16.2271 77.4628 16.0008 77.4628Z" fill="#132026"/>
<g opacity="0.35">
<path opacity="0.35" d="M25.4107 111.637L28.4059 124.429C28.6134 125.313 28.0599 126.198 27.1764 126.407C22.3074 127.546 17.4327 126.502 13.5885 123.908C10.1162 121.564 7.48282 117.952 6.4508 113.548L4.89844 106.922C8.89249 112.119 15.7088 114.794 22.5092 113.202L24.1913 112.808C24.8067 112.662 25.2492 112.201 25.4107 111.637Z" fill="#132026"/>
</g>
<path d="M23.2394 129.165C14.3649 129.165 6.31189 123.074 4.20171 114.07L0.517551 98.3456C-1.94144 87.848 4.59953 77.3072 15.0956 74.8482C16.119 74.6075 17.1799 74.7805 18.0778 75.3369C18.9744 75.8932 19.5999 76.7638 19.8407 77.7915L30.6438 123.903C31.1396 126.021 29.8193 128.15 27.7005 128.646C26.2072 128.998 24.7111 129.165 23.2394 129.165ZM15.5093 79.4981C7.85992 81.6458 3.17545 89.4854 5.00456 97.2948L8.68872 113.019C10.5178 120.827 18.1917 125.769 26.004 124.298L15.5093 79.4981Z" fill="#132026"/>
<g opacity="0.35">
<path opacity="0.35" d="M166.909 136.811C165.751 138.774 164.507 140.681 163.177 142.535C161.433 144.982 159.543 147.337 157.528 149.577C155.725 151.592 153.819 153.516 151.816 155.341C140.605 165.55 126.393 172.726 110.297 175.311C92.4455 178.174 75.0207 174.948 60.1414 167.163C47.9271 160.771 41.3602 155.138 33.7656 143.448C39.08 135.754 44.0412 126.867 54.0444 126.867H79.2713L145.148 113.449C147.273 117.566 149.247 122.322 151.079 127.523C157.31 128.863 162.821 132.193 166.909 136.811Z" fill="#132026"/>
</g>
<path d="M97.5063 164.625C142.079 164.625 178.212 128.492 178.212 83.9197C178.212 39.3472 142.079 3.21411 97.5063 3.21411C52.9339 3.21411 16.8008 39.3472 16.8008 83.9197C16.8008 128.492 52.9339 164.625 97.5063 164.625Z" fill="white"/>
<path d="M97.4589 165.047C58.3413 165.047 23.8031 136.605 17.4105 96.7728C13.9772 75.3785 19.0811 53.9279 31.7811 36.3719C44.481 18.8159 63.2579 7.25755 84.6522 3.82419C106.047 0.389385 127.497 5.49474 145.052 18.1947C162.608 30.8947 174.166 49.6715 177.601 71.0659C184.688 115.23 154.523 156.927 110.359 164.014C106.026 164.709 101.712 165.047 97.4589 165.047ZM97.6765 3.60942C93.3985 3.60942 89.0888 3.95103 84.7834 4.64289C63.6067 8.04021 45.0216 19.4819 32.4513 36.8577C19.8796 54.2335 14.829 75.4664 18.2278 96.6417C25.243 140.354 66.5096 170.212 110.228 163.197C153.942 156.182 183.797 114.911 176.784 71.197C173.386 50.0218 161.945 31.4366 144.567 18.865C130.724 8.85171 114.434 3.60942 97.6765 3.60942Z" fill="#132026"/>
<g opacity="0.35">
<path opacity="0.35" d="M174.663 60.2234C175.748 63.7447 176.596 67.3856 177.198 71.1317C184.255 115.141 154.305 156.542 110.298 163.608C66.2884 170.665 24.8878 140.714 17.8221 96.7075C17.6189 95.442 17.4445 94.1707 17.3047 92.9138C28.902 130.842 66.9789 155.366 107.245 148.906C149.986 142.043 179.461 102.796 174.663 60.2234Z" fill="#132026"/>
</g>
<path d="M97.4643 166.936C57.4359 166.936 22.0933 137.832 15.5523 97.0723C12.0382 75.1807 17.2618 53.2299 30.2573 35.2646C43.2527 17.3007 62.4663 5.47135 84.3593 1.95872C106.252 -1.55536 128.2 3.66675 146.167 16.6636C164.131 29.6605 175.96 48.8741 179.473 70.7657C186.725 115.959 155.857 158.626 110.666 165.879C106.232 166.591 101.817 166.936 97.4643 166.936ZM97.6791 5.49874C93.502 5.49874 89.2946 5.8317 85.0901 6.5077C64.4107 9.82575 46.2637 20.9979 33.989 37.9643C21.7142 54.9308 16.7818 75.6635 20.0999 96.3415C26.9493 139.026 67.2516 168.18 109.935 161.33C152.62 154.481 181.775 114.181 174.925 71.4951C171.607 50.8171 160.435 32.6701 143.467 20.3954C129.95 10.6185 114.043 5.49874 97.6791 5.49874Z" fill="#132026"/>
<path d="M177.269 73.2192C180.007 88.7731 177.5 104.102 170.968 117.569C166.07 127.666 142.218 148.025 109.409 154.105C78.9876 159.742 48.4059 148.375 40.3558 140.557C29.6176 130.129 22.0273 116.579 19.2901 101.025C12.0458 59.8649 44.4047 36.578 88.0323 28.8983C131.658 21.2201 170.025 32.0593 177.269 73.2192Z" fill="url(#paint0_radial)"/>
<path d="M92.3103 157.941C67.4292 157.941 45.6457 148.905 38.7516 142.21C27.2696 131.06 19.7557 116.956 17.0214 101.424C13.454 81.1592 18.8317 64.1048 33.0019 50.7303C45.3459 39.0811 64.2366 30.7471 87.6316 26.6291C111.027 22.511 131.627 23.8948 147.207 30.6289C165.093 38.3604 175.971 52.5551 179.537 72.818C182.271 88.3502 180.024 104.171 173.039 118.573C168.192 128.566 144.674 149.911 109.827 156.369C103.921 157.464 98.034 157.941 92.3103 157.941ZM112.755 28.9122C105.13 28.9122 96.9846 29.6617 88.4301 31.1665C65.9244 35.1274 47.851 43.0521 36.1643 54.0815C23.1919 66.3246 18.2768 81.9837 21.5574 100.625C24.123 115.197 31.1771 128.433 41.9601 138.905C49.6123 146.335 79.3753 157.326 108.988 151.84C141.81 145.759 164.542 125.536 168.894 116.564C175.453 103.039 177.565 88.1888 174.999 73.6179C171.719 54.9766 161.753 41.9365 145.379 34.8579C136.236 30.9056 125.191 28.9122 112.755 28.9122Z" fill="#132026"/>
<g opacity="0.5">
<path opacity="0.5" d="M160.961 72.1967C161.001 64.3087 156.4 57.8908 150.684 57.8621C144.968 57.8333 140.303 64.2046 140.263 72.0926C140.224 79.9807 144.825 86.3985 150.54 86.4273C156.256 86.456 160.922 80.0848 160.961 72.1967Z" fill="white"/>
</g>
<g opacity="0.5">
<path opacity="0.5" d="M148.609 103.017C149.128 99.4342 147.055 96.1689 143.98 95.7239C140.905 95.279 137.992 97.823 137.474 101.406C136.955 104.989 139.028 108.255 142.103 108.7C145.178 109.145 148.091 106.601 148.609 103.017Z" fill="white"/>
</g>
<g opacity="0.35">
<path opacity="0.35" d="M155.149 37.5244C166.428 45.0398 174.357 56.6861 177.27 73.2172C180.008 88.774 177.497 104.103 170.971 117.57C166.071 127.667 142.217 148.026 109.408 154.109C97.8237 156.258 86.2206 155.938 75.8398 154.283C116.01 145.946 145.04 121.002 151.113 108.479C159.404 91.3858 162.585 71.9286 159.108 52.1933C158.184 46.9164 156.844 42.0345 155.149 37.5244Z" fill="#111A28"/>
</g>
<path d="M19.0609 67.1754C18.6832 67.1754 18.3013 67.0832 17.9496 66.8871C16.8714 66.2875 16.4592 64.9586 16.9968 63.8646C27.3719 40.8573 52.423 24.3002 85.7347 18.4367C118.803 12.615 147.92 19.2309 165.639 36.5836C166.471 37.3072 166.684 38.5482 166.09 39.5212C165.436 40.5907 164.049 40.938 162.972 40.3153L162.721 40.1755L162.497 39.955C145.862 23.5954 118.171 17.4047 86.5332 22.9741C54.7191 28.5739 30.896 44.1883 21.1725 65.8119L21.0846 65.9863C20.6623 66.7459 19.8724 67.1754 19.0609 67.1754Z" fill="#132026"/>
<g opacity="0.5">
<path opacity="0.5" d="M41.3408 122.388C41.3408 122.388 21.4455 84.0277 40.4817 63.9954C59.518 43.9632 91.0121 38.4874 90.6316 40.635C90.6316 40.635 57.2622 55.2073 48.4742 85.162C41.6968 108.262 41.3408 122.388 41.3408 122.388Z" fill="white"/>
</g>
<path d="M86.4676 184.393C98.382 182.039 110.827 184.418 117.748 189.918L117.851 174.35C117.871 171.329 115.343 168.914 112.326 169.073L90.9316 170.194C88.0243 170.347 85.7974 172.835 85.966 175.741L86.4676 184.393Z" fill="#22A7F0"/>
<path d="M117.749 192.008C117.285 192.008 116.825 191.854 116.449 191.554C109.845 186.307 97.9592 184.253 86.8735 186.443C86.2811 186.559 85.6671 186.415 85.1886 186.045C84.71 185.674 84.416 185.117 84.3814 184.513L83.8798 175.859C83.7659 173.894 84.4261 172.004 85.7392 170.538C87.0523 169.073 88.8569 168.208 90.8229 168.105L112.217 166.984C114.225 166.879 116.216 167.615 117.671 169.006C119.127 170.397 119.955 172.349 119.942 174.362L119.839 189.931C119.834 190.731 119.372 191.457 118.652 191.802C118.363 191.94 118.055 192.008 117.749 192.008ZM95.7726 181.396C98.6741 181.396 101.557 181.649 104.352 182.153C108.635 182.927 112.482 184.252 115.684 186.04L115.76 174.334C115.766 173.454 115.419 172.636 114.783 172.027C114.147 171.421 113.314 171.109 112.435 171.157L91.0406 172.278C90.1945 172.323 89.4176 172.695 88.8526 173.326C88.2875 173.957 88.0036 174.77 88.0526 175.616L88.4187 181.934C90.8532 181.577 93.3194 181.396 95.7726 181.396Z" fill="#132026"/>
<path d="M62.663 236.94C62.0576 236.94 61.4695 236.622 61.1524 236.055C57.167 228.935 54.6821 221.14 53.9628 213.512C53.3041 206.53 54.1863 200.057 56.4449 195.289C56.8542 194.425 57.8848 194.058 58.7482 194.466C59.6116 194.874 59.9791 195.906 59.5712 196.769C55.9418 204.431 55.8337 219.465 64.1707 234.364C64.6377 235.198 64.3393 236.253 63.5062 236.718C63.2381 236.87 62.9484 236.94 62.663 236.94Z" fill="#132026"/>
<defs>
<radialGradient id="paint0_radial" cx="0" cy="0" r="1" gradientUnits="userSpaceOnUse" gradientTransform="translate(18.2734 155.618) rotate(-38.8642) scale(205.604)">
<stop stop-color="#FF661A"/>
<stop offset="1" stop-color="#BF00E6"/>
</radialGradient>
</defs>
</svg>
