<svg width="400" height="480" viewBox="0 0 400 480" fill="none" xmlns="http://www.w3.org/2000/svg">
<path d="M3.92188 450.018C51.154 429.519 66.2952 462.214 96.2468 449.215C126.199 436.216 118.501 401.5 118.501 401.5C118.501 401.5 98.4032 372.166 68.45 385.165C38.4983 398.164 51.154 429.519 3.92188 450.018Z" fill="url(#paint0_linear)"/>
<g opacity="0.5">
<g opacity="0.5">
<path opacity="0.5" d="M25.755 443.649C47.5717 424.727 44.3038 402.619 68.2381 392.232C98.1898 379.233 118.29 408.567 118.29 408.567C118.29 408.567 118.99 411.732 119.146 416.508C119.954 408.041 118.505 401.499 118.505 401.499C118.505 401.499 98.4071 372.165 68.4539 385.164C38.5007 398.162 51.1579 429.517 3.92578 450.016C12.0778 446.48 19.2734 444.528 25.755 443.649Z" fill="white"/>
</g>
</g>
<g opacity="0.3">
<path opacity="0.3" d="M117.946 423.595C114.454 429.142 109.123 434.217 101.058 437.716C76.2853 448.467 61.644 427.962 30.5978 432.147C24.5976 438.5 16.3276 444.634 3.92188 450.018C51.1556 429.519 66.2952 462.214 96.2468 449.215C109.736 443.361 115.586 433.104 117.946 423.595Z" fill="#132026"/>
</g>
<path d="M41.3203 434.506C68.8191 422.572 87.4253 441.597 104.863 434.029C122.3 426.461 115.998 402.056 115.998 402.056C115.998 402.056 102.478 380.784 85.0392 388.352C67.602 395.921 68.8191 422.572 41.3203 434.506Z" fill="#FFD553"/>
<path d="M81.1767 454.981C73.7994 454.981 66.9081 452.989 59.7807 450.929C45.3599 446.76 29.0155 442.039 3.5629 453.085C2.27126 453.646 0.771581 453.052 0.211142 451.761C0.0683156 451.432 0 451.087 0 450.749C0 449.764 0.574414 448.827 1.53539 448.409C27.0237 437.346 34.9801 422.72 41.9988 409.815C47.8376 399.08 53.3535 388.939 67.4374 382.827C80.5061 377.154 93.8759 378.364 106.1 386.321C115.19 392.239 120.389 399.742 120.606 400.059C120.791 400.328 120.921 400.629 120.991 400.947C121.075 401.321 123.005 410.245 121.119 420.924C118.582 435.288 110.334 445.879 97.2649 451.551C91.5192 454.045 86.2331 454.981 81.1767 454.981ZM33.5549 441.114C44.1753 441.114 52.9794 443.659 61.195 446.032C72.7841 449.381 82.7944 452.273 95.2312 446.877C121.089 435.654 116.843 406.612 116.104 402.529C113.53 399.003 95.5541 376.178 69.4634 387.503C56.9909 392.916 52.1162 401.876 46.4745 412.251C41.2319 421.89 35.4955 432.437 22.9982 441.948C26.721 441.364 30.2265 441.114 33.5549 441.114Z" fill="#132026"/>
<path d="M272.805 248.528C272.805 248.528 305.914 262.441 311.526 271.043C317.138 279.645 296.562 279.855 296.562 279.855" fill="white"/>
<path d="M296.564 282.794C295.645 282.794 294.779 282.364 294.222 281.631L270.464 250.306C269.66 249.245 269.67 247.778 270.485 246.727C271.3 245.676 272.719 245.304 273.945 245.819C277.419 247.278 308.056 260.344 313.989 269.438C316.073 272.632 315.537 275.12 314.72 276.646C311.744 282.21 300.093 282.76 296.592 282.796C296.585 282.794 296.574 282.794 296.564 282.794ZM282.103 255.923L297.991 276.873C303.493 276.612 308.788 275.274 309.538 273.872C309.61 273.739 309.468 273.265 309.066 272.65C306.258 268.345 293.542 261.353 282.103 255.923Z" fill="#132026"/>
<path d="M133.817 175.579C120.955 185.219 109.17 231.116 112.15 258.476C115.129 285.837 163.491 287.886 191.15 286.998C218.808 286.11 218.712 223.574 218.349 206.821C217.784 180.664 152.875 161.297 133.817 175.579Z" fill="white"/>
<g opacity="0.25">
<path opacity="0.25" d="M191.154 286.998C163.495 287.886 115.135 285.834 112.151 258.475C111.764 254.892 111.625 250.994 111.713 246.898C119.351 252.903 129.993 247.559 131.277 240.216C139.201 194.889 156.081 177.494 164.245 171.54C189.128 175.027 217.979 189.418 218.349 206.823C218.718 223.574 218.811 286.112 191.154 286.998Z" fill="#132026"/>
</g>
<path d="M181.51 290.097C148.089 290.097 111.986 284.124 109.227 258.794C106.346 232.325 117.313 184.276 132.055 173.227C145.126 163.43 175.281 168.106 195.726 178.057C211.982 185.97 221.059 196.162 221.289 206.759C221.952 237.442 218.932 289.049 191.244 289.937C188.049 290.039 184.792 290.097 181.51 290.097ZM153.443 173.639C145.834 173.639 139.454 175.03 135.582 177.931C123.706 186.832 112.205 231.819 115.074 258.158C117.749 282.73 163.829 284.933 191.058 284.061C215.189 283.286 215.801 224.794 215.413 206.886C215.236 198.723 207.123 190.143 193.153 183.343C180.178 177.026 165.316 173.639 153.443 173.639ZM133.818 175.579H133.826H133.818Z" fill="#132026"/>
<path d="M136.535 221.486L124.26 216.592C121.486 215.487 118.364 217.057 117.614 219.949C115.035 229.895 111.064 250.514 121.073 254.735C133.204 259.85 137.502 245.856 139.636 226.632C139.881 224.415 138.605 222.31 136.535 221.486Z" fill="white"/>
<g opacity="0.25">
<path opacity="0.25" d="M139.613 226.6C137.527 245.83 133.258 259.837 121.117 254.745C116.129 252.661 114.599 246.496 114.637 239.61C115.65 241.581 117.1 243.107 119.13 243.955C130.001 248.508 134.566 237.757 136.889 221.646C138.738 222.548 139.845 224.529 139.613 226.6Z" fill="#132026"/>
</g>
<path d="M125.795 258.52C123.997 258.52 122.085 258.098 120.068 257.253C108.973 252.605 111.16 234.046 114.948 219.294C115.495 217.164 116.934 215.369 118.894 214.371C120.861 213.37 123.167 213.261 125.218 214.073L137.504 218.939C140.708 220.207 142.687 223.48 142.316 226.895C140.398 244.562 137.064 253.583 131.17 257.061C129.519 258.033 127.723 258.52 125.795 258.52ZM122.381 218.962C122.032 218.962 121.684 219.046 121.36 219.21C121.024 219.381 120.428 219.796 120.209 220.643C116.76 234.075 115.462 249.431 122.165 252.239C124.715 253.307 126.756 253.352 128.408 252.379C134.47 248.803 136.31 231.871 136.914 226.307C137.023 225.313 136.442 224.36 135.503 223.989L123.216 219.123C122.945 219.016 122.662 218.962 122.381 218.962Z" fill="#132026"/>
<path d="M132.021 175.64L146.483 182.32C151.294 184.582 156.095 186.816 160.876 189.249C161.6 189.617 161.888 190.502 161.521 191.227C161.174 191.908 160.37 192.203 159.673 191.93L159.648 191.921C154.777 189.986 149.776 188.196 144.804 186.399L129.832 181.098L129.805 181.089C128.273 180.547 127.47 178.864 128.014 177.332C128.557 175.8 130.238 174.997 131.771 175.541C131.853 175.569 131.94 175.604 132.021 175.64Z" fill="#132026"/>
<path d="M354.217 166.792C349.448 183.062 313.227 213.191 261.266 214.697C256.239 214.85 251.066 214.726 245.762 214.299L241.124 194.495L237.414 178.644C237.414 178.644 245.482 177.174 256.512 174.243C265.228 171.936 275.788 168.716 285.686 164.602C295.018 160.722 303.771 156.042 309.812 150.566C309.812 150.566 310.142 134.267 314.764 132.607C320.407 130.58 324.59 142.043 324.59 142.043C324.59 142.043 337.421 128.838 344.908 130.117C356.039 132.011 359.456 148.95 354.217 166.792Z" fill="white"/>
<g opacity="0.35">
<path opacity="0.35" d="M356.557 153.491C356.337 157.709 355.557 162.22 354.221 166.792C348.989 184.635 305.934 219.151 245.766 214.299L237.418 178.645C237.418 178.645 239.924 178.19 244.047 177.279L253.803 196.177C303.499 211.149 348.393 171.847 356.557 153.491Z" fill="#132026"/>
</g>
<path d="M257.177 217.702C253.366 217.702 249.488 217.55 245.53 217.232C243.913 217.101 242.706 215.684 242.837 214.066C242.967 212.449 244.391 211.242 246.002 211.373C305.344 216.153 346.777 181.71 351.399 165.962C354.698 154.722 354.375 143.529 350.576 137.448C349.007 134.934 346.934 133.442 344.416 133.014C340.311 132.314 331.583 139.073 326.698 144.095L323.433 147.452L321.829 143.054C320.536 139.534 317.565 134.822 315.806 135.36C314.348 136.4 312.895 143.639 312.749 150.627L312.723 151.893L311.783 152.744C290.847 171.706 240.095 181.146 237.945 181.539C236.349 181.829 234.817 180.772 234.525 179.176C234.233 177.579 235.292 176.048 236.888 175.756C237.391 175.665 286.598 166.511 306.909 149.201C307.138 143.172 308.306 131.809 313.769 129.844C319.314 127.844 323.349 133.059 325.532 137.063C330.234 132.795 338.827 126.101 345.403 127.22C349.587 127.933 353.099 130.393 355.563 134.335C360.282 141.889 360.847 154.643 357.039 167.618C351.705 185.791 312.389 217.699 257.177 217.702Z" fill="#132026"/>
<path d="M300.274 284.742C300.274 284.742 227.516 312.879 201.989 310.865C176.468 308.852 148.977 304.811 147.471 256.391C146.538 226.292 161.427 196.677 172.831 178.586C179.775 167.564 185.426 160.811 185.426 160.811L255.677 164.397C255.677 164.397 255.948 168.101 256.515 174.244C256.867 178.08 257.338 182.863 257.934 188.288C258.786 196.076 259.888 205.181 261.27 214.698C263.386 229.277 266.157 244.813 269.647 258.024C271.152 263.74 295.137 265.305 300.274 284.742Z" fill="white"/>
<path d="M259.686 195.094C262.314 203.663 263.82 212.326 265.343 220.983C266.886 229.631 268.266 238.297 270.053 246.862C270.508 249.002 270.992 251.131 271.492 253.257L272.275 256.433L272.473 257.226L272.486 257.275L272.489 257.265L272.49 257.245C272.49 257.233 272.486 257.22 272.479 257.209C272.473 257.2 272.461 257.189 272.453 257.185C272.462 257.188 272.469 257.192 272.475 257.197C272.489 257.208 272.483 257.217 272.497 257.242C272.537 257.276 272.573 257.313 272.607 257.352C272.642 257.424 272.827 257.542 272.928 257.644C273.479 258.09 274.35 258.582 275.246 259.038C276.149 259.501 277.124 259.948 278.12 260.401C280.108 261.303 282.176 262.227 284.224 263.262C288.312 265.324 292.407 267.844 295.835 271.329C297.544 273.062 299.072 275.024 300.306 277.168C301.543 279.309 302.482 281.622 303.117 283.991L303.802 286.545L301.335 287.484C289.766 291.888 278.154 295.973 266.411 299.811C254.67 303.626 242.827 307.183 230.731 310.04C224.674 311.446 218.569 312.715 212.261 313.424C209.11 313.783 205.915 314.022 202.566 313.831C201.707 313.807 200.971 313.727 200.192 313.668L197.873 313.466C196.325 313.325 194.771 313.174 193.214 312.988C186.998 312.258 180.676 311.156 174.563 308.905C171.514 307.779 168.53 306.356 165.738 304.573C162.947 302.794 160.359 300.654 158.094 298.216C155.829 295.777 153.916 293.042 152.324 290.173C150.737 287.301 149.42 284.297 148.442 281.22L148.054 280.071L147.728 278.91L147.087 276.586L146.561 274.245L146.302 273.074L146.095 271.897L145.684 269.544C145.561 268.758 145.474 267.971 145.368 267.185C145.14 265.613 145.008 264.04 144.876 262.466C144.353 256.208 144.369 249.793 145.041 243.512C145.698 237.22 146.921 231.018 148.562 224.952C151.847 212.809 156.809 201.251 162.649 190.238C165.569 184.733 168.488 179.201 172.032 174.064C175.578 168.938 179.501 164.038 184.666 160.185C185.112 159.853 185.742 159.944 186.074 160.39C186.301 160.694 186.33 161.084 186.184 161.407L186.167 161.444C183.585 167.139 180.434 172.314 177.234 177.459C174.087 182.634 170.691 187.662 167.847 193.015C162.149 203.694 157.378 214.888 154.235 226.494C152.665 232.292 151.505 238.189 150.888 244.125C150.254 250.07 150.237 256 150.734 261.991C150.86 263.48 150.982 264.97 151.198 266.439C151.297 267.175 151.378 267.917 151.493 268.649L151.876 270.837L152.067 271.931L152.308 273.01L152.792 275.167L153.378 277.286L153.673 278.345L154.023 279.379C154.904 282.162 156.077 284.814 157.459 287.318C158.847 289.817 160.483 292.155 162.405 294.225C166.241 298.374 171.166 301.41 176.599 303.397C182.038 305.404 187.917 306.457 193.892 307.154C195.386 307.332 196.893 307.48 198.404 307.616L200.677 307.813C201.428 307.871 202.223 307.955 202.901 307.966C203.611 307.978 204.294 308.056 205.023 308.021L207.192 307.97C208.659 307.858 210.122 307.779 211.604 307.587C217.519 306.925 223.474 305.696 229.386 304.32C241.221 301.526 252.95 298.008 264.587 294.225C276.213 290.426 287.802 286.349 299.21 282.005L297.429 285.498C296.422 281.698 294.439 278.273 291.646 275.462C288.867 272.627 285.352 270.416 281.571 268.513C279.678 267.553 277.711 266.675 275.679 265.753C274.665 265.291 273.631 264.818 272.57 264.276C271.506 263.724 270.421 263.16 269.241 262.228C268.937 261.958 268.656 261.764 268.342 261.406L267.894 260.906C267.743 260.71 267.594 260.482 267.454 260.265C267.175 259.897 266.923 259.162 266.785 258.729L266.574 257.917L265.729 254.671C265.189 252.504 264.666 250.335 264.175 248.16C263.183 243.815 262.232 239.463 261.396 235.095C260.555 230.727 259.856 226.339 259.235 221.942C258.021 213.147 257.188 204.297 257.736 195.327C257.77 194.777 258.242 194.359 258.79 194.394C259.22 194.417 259.566 194.71 259.686 195.094Z" fill="#132026"/>
<path d="M154.523 432.673L141.933 434.632C136.237 435.519 130.514 433.206 127.034 428.61C116.668 414.927 110.245 398.668 108.46 381.594C107.861 375.861 110.458 370.261 115.221 367.015L125.751 359.839" fill="#00AAFF"/>
<g opacity="0.6">
<g opacity="0.6">
<path opacity="0.6" d="M127.989 367.059L117.561 374.164C114.932 375.957 112.897 378.399 111.599 381.189C110.308 383.977 109.752 387.113 110.087 390.284C110.342 392.729 110.686 395.161 111.113 397.575C109.856 392.858 108.966 388.034 108.457 383.144C108.156 380.281 108.654 377.443 109.829 374.919C110.994 372.398 112.835 370.192 115.218 368.565L125.75 361.391L127.989 367.059Z" fill="white"/>
</g>
</g>
<g opacity="0.35">
<path opacity="0.35" d="M116.391 407.792C118.958 412.909 121.995 417.802 125.479 422.402C128.958 426.997 134.68 429.309 140.378 428.421L152.119 426.594L125.749 359.839L123.501 361.372L143.053 410.858L130.458 412.819C125.195 413.638 119.909 411.718 116.391 407.792ZM140.651 404.78L123.499 361.372L124.209 360.887L141.499 404.648L140.651 404.78Z" fill="#132026"/>
</g>
<path d="M156.746 340.494C150.2 327.671 127.772 310.703 83.6541 338.697C83.075 339.065 83.2505 339.957 83.9242 340.077C91.2658 341.385 125.802 347.269 132.125 365.23" fill="url(#paint1_radial)"/>
<g opacity="0.6">
<g opacity="0.6">
<path opacity="0.6" d="M91.0862 340.679C87.9208 340.002 85.3841 339.561 83.9294 339.3C83.2525 339.179 83.0802 338.29 83.6577 337.922C127.777 309.926 150.204 326.895 156.749 339.72L154.082 342.398C145.62 331.471 125.729 321.506 91.0862 340.679Z" fill="white"/>
</g>
</g>
<path d="M132.128 368.172C130.915 368.172 129.78 367.416 129.355 366.208C127.242 360.204 118.508 349.21 83.7591 343.034L83.4113 342.972C81.9008 342.702 80.7349 341.555 80.4384 340.049C80.1418 338.543 80.7877 337.037 82.0824 336.216C103.53 322.607 122.229 317.844 137.659 322.06C151.274 325.78 157.375 335.256 159.367 339.158C160.105 340.603 159.53 342.374 158.085 343.112C156.638 343.849 154.868 343.275 154.131 341.829C152.494 338.624 147.463 330.832 136.11 327.73C123.65 324.324 107.807 327.963 90.0481 338.253C121.704 344.799 131.957 355.89 134.9 364.253C135.439 365.784 134.635 367.462 133.104 368.002C132.781 368.117 132.452 368.172 132.128 368.172Z" fill="#132026"/>
<path d="M189.821 424.209C193.808 438.045 189.326 466.506 137.988 476.221C137.314 476.349 136.831 475.577 137.241 475.029C141.706 469.057 162.583 440.364 154.923 422.932" fill="#D25658"/>
<path d="M137.987 476.225C137.311 476.347 136.832 475.579 137.241 475.029C139.525 471.969 146.118 462.949 150.976 452.532C155.57 442.691 158.608 431.599 154.998 423.121C154.974 423.059 154.943 422.995 154.919 422.933L155.13 422.939L189.816 424.208C190.935 428.092 191.388 433.128 190.319 438.579C187.6 452.545 174.918 469.231 137.987 476.225Z" fill="url(#paint2_radial)"/>
<g opacity="0.35">
<path opacity="0.35" d="M150.977 452.532C155.57 442.691 158.608 431.599 154.999 423.121C155.044 423.062 155.086 422.998 155.131 422.941L189.816 424.209C190.935 428.094 191.389 433.13 190.319 438.58C182.044 445.602 169.497 451.117 150.977 452.532Z" fill="#132026"/>
</g>
<path d="M137.831 479.176C136.575 479.176 135.398 478.536 134.71 477.436C133.897 476.133 133.965 474.497 134.884 473.269C140.638 465.572 158.893 439.279 152.23 424.115C151.576 422.628 152.252 420.895 153.739 420.241C155.225 419.589 156.959 420.263 157.612 421.75C164.392 437.182 151.552 459.682 142.904 472.185C162.633 467.604 176.556 459.432 183.351 448.386C189.908 437.73 187.797 427.81 186.994 425.023C186.544 423.463 187.445 421.834 189.005 421.384C190.563 420.934 192.194 421.834 192.644 423.394C193.889 427.717 195.964 439.104 188.357 451.466C179.941 465.145 163.176 474.446 138.531 479.109C138.297 479.154 138.062 479.176 137.831 479.176ZM137.438 473.334C137.437 473.334 137.437 473.334 137.435 473.334C137.437 473.334 137.437 473.334 137.438 473.334Z" fill="#132026"/>
<path d="M397.221 294.361C397.221 294.361 385.685 367.751 290.632 413.083C209.653 451.699 153.665 432.673 153.665 432.673C142.29 419.99 134.029 404.977 129.341 388.847C126.622 379.478 125.109 369.733 124.895 359.835C124.895 359.835 137.328 336.556 171.087 313.011C172.248 312.202 173.438 311.387 174.651 310.578C187.834 301.774 204.038 293.037 223.731 285.587C228.374 283.823 233.218 282.14 238.258 280.538C238.457 280.472 238.656 280.414 238.853 280.355C259.193 273.94 277.807 270.721 294.554 269.648C295.091 269.61 295.619 269.581 296.148 269.551C360.788 265.937 397.221 294.361 397.221 294.361Z" fill="white"/>
<path d="M348.754 374.922C342.438 337.156 328.21 301.141 307.008 269.249C365.382 268.859 398.071 294.361 398.071 294.361C398.071 294.361 391.634 335.311 348.754 374.922Z" fill="url(#paint3_radial)"/>
<g opacity="0.6">
<g opacity="0.6">
<path opacity="0.6" d="M396.86 298.914C397.766 295.507 398.071 293.585 398.071 293.585C398.071 293.585 365.384 268.083 307.008 268.472C308.377 270.531 309.715 272.608 311.026 274.701C360.507 275.379 390.633 294.549 396.86 298.914Z" fill="white"/>
</g>
</g>
<path d="M346.751 380.773L345.854 375.408C339.565 337.802 325.672 302.634 304.559 270.877L301.547 266.347L306.987 266.311C353.258 265.992 383.816 281.814 394.813 288.627C398.953 291.191 400.881 296.075 399.613 300.778C396.241 313.264 384.729 345.693 350.748 377.084L346.751 380.773ZM312.453 272.228C331.365 301.917 344.21 334.432 350.693 369.025C380.513 339.886 390.831 310.744 393.937 299.244C394.524 297.069 393.631 294.81 391.717 293.622C381.589 287.346 354.133 273.122 312.453 272.228Z" fill="#132026"/>
<path d="M192.107 440.299C168.105 440.299 154.159 435.652 153.574 435.454L152.846 435.207L152.332 434.634C143.146 424.388 135.924 412.705 130.869 399.912C125.814 387.115 123.102 373.655 122.81 359.903L122.793 359.133L123.156 358.455C123.45 357.905 130.56 344.794 148.368 328.22C164.697 313.023 193.54 291.93 238.226 277.74C261.655 270.301 284.791 266.456 306.991 266.31L308.579 266.299L309.458 267.622C330.981 299.995 345.162 335.841 351.61 374.164L352.194 375.747L350.755 377.087C334.45 392.154 314.932 405.159 292.744 415.739C250.426 435.921 214.952 440.234 192.644 440.297C192.466 440.299 192.284 440.299 192.107 440.299ZM156.171 430.105C159.282 431.024 172.466 434.536 192.943 434.418C214.584 434.319 249.025 430.076 290.214 410.434C311.335 400.362 329.96 388.055 345.593 373.846C339.275 337.35 325.773 303.173 305.442 272.206C284.317 272.515 262.311 276.261 240.007 283.343C161.704 308.208 132.24 354.594 128.709 360.586C129.074 373.357 131.639 385.857 136.34 397.752C141.034 409.645 147.707 420.527 156.171 430.105Z" fill="#132026"/>
<path d="M139.511 437.759C133.74 437.759 128.243 435.077 124.689 430.385C114.001 416.273 107.376 399.507 105.535 381.9C104.823 375.082 107.898 368.446 113.564 364.587L124.095 357.412C125.438 356.499 127.265 356.845 128.179 358.186C129.094 359.528 128.746 361.356 127.405 362.271L116.874 369.446C112.998 372.087 110.893 376.626 111.382 381.29C113.111 397.83 119.333 413.58 129.375 426.838C132.206 430.576 136.845 432.45 141.479 431.73L154.07 429.77C155.673 429.528 157.176 430.62 157.426 432.223C157.676 433.827 156.577 435.33 154.973 435.58L142.383 437.539C141.423 437.685 140.462 437.759 139.511 437.759Z" fill="#132026"/>
<g opacity="0.35">
<path opacity="0.35" d="M307.464 374.679C323.254 358.889 323.254 333.289 307.464 317.499C291.675 301.709 266.075 301.709 250.285 317.499C234.495 333.289 234.495 358.889 250.285 374.679C266.075 390.468 291.675 390.468 307.464 374.679Z" fill="#132026"/>
</g>
<path d="M279.773 377.451C299.853 377.451 316.131 361.172 316.131 341.092C316.131 321.012 299.853 304.733 279.773 304.733C259.692 304.733 243.414 321.012 243.414 341.092C243.414 361.172 259.692 377.451 279.773 377.451Z" fill="url(#paint4_radial)"/>
<g opacity="0.6">
<g opacity="0.6">
<path opacity="0.6" d="M315.539 335.269C315.291 334.48 315.014 333.699 314.709 332.921C307.334 314.247 286.21 305.09 267.535 312.464C251.072 318.966 242.004 336.149 245.141 352.923C239.349 334.843 248.508 315.127 266.416 308.051C285.097 300.675 306.215 309.833 313.597 328.511C314.473 330.738 315.117 333.002 315.539 335.269Z" fill="white"/>
</g>
</g>
<g opacity="0.35">
<path opacity="0.35" d="M293.131 374.906C274.459 382.28 253.337 373.132 245.958 354.454C243.64 348.58 242.957 342.464 243.693 336.609C244.099 339.265 244.803 341.913 245.832 344.521C253.209 363.199 274.331 372.359 293.008 364.981C305.813 359.922 314.142 348.393 315.727 335.637C318.233 352.025 309.207 368.555 293.131 374.906Z" fill="#132026"/>
</g>
<path d="M279.763 380.413C274.455 380.413 269.155 379.323 264.138 377.148C254.506 372.972 247.079 365.295 243.223 355.531C239.367 345.768 239.542 335.089 243.718 325.457C247.894 315.827 255.571 308.399 265.335 304.542C275.098 300.686 285.777 300.861 295.409 305.037C305.039 309.214 312.467 316.891 316.324 326.654C320.18 336.416 320.005 347.097 315.829 356.727C311.652 366.358 303.975 373.785 294.212 377.642C289.534 379.49 284.646 380.413 279.763 380.413ZM279.78 307.655C275.627 307.655 271.472 308.439 267.494 310.01C259.192 313.29 252.663 319.606 249.111 327.797C245.559 335.987 245.41 345.069 248.691 353.372C251.971 361.674 258.286 368.203 266.477 371.755C274.668 375.307 283.75 375.456 292.053 372.175C300.355 368.895 306.883 362.58 310.435 354.389C313.987 346.198 314.136 337.116 310.856 328.813C307.576 320.511 301.26 313.983 293.069 310.431C288.803 308.582 284.295 307.655 279.78 307.655Z" fill="#132026"/>
<path d="M296.37 356.888C305.404 347.855 305.404 333.209 296.37 324.175C287.337 315.142 272.691 315.142 263.657 324.175C254.624 333.209 254.624 347.855 263.657 356.888C272.691 365.922 287.337 365.922 296.37 356.888Z" fill="#6BD6F0"/>
<g opacity="0.3">
<g opacity="0.3">
<path opacity="0.3" d="M288.517 362.047C276.634 366.742 263.201 360.912 258.506 349.03C257.488 346.459 256.963 343.809 256.895 341.193C256.978 341.435 257.07 341.674 257.165 341.921C261.859 353.804 275.293 359.633 287.175 354.938C296.487 351.262 302.076 342.221 301.804 332.765C305.987 344.459 300.154 357.449 288.517 362.047Z" fill="white"/>
</g>
</g>
<g opacity="0.35">
<path opacity="0.35" d="M303.399 341.725C303.267 341.351 303.135 340.977 302.986 340.603C298.291 328.72 284.858 322.891 272.975 327.586C264.031 331.116 258.515 339.606 258.345 348.651C254.435 337.054 260.267 324.308 271.775 319.763C283.651 315.073 297.088 320.891 301.782 332.774C302.941 335.714 303.465 338.751 303.399 341.725Z" fill="#132026"/>
</g>
<path d="M280.011 366.616C276.49 366.616 272.974 365.893 269.645 364.45C263.257 361.679 258.33 356.587 255.77 350.11C250.488 336.741 257.067 321.567 270.437 316.285C283.807 311.002 298.981 317.583 304.264 330.955C309.545 344.324 302.964 359.498 289.595 364.78C286.493 366.004 283.25 366.616 280.011 366.616ZM279.994 320.339C277.53 320.339 275.026 320.792 272.6 321.752C262.245 325.842 257.148 337.594 261.239 347.949C263.22 352.965 267.037 356.91 271.985 359.056C276.933 361.203 282.421 361.293 287.437 359.31C297.792 355.22 302.888 343.467 298.798 333.112C295.665 325.186 288.042 320.339 279.994 320.339Z" fill="#132026"/>
<g opacity="0.2">
<path opacity="0.2" d="M355.507 290.936C355.331 285.414 343.859 281.086 337.368 281.137C330.644 281.19 326.6 282.348 326.571 285.602C326.53 290.146 331.767 291.748 337.99 291.984C342.393 292.152 355.724 297.752 355.507 290.936Z" fill="white"/>
</g>
<g opacity="0.2">
<path opacity="0.2" d="M372.356 297.914C371.996 293.127 366.208 288.669 363.06 288.307C359.798 287.933 357.892 288.681 358.039 291.494C358.246 295.422 360.869 297.134 363.903 297.727C366.048 298.145 372.8 303.821 372.356 297.914Z" fill="white"/>
</g>
<g opacity="0.35">
<path opacity="0.35" d="M152.968 427.238C152.968 427.238 208.954 446.264 289.929 407.652C372.163 368.436 391.884 308.226 395.709 292.696C396.099 292.955 396.439 293.189 396.734 293.394C395.542 292.565 393.562 291.253 390.813 289.654C379.648 315.028 353.069 355.853 291.853 385.049C253.617 403.281 220.953 408.663 197.126 409.265C166.693 410.034 139.331 390.504 130.712 361.308C130.664 361.147 130.617 360.985 130.57 360.825C130.234 359.667 129.921 358.5 129.622 357.328C129.467 356.843 129.304 356.364 129.159 355.875C129.111 355.713 129.065 355.552 129.018 355.392C128.968 355.219 128.925 355.044 128.875 354.872C128.911 354.819 128.945 354.768 128.982 354.713C126.761 357.952 125.75 359.843 125.75 359.843C125.936 368.585 127.143 377.204 129.296 385.553C134.074 400.87 142.093 415.115 152.968 427.238Z" fill="#132026"/>
</g>
<path d="M148.995 407.28C132.325 413.861 110.699 407.149 110.699 407.149C110.699 407.149 110.741 407.073 110.823 406.941C112.079 404.808 122.911 387.07 138.561 380.879C153.581 374.94 169.943 381.035 172.855 382.223C173.155 382.346 173.312 382.416 173.312 382.416C173.312 382.416 165.555 400.749 148.995 407.28Z" fill="url(#paint5_radial)"/>
<g opacity="0.6">
<g opacity="0.6">
<path opacity="0.6" d="M174.092 383.19C174.092 383.19 173.619 384.306 172.662 386.081C167.087 384.151 153.292 380.45 140.466 385.522C127.88 390.499 118.411 402.945 114.529 408.731C112.601 408.275 111.477 407.927 111.477 407.927C111.477 407.927 111.523 407.851 111.602 407.716C112.861 405.586 123.693 387.847 139.343 381.656C154.362 375.716 170.719 381.811 173.633 382.999C173.935 383.123 174.092 383.19 174.092 383.19Z" fill="white"/>
</g>
</g>
<g opacity="0.35">
<path opacity="0.35" d="M148.995 407.28C132.325 413.861 110.699 407.149 110.699 407.149C110.699 407.149 110.741 407.073 110.823 406.941L172.855 382.223C173.155 382.346 173.312 382.416 173.312 382.416C173.312 382.416 165.555 400.749 148.995 407.28Z" fill="#132026"/>
</g>
<path d="M131.832 413.125C120.227 413.125 110.439 410.149 109.827 409.959L106.336 408.876L108.145 405.698C108.623 404.858 120.058 385.039 137.485 378.149C154.987 371.23 173.714 379.382 174.503 379.733L177.141 380.905L176.017 383.564C175.68 384.359 167.582 403.11 150.073 410.02C144.176 412.345 137.766 413.125 131.832 413.125ZM115.359 405.306C122.07 406.809 136.418 409.087 147.916 404.549C159.419 400.008 166.441 389.155 169.225 384.035C163.685 382.204 151.107 379.082 139.646 383.614C128.125 388.17 119.226 399.626 115.359 405.306ZM110.698 407.151H110.706H110.698Z" fill="#132026"/>
<g opacity="0.25">
<path opacity="0.25" d="M231.829 347.314C234.144 350.637 250.134 377.612 237.267 388.334C226.003 397.724 205.214 396.181 194.256 381.419C187.019 371.652 185.549 360.395 185.96 351.782C186.444 341.722 188.245 332.125 183.226 324.593C180.551 320.565 176.142 316.987 171.086 313.011C172.247 312.202 173.438 311.387 174.65 310.578C187.834 301.774 204.037 293.037 223.73 285.587C227.574 287.439 231.255 289.819 234.349 292.877C246.546 304.98 246.885 329.275 238.604 339.121C235.341 343 231.829 347.314 231.829 347.314Z" fill="#132026"/>
</g>
<path d="M239.18 339.965C241.495 343.287 257.485 370.263 244.619 380.984C233.354 390.375 212.565 388.832 201.608 374.069C194.37 364.303 192.9 353.046 193.311 344.433C193.796 334.373 195.596 324.775 190.577 317.243C184.867 308.659 162.588 305.457 151.505 292.75C144.972 285.268 141.475 271.681 142.069 255.037C142.252 249.981 142.811 244.639 143.781 239.098C147.897 215.569 159.404 188.505 180.597 164.541C180.597 164.541 189.019 198.226 197.843 228.156C203.994 249.018 210.342 268.058 214.156 272.563C214.664 273.165 215.126 273.504 215.538 273.563C220.557 274.261 225.48 275.665 230.147 277.795C234.321 279.706 238.354 282.218 241.698 285.526C253.896 297.629 254.235 321.923 245.954 331.769C242.692 335.652 239.18 339.965 239.18 339.965Z" fill="white"/>
<g opacity="0.25">
<path opacity="0.25" d="M248.725 374.833C247.967 377.191 246.66 379.285 244.617 380.984C233.352 390.375 212.563 388.832 201.606 374.069C194.368 364.31 192.898 353.046 193.31 344.433C193.794 334.373 195.587 324.775 190.576 317.251C184.866 308.667 162.586 305.457 151.497 292.759C144.972 285.278 141.475 271.677 142.069 255.039C142.069 254.966 142.077 254.885 142.077 254.811C142.099 254.252 142.128 253.694 142.158 253.128C142.187 252.614 142.217 252.092 142.252 251.563C142.266 251.328 142.282 251.085 142.304 250.842C142.398 249.6 142.51 248.345 142.648 247.073C142.715 246.471 142.788 245.861 142.861 245.243C142.912 244.816 142.971 244.383 143.03 243.95C143.074 243.589 143.126 243.229 143.178 242.869C143.258 242.304 143.347 241.737 143.435 241.164C143.538 240.517 143.648 239.863 143.758 239.21C143.766 239.173 143.772 239.137 143.78 239.1C144.434 238.365 144.896 237.954 144.896 237.954C144.896 237.954 147.115 238.96 151.856 240.188C159.388 242.142 173.285 244.67 194.749 244.64L194.41 233.508C194.337 231.134 195.755 229.04 197.843 228.158C198.335 227.945 198.872 227.805 199.437 227.746L212.774 226.321L232.056 273.005L214.155 272.565L200.692 272.234C197.796 272.051 195.511 269.691 195.423 266.789L195.253 261.197C183.473 263.835 163.979 264.526 151.361 260.367C152.301 271.992 155.541 281.384 160.568 287.145C171.65 299.851 188.264 293.031 199.507 306.141C206.532 314.343 202.857 328.767 202.373 338.827C201.962 347.44 198.633 360.071 205.863 369.829C215.435 382.733 236.13 381.586 248.725 374.833Z" fill="#132026"/>
</g>
<g opacity="0.25">
<path opacity="0.25" d="M285.69 164.602C278.466 174.53 268.949 182.686 257.935 188.286C252.652 190.969 247.022 193.069 241.129 194.496C235.051 195.972 228.703 196.73 222.171 196.686C210.557 196.607 199.559 193.987 189.696 189.356C179.86 184.737 168.097 189.141 163.616 199.043C157.169 213.288 153.387 227.396 151.861 240.19C147.121 238.962 144.901 237.956 144.901 237.956C144.901 237.956 144.439 238.367 143.785 239.101C147.901 215.572 159.408 188.508 180.6 164.544L180.821 166.8C183.635 162.956 185.428 160.811 185.428 160.811L255.679 164.397C255.679 164.397 255.951 168.101 256.517 174.244C265.231 171.936 275.791 168.717 285.69 164.602Z" fill="#132026"/>
</g>
<path d="M216.949 272.787C220.765 272.737 224.598 273.355 228.297 274.476C231.992 275.603 235.591 277.185 238.904 279.392C240.554 280.496 242.14 281.732 243.621 283.114C245.109 284.523 246.448 286.102 247.624 287.76C249.969 291.096 251.6 294.813 252.731 298.61C253.823 302.425 254.437 306.335 254.563 310.263C254.722 314.189 254.423 318.142 253.532 322.037C252.632 325.913 251.218 329.826 248.519 333.261L241.457 341.818L241.589 338.28C242.181 339.148 242.639 339.907 243.117 340.71C243.581 341.505 244.036 342.3 244.469 343.104C245.342 344.709 246.161 346.339 246.931 347.996C248.474 351.307 249.811 354.737 250.845 358.315C251.849 361.9 252.587 365.652 252.494 369.628C252.441 371.607 252.199 373.647 251.544 375.656C250.906 377.659 249.869 379.616 248.46 381.27L247.933 381.889C247.749 382.088 247.546 382.265 247.352 382.453C246.959 382.807 246.563 383.23 246.163 383.494C245.357 384.077 244.576 384.704 243.739 385.233C242.879 385.719 242.029 386.228 241.155 386.683L238.449 387.846C234.768 389.19 230.885 389.796 227.033 389.771C223.179 389.745 219.346 389.085 215.702 387.844C212.044 386.63 208.643 384.685 205.609 382.311C204.85 381.714 204.079 381.132 203.413 380.43C202.733 379.747 202.003 379.107 201.371 378.381L199.527 376.153C198.921 375.406 198.423 374.61 197.869 373.838C195.796 370.665 194.151 367.226 192.93 363.663C191.752 360.088 190.951 356.399 190.599 352.686C190.4 350.831 190.322 348.968 190.318 347.109C190.31 346.179 190.344 345.251 190.377 344.323L190.532 341.631C190.76 338.065 191.072 334.593 191.078 331.248C191.074 327.916 190.776 324.69 189.675 321.905C189.549 321.551 189.414 321.202 189.239 320.876C189.068 320.548 188.937 320.196 188.739 319.884L188.171 318.934C187.969 318.659 187.817 318.418 187.587 318.165C186.724 317.161 185.528 316.206 184.19 315.343C181.49 313.613 178.343 312.165 175.166 310.718C168.793 307.827 162.071 304.985 155.945 300.627C152.9 298.427 150.011 295.873 147.682 292.647C145.388 289.469 143.789 285.979 142.581 282.44C141.378 278.893 140.567 275.274 139.993 271.644C139.473 268.01 139.184 264.363 139.096 260.724C138.961 253.446 139.613 246.212 140.803 239.092C143.275 224.864 147.973 211.11 154.364 198.236C157.617 191.835 160.947 185.431 165.056 179.516C169.193 173.643 173.883 168.092 179.865 163.888C180.32 163.568 180.949 163.678 181.268 164.133C181.492 164.451 181.506 164.855 181.338 165.178L181.334 165.185C177.991 171.579 174.018 177.205 170.257 183.028C166.467 188.808 162.659 194.616 159.63 200.852C153.473 213.248 148.96 226.488 146.6 240.082C145.464 246.879 144.849 253.761 144.975 260.6C145.059 264.017 145.33 267.414 145.809 270.767C146.338 274.105 147.08 277.393 148.143 280.532C149.207 283.662 150.603 286.655 152.45 289.206C154.255 291.721 156.702 293.928 159.371 295.849C164.773 299.705 171.135 302.448 177.595 305.364C180.831 306.845 184.131 308.332 187.385 310.406C189.003 311.46 190.627 312.688 192.07 314.362C192.429 314.765 192.772 315.26 193.081 315.701L193.874 317.021C194.143 317.459 194.335 317.934 194.567 318.39C194.803 318.847 194.989 319.319 195.163 319.795C195.899 321.689 196.363 323.648 196.61 325.57C196.864 327.492 196.975 329.4 196.959 331.252C196.948 334.967 196.619 338.532 196.4 342.006L196.251 344.599C196.223 345.434 196.189 346.269 196.198 347.103C196.203 348.772 196.271 350.441 196.45 352.094C196.762 355.407 197.478 358.658 198.504 361.783C200.642 367.971 204.194 373.815 209.251 377.693C211.762 379.654 214.576 381.282 217.629 382.287C220.665 383.317 223.868 383.867 227.066 383.89C230.263 383.913 233.459 383.407 236.416 382.328L238.573 381.4C239.259 381.037 239.922 380.635 240.602 380.261C241.254 379.848 241.845 379.355 242.476 378.915C242.817 378.696 243.008 378.446 243.275 378.216C243.398 378.096 243.534 377.989 243.648 377.864L243.972 377.472C245.739 375.422 246.573 372.577 246.618 369.477C246.7 366.383 246.095 363.121 245.193 359.926C244.267 356.725 243.039 353.557 241.6 350.473C240.883 348.93 240.114 347.406 239.304 345.911C238.9 345.161 238.48 344.425 238.054 343.695C237.632 342.981 237.173 342.233 236.769 341.643L235.507 339.794L236.901 338.105L243.924 329.596C245.807 327.214 247.063 324.04 247.78 320.752C249.207 314.123 248.735 306.921 246.715 300.422C245.688 297.177 244.292 294.068 242.435 291.332C241.515 289.955 240.475 288.699 239.335 287.52C238.174 286.327 236.892 285.223 235.522 284.211C232.793 282.181 229.77 280.392 226.599 278.834C223.425 277.275 220.1 275.955 216.637 274.718L216.63 274.715C216.113 274.53 215.843 273.96 216.028 273.443C216.169 273.046 216.546 272.793 216.949 272.787Z" fill="#132026"/>
<path d="M193.575 327.334C192.489 327.334 191.543 326.532 191.393 325.425C187.963 300.057 202.987 288.065 209.603 284.087C220.574 277.491 233.795 276.874 241.755 282.589C242.744 283.299 242.97 284.676 242.259 285.666C241.55 286.655 240.173 286.882 239.182 286.171C232.715 281.527 221.231 282.241 211.873 287.866C206.003 291.395 192.681 302.062 195.76 324.835C195.923 326.041 195.077 327.151 193.87 327.314C193.774 327.328 193.673 327.334 193.575 327.334Z" fill="#132026"/>
<path d="M243.223 339.595C242.913 339.89 242.703 340.067 242.445 340.285C242.202 340.496 241.947 340.684 241.696 340.878C241.196 341.266 240.674 341.612 240.148 341.952C239.098 342.635 237.982 343.21 236.846 343.744C234.556 344.773 232.095 345.504 229.548 345.791C227.012 346.069 224.37 345.961 221.95 345.124C219.534 344.316 217.378 342.885 215.867 340.976C218.277 341.395 220.43 341.718 222.538 341.614C223.581 341.603 224.601 341.497 225.606 341.345C226.609 341.204 227.599 341 228.569 340.693C230.512 340.12 232.393 339.308 234.205 338.33C235.121 337.863 236.003 337.32 236.888 336.789L238.184 335.953L239.375 335.151L239.555 335.03C240.901 334.123 242.726 334.479 243.633 335.825C244.448 337.032 244.245 338.625 243.223 339.595Z" fill="#132026"/>
<path d="M299.483 129.614C298.609 129.67 297.856 129.007 297.8 128.133L294.886 82.5591C294.83 81.685 295.493 80.9321 296.367 80.8762C305.534 80.2909 313.441 87.2459 314.026 96.4132L315.02 111.953C315.607 121.122 308.65 129.029 299.483 129.614Z" fill="white"/>
<path d="M299.382 129.932C298.389 129.932 297.55 129.157 297.487 128.153L294.574 82.5788C294.507 81.5325 295.304 80.6274 296.35 80.5606C305.681 79.9707 313.749 87.067 314.345 96.3927L315.338 111.933C315.627 116.45 314.14 120.81 311.15 124.208C308.16 127.606 304.024 129.637 299.506 129.926C299.463 129.931 299.423 129.932 299.382 129.932ZM299.483 129.614H299.491H299.483ZM297.452 81.1568C297.099 81.1568 296.745 81.1677 296.389 81.1909C296.051 81.2127 295.74 81.3648 295.517 81.6194C295.293 81.874 295.181 82.2016 295.203 82.54L298.115 128.113C298.16 128.811 298.767 129.355 299.464 129.299C303.814 129.021 307.795 127.066 310.673 123.794C313.553 120.521 314.984 116.323 314.707 111.975L313.713 96.4346C313.435 92.0846 311.481 88.1041 308.208 85.2242C305.204 82.5804 301.417 81.1568 297.452 81.1568Z" fill="#132026"/>
<g opacity="0.35">
<path opacity="0.35" d="M314.555 104.667L315.022 111.956C315.607 121.12 308.651 129.029 299.482 129.619C298.608 129.676 297.855 129.007 297.797 128.135L297.02 116.019C297.301 116.556 297.878 116.902 298.519 116.865L299.6 116.794C306.844 116.331 312.712 111.293 314.555 104.667Z" fill="#132026"/>
</g>
<path d="M299.38 132.557C297.016 132.557 295.021 130.713 294.867 128.322L291.955 82.7482C291.796 80.258 293.692 78.1032 296.182 77.9449C301.395 77.608 306.434 79.3281 310.359 82.7823C314.284 86.235 316.629 91.0104 316.963 96.2282L317.957 111.768C318.291 116.986 316.572 122.021 313.119 125.945C309.667 129.87 304.891 132.216 299.673 132.55C299.574 132.554 299.476 132.557 299.38 132.557ZM299.484 129.614H299.492H299.484ZM297.911 83.7884L300.644 126.528C307.504 125.405 312.542 119.22 312.088 112.141L311.095 96.6008C310.862 92.951 309.221 89.6101 306.475 87.1945C304.07 85.0784 301.071 83.8939 297.911 83.7884Z" fill="#132026"/>
<path d="M145.939 90.4921C146.813 90.4362 147.566 91.0991 147.622 91.9731L150.536 137.547C150.592 138.421 149.929 139.174 149.055 139.23C139.887 139.815 131.981 132.86 131.395 123.693L130.402 108.153C129.815 98.9856 136.772 91.0789 145.939 90.4921Z" fill="white"/>
<path d="M147.971 139.581C143.85 139.581 139.919 138.101 136.799 135.356C133.401 132.366 131.368 128.231 131.08 123.713L130.086 108.173C129.797 103.655 131.285 99.2958 134.275 95.8975C137.265 92.4991 141.4 90.4685 145.918 90.1798C146.977 90.127 147.87 90.9094 147.936 91.9558L150.849 137.53C150.881 138.036 150.714 138.525 150.378 138.907C150.043 139.289 149.579 139.515 149.073 139.548C148.706 139.568 148.337 139.581 147.971 139.581ZM145.96 90.807C141.61 91.0848 137.63 93.0394 134.751 96.312C131.871 99.5846 130.44 103.782 130.718 108.131L131.712 123.671C131.989 128.021 133.944 132.002 137.217 134.881C140.489 137.76 144.69 139.199 149.037 138.915C149.375 138.893 149.686 138.741 149.91 138.486C150.135 138.232 150.245 137.904 150.223 137.566L147.311 91.9915C147.264 91.2944 146.66 90.7588 145.96 90.807Z" fill="#132026"/>
<g opacity="0.35">
<path opacity="0.35" d="M149.733 124.904L150.54 137.547C150.597 138.421 149.928 139.174 149.056 139.232C144.245 139.537 139.775 137.768 136.534 134.688C133.606 131.906 131.679 128.049 131.4 123.698L130.98 117.149C133.95 122.729 140.003 126.36 146.726 125.932L148.388 125.825C148.994 125.783 149.489 125.415 149.733 124.904Z" fill="#132026"/>
</g>
<path d="M147.979 142.205C137.752 142.205 129.122 134.228 128.46 123.881L127.467 108.341C127.133 103.123 128.851 98.0882 132.304 94.1636C135.757 90.2389 140.532 87.8932 145.75 87.5594C148.243 87.3979 150.393 89.2966 150.553 91.7852L153.466 137.359C153.543 138.566 153.146 139.73 152.348 140.637C151.55 141.545 150.445 142.087 149.24 142.163C148.818 142.191 148.397 142.205 147.979 142.205ZM144.778 93.5783C137.918 94.7007 132.88 100.886 133.333 107.965L134.327 123.505C134.56 127.155 136.201 130.496 138.947 132.911C141.352 135.027 144.351 136.212 147.511 136.318L144.778 93.5783Z" fill="#132026"/>
<path d="M277.744 165.08C308.135 134.69 308.135 85.4174 277.744 55.027C247.354 24.6365 198.081 24.6365 167.691 55.027C137.3 85.4174 137.3 134.69 167.691 165.08C198.081 195.471 247.354 195.471 277.744 165.08Z" fill="white"/>
<path d="M222.727 188.188C222.535 188.188 222.352 188.188 222.159 188.187C179.077 187.879 144.277 152.578 144.584 109.496C144.891 66.6041 179.887 31.9189 222.709 31.9189C222.901 31.9189 223.084 31.9189 223.277 31.9205C244.147 32.0695 263.709 40.3364 278.361 55.1997C293.013 70.063 301.001 89.742 300.85 110.612C300.544 153.502 265.549 188.188 222.727 188.188ZM222.702 32.5477C202.211 32.5477 182.916 40.4575 168.307 54.8581C153.563 69.3923 145.363 88.7965 145.214 109.499C145.067 130.201 152.989 149.721 167.523 164.464C182.057 179.207 201.462 187.407 222.164 187.556C242.847 187.699 262.386 179.782 277.129 165.248C291.872 150.713 300.073 131.309 300.222 110.607C300.369 89.905 292.447 70.3843 277.913 55.6421C263.378 40.8984 243.974 32.6983 223.272 32.5508C223.083 32.5492 222.892 32.5477 222.702 32.5477Z" fill="#132026"/>
<g opacity="0.35">
<path opacity="0.35" d="M299.866 99.8315C300.337 103.354 300.562 106.951 300.537 110.61C300.224 153.587 265.136 188.178 222.159 187.873C179.183 187.56 144.592 152.472 144.897 109.496C144.904 108.26 144.942 107.023 145.01 105.805C149.986 143.724 182.28 173.122 221.604 173.404C263.343 173.701 297.637 141.082 299.866 99.8315Z" fill="#132026"/>
</g>
<path d="M222.736 190.812C222.537 190.812 222.342 190.812 222.143 190.81C200.572 190.657 180.352 182.11 165.208 166.749C150.064 151.387 141.809 131.047 141.963 109.475C142.117 87.9039 150.663 67.6846 166.025 52.5404C181.386 37.3961 201.742 29.1323 223.298 29.2953C244.87 29.449 265.089 37.9953 280.233 53.357C295.377 68.7201 303.632 89.0589 303.478 110.63C303.324 132.202 294.778 152.421 279.417 167.565C264.195 182.57 244.086 190.812 222.736 190.812ZM222.705 35.1714C202.908 35.1714 184.265 42.8126 170.151 56.7258C155.907 70.7678 147.983 89.5154 147.841 109.516C147.698 129.516 155.351 148.375 169.394 162.619C183.436 176.863 202.183 184.787 222.183 184.93C242.21 185.048 261.043 177.419 275.287 163.377C289.531 149.335 297.455 130.587 297.597 110.587C297.74 90.585 290.087 71.7257 276.045 57.4819C262.003 43.238 243.255 35.3142 223.255 35.1714C223.071 35.173 222.888 35.1714 222.705 35.1714Z" fill="#132026"/>
<path d="M300.275 112.607C300.396 127.835 295.565 142.012 287.205 153.775C280.936 162.594 255.005 178.15 222.835 178.695C193.006 179.201 165.738 163.512 159.331 154.793C150.785 143.164 145.729 129.066 145.608 113.838C145.288 73.5403 179.776 56.5595 222.489 56.2195C265.199 55.8795 299.954 72.3092 300.275 112.607Z" fill="url(#paint6_radial)"/>
<path d="M221.392 180.46C191.179 180.462 164.511 164.802 157.918 155.83C148.837 143.474 143.973 128.957 143.854 113.85C143.697 94.179 151.463 78.9493 166.934 68.5866C180.455 59.5296 199.66 54.6471 222.474 54.4654C245.295 54.2791 264.567 58.862 278.23 67.7017C293.865 77.8176 301.871 92.9215 302.028 112.593C302.148 127.7 297.517 142.293 288.633 154.792C282.478 163.455 256.865 179.873 222.863 180.449C222.373 180.457 221.881 180.46 221.392 180.46ZM223.651 57.9678C223.259 57.9678 222.877 57.9693 222.502 57.9724C199.777 58.1525 146.965 63.9572 147.361 113.822C147.474 128.187 152.102 141.995 160.743 153.753C166.787 161.975 192.772 176.952 221.421 176.953C221.884 176.953 222.342 176.95 222.804 176.941C255.151 176.393 280.157 160.662 285.774 152.758C294.227 140.865 298.634 126.984 298.52 112.619C298.131 63.5799 246.959 57.9678 223.651 57.9678Z" fill="#132026"/>
<g opacity="0.7">
<path opacity="0.7" d="M284.949 109.025C286.246 101.53 282.894 94.6929 277.463 93.7532C272.032 92.8135 266.579 98.1276 265.282 105.623C263.985 113.117 267.336 119.955 272.767 120.895C278.198 121.835 283.652 116.52 284.949 109.025Z" fill="white"/>
</g>
<g opacity="0.7">
<path opacity="0.7" d="M268.272 136.351C269.337 133.025 267.887 129.589 265.034 128.675C262.181 127.762 259.005 129.717 257.94 133.042C256.875 136.367 258.325 139.803 261.178 140.717C264.031 141.631 267.207 139.676 268.272 136.351Z" fill="white"/>
</g>
<g opacity="0.35">
<path opacity="0.35" d="M284.933 75.1318C294.458 84.0771 300.14 96.4192 300.272 112.604C300.394 127.835 295.561 142.01 287.205 153.775C280.935 162.594 255.001 178.149 222.833 178.697C211.473 178.892 200.489 176.736 190.883 173.505C230.412 171.988 262 152.899 269.773 141.961C280.385 127.029 286.515 109.035 286.359 89.711C286.32 84.5475 285.825 79.6914 284.933 75.1318Z" fill="#111A28"/>
</g>
<path d="M153.479 81.2329L148.864 77.5924L151.031 79.3265L148.723 77.7849C162.384 57.3296 189.08 45.4471 221.963 45.1847C254.641 44.9379 281.46 55.9867 295.671 75.5338C296.494 76.6143 296.485 78.159 295.567 79.2302C294.511 80.4629 292.659 80.6104 291.428 79.5531C291.253 79.4041 291.087 79.224 290.952 79.0377C277.88 61.0152 252.745 50.8031 222.011 51.0623C191.106 51.3092 166.175 62.2385 153.611 81.0482C153.571 81.1134 153.528 81.1739 153.479 81.2329ZM151.16 79.4289H151.168H151.16Z" fill="#132026"/>
<g opacity="0.7">
<path opacity="0.7" d="M163.168 137.671C163.168 137.671 150.371 98.0165 171.669 82.0044C192.967 65.9923 223.791 65.8106 223.087 67.7931C223.087 67.7931 189.029 76.3255 175.892 103.408C165.762 124.293 163.168 137.671 163.168 137.671Z" fill="white"/>
</g>
<path d="M271.826 224.105L273.932 240.355L275.572 252.995C276.016 256.429 273.741 259.622 270.341 260.312C268.153 260.759 265.438 261.282 262.313 261.821C251.19 263.739 234.825 265.885 218.374 265.633C214.839 265.578 211.982 262.732 211.889 259.194L211.041 225.642C210.945 221.863 214.031 218.775 217.808 218.872C229.236 219.167 252.008 219.542 264.693 218.375C268.223 218.049 271.373 220.586 271.826 224.105Z" fill="white"/>
<path d="M217.303 218.881L203.964 220.303C201.039 220.615 198.85 223.127 198.94 226.066L199.955 259.35C200.044 262.252 202.328 264.61 205.225 264.792L217.548 265.563" fill="white"/>
<g opacity="0.25">
<path opacity="0.25" d="M217.303 218.881L203.964 220.303C201.039 220.615 198.85 223.127 198.94 226.066L199.955 259.35C200.044 262.252 202.328 264.61 205.225 264.792L217.548 265.563" fill="#132026"/>
</g>
<path d="M221.08 268.251C220.164 268.251 219.248 268.245 218.329 268.229C213.388 268.153 209.418 264.213 209.294 259.26L208.445 225.707C208.379 223.161 209.336 220.769 211.136 218.968C212.936 217.169 215.328 216.22 217.873 216.277C229.945 216.585 252.049 216.931 264.453 215.79C269.386 215.337 273.758 218.841 274.398 223.77L278.144 252.656C278.762 257.416 275.562 261.897 270.86 262.853C260.766 264.91 241.243 268.251 221.08 268.251ZM217.635 221.466C216.567 221.466 215.566 221.88 214.807 222.639C214.021 223.423 213.605 224.468 213.633 225.578L214.482 259.132C214.536 261.291 216.261 263.01 218.41 263.042C239.034 263.351 259.477 259.877 269.824 257.77C271.872 257.352 273.266 255.401 272.997 253.325L269.251 224.439C268.974 222.29 267.081 220.764 264.928 220.96C252.26 222.126 229.926 221.779 217.741 221.469C217.705 221.466 217.669 221.466 217.635 221.466Z" fill="#132026"/>
<path d="M217.551 268.161C217.497 268.161 217.441 268.159 217.387 268.156L205.063 267.384C200.803 267.117 197.492 263.699 197.363 259.433L196.348 226.148C196.217 221.879 199.442 218.177 203.691 217.726L217.029 216.302C218.461 216.144 219.732 217.182 219.884 218.607C220.037 220.033 219.004 221.31 217.579 221.462L204.24 222.886C202.675 223.054 201.486 224.417 201.534 225.991L202.55 259.276C202.598 260.848 203.818 262.108 205.388 262.205L217.711 262.977C219.141 263.067 220.228 264.298 220.139 265.729C220.051 267.103 218.91 268.161 217.551 268.161Z" fill="#132026"/>
<path d="M245.678 267.021C244.313 267.021 243.171 265.956 243.09 264.577L242.098 247.576L233.49 241.77C232.827 241.323 232.406 240.595 232.352 239.797L230.944 219.321C230.846 217.892 231.925 216.653 233.355 216.555C234.781 216.457 236.023 217.536 236.121 218.966L237.442 238.176L246.065 243.992C246.735 244.443 247.158 245.184 247.204 245.991L248.271 264.273C248.355 265.704 247.262 266.931 245.832 267.015C245.781 267.019 245.729 267.021 245.678 267.021Z" fill="#132026"/>
<path d="M269.884 239.623C269.991 240.652 269.407 249.114 269.407 249.114C269.407 249.114 266.774 249.388 263.542 249.725C259.503 250.145 255.794 246.303 255.257 241.144C254.719 235.985 257.559 231.463 261.598 231.042C264.325 230.758 267.464 230.432 267.464 230.432C267.464 230.432 269.709 237.946 269.884 239.623Z" fill="#22A7F0"/>
<path d="M269.883 239.623C269.992 240.652 269.411 249.115 269.411 249.115C269.411 249.115 269.344 249.121 269.217 249.134C269.369 246.691 269.521 243.791 269.461 243.216C269.29 241.537 267.045 234.026 267.045 234.026C267.045 234.026 263.903 234.353 261.18 234.637C258.358 234.927 256.117 237.229 255.205 240.348C255.015 235.526 257.769 231.44 261.601 231.044C264.325 230.76 267.466 230.434 267.466 230.434C267.466 230.434 269.711 237.946 269.883 239.623Z" fill="white"/>
<path d="M262.947 251.961C258.035 251.961 253.692 247.398 253.064 241.373C252.403 235.012 256.129 229.395 261.37 228.851L265.465 228.425C267.561 228.206 269.499 229.515 270.084 231.533C271.916 237.858 272.035 239.015 272.076 239.395C272.108 239.701 272.181 240.415 271.726 247.458C271.59 249.576 269.957 251.273 267.844 251.493L263.769 251.917C263.495 251.947 263.221 251.961 262.947 251.961ZM265.867 232.816L261.828 233.236C259.052 233.525 257.048 237.043 257.45 240.918C257.854 244.793 260.543 247.812 263.314 247.533L267.331 247.115C267.634 242.418 267.713 240.264 267.69 239.837C267.625 239.261 267.114 237.124 265.867 232.816Z" fill="#132026"/>
<path d="M269.413 249.085C273.452 248.665 276.291 244.143 275.754 238.984C275.217 233.826 271.508 229.985 267.469 230.405C263.43 230.825 260.591 235.348 261.128 240.506C261.665 245.665 265.374 249.506 269.413 249.085Z" fill="#22A7F0"/>
<path d="M275.747 239.013C275.811 239.637 275.828 240.25 275.794 240.85C274.678 236.642 271.396 233.73 267.847 234.096C264.295 234.47 261.671 238.007 261.457 242.363C261.301 241.775 261.185 241.162 261.12 240.531C260.583 235.374 263.425 230.85 267.465 230.434C271.503 230.012 275.21 233.856 275.747 239.013Z" fill="white"/>
<path d="M268.787 251.352C266.444 251.352 264.192 250.34 262.364 248.449C260.46 246.476 259.239 243.746 258.929 240.762C258.618 237.78 259.25 234.858 260.709 232.534C262.276 230.04 264.592 228.515 267.236 228.24C269.878 227.964 272.46 228.981 274.506 231.1C276.411 233.073 277.631 235.802 277.942 238.786C278.252 241.768 277.62 244.69 276.161 247.014C274.595 249.509 272.278 251.034 269.635 251.308C269.35 251.336 269.068 251.352 268.787 251.352ZM268.063 232.606C267.939 232.606 267.815 232.612 267.692 232.624C266.427 232.756 265.274 233.556 264.445 234.877C263.507 236.369 263.106 238.297 263.315 240.305C263.524 242.312 264.313 244.116 265.536 245.383C266.62 246.505 267.916 247.055 269.178 246.92C270.443 246.788 271.597 245.988 272.426 244.667C273.364 243.175 273.764 241.247 273.556 239.24C273.347 237.232 272.558 235.428 271.335 234.161C270.355 233.149 269.208 232.606 268.063 232.606Z" fill="#132026"/>
<path d="M144.899 230.606C144.899 230.606 162.446 238.549 204.181 237.114C204.181 237.114 211.827 244.442 204.181 250.495C196.535 256.548 153.502 260.032 142.008 247.628C134.728 239.774 144.899 230.606 144.899 230.606Z" fill="white"/>
<g opacity="0.25">
<path opacity="0.25" d="M204.18 250.498C196.537 256.547 153.504 260.029 142.005 247.625C138.545 243.891 139.029 239.864 140.499 236.661C140.881 237.352 141.381 238.035 142.005 238.712C153.506 251.116 196.538 247.632 204.18 241.586C204.988 240.938 205.634 240.285 206.12 239.623C207.721 242.29 209.037 246.648 204.18 250.498Z" fill="#132026"/>
</g>
<path d="M173.881 258.58C164.135 258.58 147.46 257.332 140.101 249.391C137.766 246.871 136.655 243.984 136.797 240.809C137.092 234.219 142.911 228.901 143.158 228.678L144.418 227.542L145.96 228.24C146.225 228.357 163.756 235.909 204.087 234.521L205.182 234.484L205.972 235.242C206.425 235.678 210.403 239.643 210.159 244.783C210.063 246.815 209.226 249.808 205.787 252.53C200.659 256.59 186 258.512 174.549 258.578C174.331 258.578 174.108 258.58 173.881 258.58ZM145.563 233.652C144.227 235.17 142.11 238.038 141.981 241.059C141.907 242.813 142.537 244.384 143.908 245.864C154.436 257.226 196.114 253.569 202.567 248.459C204.121 247.228 204.91 245.946 204.977 244.536C205.064 242.709 203.918 240.834 203.056 239.745C168.773 240.792 150.919 235.58 145.563 233.652Z" fill="#132026"/>
<g opacity="0.25">
<path opacity="0.25" d="M295.138 292.23C288.856 299.821 268.706 307.147 257.859 300.349C248.799 294.676 248.512 286.549 242.089 281.875C241.715 281.603 240.583 281.111 238.855 280.353C259.196 273.939 277.81 270.719 294.556 269.646C301.774 278.532 300.341 285.939 295.138 292.23Z" fill="#132026"/>
</g>
<path d="M207.576 196.176C230.301 224.53 267.796 241.913 290.195 262.123C302.471 273.2 300.54 278.529 294.416 285.938C288.138 293.532 273.391 300.858 262.544 294.062C253.483 288.384 252.92 282.991 246.499 278.313C243.967 276.469 203.221 265.656 180.602 230.403" fill="white"/>
<g opacity="0.25">
<path opacity="0.25" d="M294.418 285.939C288.143 293.53 273.395 300.856 262.548 294.058C253.487 288.386 252.921 282.992 246.498 278.31C243.971 276.466 203.223 265.656 180.605 230.398L181.068 229.81C206.296 256.33 232.591 257.917 250.056 271.36C256.35 276.203 256.897 277.81 265.957 283.483C276.804 290.28 291.552 282.953 297.827 275.363C298.231 274.879 298.613 274.401 298.973 273.931C300.01 278.215 297.886 281.743 294.418 285.939Z" fill="#132026"/>
</g>
<path d="M208.343 195.562C213.168 198.967 217.149 202.839 221.407 206.548C225.587 210.303 229.882 213.965 234.218 217.607C238.632 221.17 243.201 224.55 247.883 227.815C252.537 231.108 257.288 234.307 262.029 237.536C266.775 240.778 271.549 243.987 276.245 247.382C277.428 248.211 278.597 249.07 279.758 249.945C280.919 250.818 282.092 251.671 283.245 252.559C285.527 254.379 287.84 256.149 290.039 258.106C292.271 259.98 294.477 262.023 296.545 264.293C297.049 264.888 297.56 265.468 298.054 266.078C298.524 266.73 299.012 267.353 299.462 268.036L300.106 269.106L300.425 269.643C300.524 269.831 300.611 270.034 300.704 270.23L301.244 271.417C301.404 271.832 301.528 272.279 301.665 272.71C302.162 274.451 302.357 276.467 301.948 278.318C301.575 280.159 300.847 281.823 300.001 283.233C299.15 284.638 298.223 285.917 297.275 287.08C296.826 287.664 296.289 288.268 295.742 288.867C295.218 289.488 294.621 290 294.055 290.558C291.729 292.7 289.155 294.471 286.395 295.921C283.633 297.364 280.676 298.481 277.549 299.119C274.43 299.753 271.114 299.891 267.845 299.239L266.626 298.956C266.219 298.868 265.814 298.767 265.424 298.606C264.645 298.3 263.833 298.061 263.086 297.679C262.35 297.286 261.59 296.893 260.883 296.482C260.241 296.049 259.585 295.645 258.957 295.184C257.695 294.273 256.467 293.287 255.324 292.2C254.188 291.115 253.113 289.957 252.152 288.778C250.215 286.414 248.672 284.149 246.857 282.443C246.638 282.213 246.394 282.021 246.163 281.811C245.932 281.601 245.696 281.396 245.444 281.21L245.073 280.923L244.888 280.779L244.795 280.706C244.753 280.672 244.794 280.713 244.79 280.712C244.804 280.729 244.823 280.74 244.843 280.744L244.69 280.675C244.565 280.62 244.472 280.571 244.306 280.505C243.1 280.01 241.714 279.493 240.377 278.975C237.676 277.93 234.968 276.832 232.295 275.66C221.6 270.976 211.322 265.145 202.059 257.883C199.73 256.085 197.499 254.162 195.304 252.196C193.148 250.189 190.926 248.239 188.883 246.097C187.845 245.044 186.862 243.936 185.949 242.768C185.48 242.197 185.016 241.619 184.603 241.001C184.173 240.398 183.749 239.79 183.344 239.169C182.524 237.937 181.852 236.594 181.214 235.248C180.623 233.868 180.115 232.443 179.786 230.931C179.663 230.367 180.022 229.81 180.585 229.689C180.872 229.627 181.158 229.689 181.386 229.841L181.436 229.873C182.72 230.735 183.771 231.719 184.834 232.683C185.918 233.632 186.863 234.664 187.849 235.661C188.338 236.162 188.807 236.678 189.271 237.196C189.732 237.716 190.225 238.212 190.689 238.729C191.164 239.236 191.628 239.753 192.078 240.281C192.549 240.792 193.019 241.304 193.48 241.826C195.309 243.92 197.228 245.951 199.274 247.851C201.346 249.722 203.469 251.543 205.682 253.253C214.493 260.162 224.338 265.759 234.654 270.276C237.236 271.408 239.849 272.467 242.499 273.493C243.837 274.013 245.141 274.494 246.59 275.089C246.757 275.154 246.987 275.263 247.189 275.354C247.302 275.409 247.375 275.437 247.523 275.513C247.698 275.607 247.872 275.708 248.041 275.814C248.114 275.86 248.238 275.936 248.265 275.96L248.384 276.053L248.625 276.239L249.105 276.612C249.746 277.104 250.348 277.655 250.932 278.206C253.293 280.46 254.985 282.986 256.693 285.045C258.39 287.125 260.238 288.875 262.381 290.405C262.908 290.795 263.479 291.141 264.022 291.512L265.603 292.366C266.129 292.644 266.714 292.792 267.262 293.023C267.536 293.146 267.827 293.214 268.122 293.273L269 293.476C271.362 293.948 273.888 293.866 276.382 293.358C281.365 292.327 286.257 289.724 290.065 286.242C290.518 285.792 291.02 285.371 291.417 284.89C291.836 284.427 292.26 283.966 292.686 283.41C293.552 282.351 294.302 281.292 294.94 280.248C295.573 279.201 295.971 278.183 296.175 277.217C296.401 276.255 296.283 275.325 296.014 274.322C295.435 272.318 293.948 270.174 292.167 268.215C290.369 266.244 288.365 264.371 286.199 262.557C284.111 260.696 281.863 258.977 279.66 257.218C278.541 256.355 277.394 255.52 276.26 254.669C275.13 253.817 273.988 252.977 272.82 252.159C268.216 248.83 263.462 245.634 258.732 242.403C253.986 239.173 249.218 235.961 244.502 232.624C239.765 229.328 235.137 225.839 230.467 222.386C225.871 218.829 221.275 215.209 217.206 210.978C213.022 206.902 209.357 202.184 206.819 196.792C206.581 196.289 206.799 195.688 207.302 195.452C207.642 195.292 208.024 195.339 208.311 195.539L208.343 195.562Z" fill="#132026"/>
<path d="M209.343 262.215C209.14 262.215 208.934 262.19 208.727 262.14C207.335 261.8 206.481 260.397 206.821 259.004C207.175 257.556 215.701 223.725 239.264 223.725C239.393 223.725 239.519 223.725 239.648 223.728C241.08 223.749 242.225 224.929 242.201 226.362C242.18 227.795 240.998 228.973 239.567 228.916C239.471 228.915 239.373 228.915 239.278 228.915C219.725 228.915 211.938 259.919 211.86 260.234C211.573 261.42 210.511 262.215 209.343 262.215Z" fill="#132026"/>
<path d="M305.431 208.586C305.001 208.586 304.565 208.479 304.163 208.254C291.08 200.906 290.124 165.538 290.059 161.529C290.036 160.096 291.177 158.916 292.61 158.892C292.625 158.892 292.639 158.892 292.653 158.892C294.066 158.892 295.222 160.025 295.247 161.444C295.416 171.51 297.803 198.729 306.704 203.73C307.954 204.432 308.398 206.014 307.696 207.263C307.22 208.109 306.338 208.586 305.431 208.586Z" fill="#132026"/>
<path d="M326.915 142.217C326.941 142.378 326.954 142.68 326.971 142.929L327.019 143.724C327.064 144.26 327.082 144.802 327.137 145.342C327.21 146.429 327.345 147.515 327.5 148.611C327.651 149.712 327.88 150.8 328.095 151.943C328.265 153.115 328.56 154.258 328.703 155.653C327.457 155.079 326.412 154.202 325.564 153.183C325.122 152.68 324.775 152.12 324.423 151.555C324.117 150.974 323.791 150.387 323.549 149.774C323.02 148.557 322.645 147.276 322.408 145.971C322.309 145.316 322.209 144.656 322.189 143.985C322.175 143.65 322.163 143.314 322.181 142.971C322.189 142.617 322.214 142.315 322.271 141.875C322.439 140.609 323.6 139.716 324.869 139.884C325.907 140.02 326.693 140.826 326.851 141.809L326.915 142.217Z" fill="#132026"/>
<defs>
<linearGradient id="paint0_linear" x1="4.21838" y1="450.71" x2="117.468" y2="402.123" gradientUnits="userSpaceOnUse">
<stop offset="2.49201e-07" stop-color="#EC1C24"/>
<stop offset="1" stop-color="#FFCA28"/>
</linearGradient>
<radialGradient id="paint1_radial" cx="0" cy="0" r="1" gradientUnits="userSpaceOnUse" gradientTransform="translate(131.534 474.219) rotate(-40.0331) scale(332.827)">
<stop stop-color="#FF661A"/>
<stop offset="1" stop-color="#BF00E6"/>
</radialGradient>
<radialGradient id="paint2_radial" cx="0" cy="0" r="1" gradientUnits="userSpaceOnUse" gradientTransform="translate(122.24 491.947) rotate(-43.6211) scale(320.151)">
<stop stop-color="#FF661A"/>
<stop offset="1" stop-color="#BF00E6"/>
</radialGradient>
<radialGradient id="paint3_radial" cx="0" cy="0" r="1" gradientUnits="userSpaceOnUse" gradientTransform="translate(281.89 406.066) rotate(-50.6551) scale(231.16)">
<stop stop-color="#FF661A"/>
<stop offset="1" stop-color="#BF00E6"/>
</radialGradient>
<radialGradient id="paint4_radial" cx="0" cy="0" r="1" gradientUnits="userSpaceOnUse" gradientTransform="translate(192.003 417.243) rotate(-42.8332) scale(239.537)">
<stop stop-color="#FF661A"/>
<stop offset="1" stop-color="#BF00E6"/>
</radialGradient>
<radialGradient id="paint5_radial" cx="0" cy="0" r="1" gradientUnits="userSpaceOnUse" gradientTransform="translate(127.033 471.735) rotate(-39.6271) scale(331.773)">
<stop stop-color="#FF661A"/>
<stop offset="1" stop-color="#BF00E6"/>
</radialGradient>
<radialGradient id="paint6_radial" cx="0" cy="0" r="1" gradientUnits="userSpaceOnUse" gradientTransform="translate(145.605 178.707) rotate(-38.3775) scale(197.301)">
<stop stop-color="#FF661A"/>
<stop offset="1" stop-color="#BF00E6"/>
</radialGradient>
</defs>
</svg>
