<svg width="22" height="12" viewBox="0 0 22 12" fill="none" xmlns="http://www.w3.org/2000/svg">
<path d="M15.4999 0.750169C15.4296 0.819891 15.3738 0.902842 15.3358 0.994236C15.2977 1.08563 15.2781 1.18366 15.2781 1.28267C15.2781 1.38168 15.2977 1.47971 15.3358 1.5711C15.3738 1.6625 15.4296 1.74545 15.4999 1.81517L18.9499 5.26517L1.29492 5.26517C1.09601 5.26517 0.905244 5.34419 0.764592 5.48484C0.623939 5.62549 0.544922 5.81626 0.544922 6.01517C0.544922 6.21408 0.623939 6.40485 0.764592 6.5455C0.905244 6.68615 1.09601 6.76517 1.29492 6.76517L18.9349 6.76517L15.4999 10.1927C15.3602 10.3332 15.2818 10.5233 15.2818 10.7214C15.2818 10.9196 15.3602 11.1096 15.4999 11.2502C15.6404 11.3899 15.8305 11.4683 16.0287 11.4683C16.2268 11.4683 16.4169 11.3899 16.5574 11.2502L21.3274 6.48017C21.3916 6.41857 21.4427 6.34463 21.4776 6.26279C21.5125 6.18094 21.5305 6.09289 21.5305 6.00392C21.5305 5.91495 21.5125 5.82689 21.4776 5.74505C21.4427 5.66321 21.3916 5.58927 21.3274 5.52767L16.5649 0.750169C16.4952 0.679873 16.4122 0.624077 16.3209 0.586001C16.2295 0.547924 16.1314 0.52832 16.0324 0.52832C15.9334 0.52832 15.8354 0.547924 15.744 0.586001C15.6526 0.624077 15.5696 0.679873 15.4999 0.750169Z" fill="#B3B3B3"/>
</svg>
