<svg width="52" height="52" viewBox="0 0 52 52" fill="none" xmlns="http://www.w3.org/2000/svg">
<rect width="52" height="52" rx="12" fill="white"/>
<path d="M32.25 35H19.75C18.234 35 17 33.766 17 32.25V20.25C17 18.734 18.234 17.5 19.75 17.5H32.25C33.766 17.5 35 18.734 35 20.25V32.25C35 33.766 33.766 35 32.25 35ZM26.75 25.5H25.25C24.5605 25.5 24 24.9395 24 24.25C24 23.5605 24.5605 23 25.25 23H26.25C26.8135 23 27.31 23.3795 27.4565 23.9225C27.5645 24.3225 27.9775 24.5575 28.3765 24.451C28.7765 24.3425 29.0125 23.931 28.905 23.531C28.604 22.417 27.6335 21.6255 26.5 21.521V20.75C26.5 20.336 26.164 20 25.75 20C25.336 20 25 20.336 25 20.75V21.5125C23.6005 21.6395 22.5 22.818 22.5 24.25C22.5 25.766 23.734 27 25.25 27H26.75C27.4395 27 28 27.5605 28 28.25C28 28.9395 27.4395 29.5 26.75 29.5H25.25C24.681 29.5 24.1835 29.116 24.04 28.5665C23.9355 28.1655 23.5265 27.924 23.125 28.0305C22.7245 28.135 22.4845 28.5445 22.589 28.9455C22.883 30.073 23.856 30.8745 25 30.979V31.75C25 32.164 25.336 32.5 25.75 32.5C26.164 32.5 26.5 32.164 26.5 31.75V31H26.75C28.266 31 29.5 29.766 29.5 28.25C29.5 26.734 28.266 25.5 26.75 25.5Z" fill="#CBA977"/>
</svg>
