<svg width="32" height="32" viewBox="0 0 32 32" fill="none" xmlns="http://www.w3.org/2000/svg">
<path d="M0 16C0 7.16344 7.16344 0 16 0C24.8366 0 32 7.16344 32 16C32 24.8366 24.8366 32 16 32C7.16344 32 0 24.8366 0 16Z" fill="#BEBEBE"/>
<path d="M15.9993 9.33334C15.1153 9.33334 14.2674 9.68453 13.6423 10.3097C13.0172 10.9348 12.666 11.7826 12.666 12.6667C12.666 13.5507 13.0172 14.3986 13.6423 15.0237C14.2674 15.6488 15.1153 16 15.9993 16C16.8834 16 17.7312 15.6488 18.3564 15.0237C18.9815 14.3986 19.3327 13.5507 19.3327 12.6667C19.3327 11.7826 18.9815 10.9348 18.3564 10.3097C17.7312 9.68453 16.8834 9.33334 15.9993 9.33334ZM20.0063 17.3333H11.9923C11.261 17.3333 10.666 17.9283 10.666 18.6597V19.1667C10.666 20.2707 11.2943 21.2253 12.435 21.8543C13.384 22.3783 14.65 22.6667 15.9993 22.6667C18.568 22.6667 21.3327 21.5713 21.3327 19.1667V18.6597C21.3327 17.9283 20.7377 17.3333 20.0063 17.3333Z" fill="white"/>
</svg>
