<svg width="16" height="24" viewBox="0 0 16 24" fill="none" xmlns="http://www.w3.org/2000/svg">
<path d="M7.9826 -2.71348e-05C7.8628 0.00270492 7.7454 0.0340995 7.64023 0.0915279C7.53506 0.148956 7.44517 0.230747 7.37811 0.330051L0.628108 10.3301C0.568848 10.4177 0.528818 10.517 0.510648 10.6213C0.492478 10.7255 0.49658 10.8324 0.522683 10.935C0.548786 11.0376 0.5963 11.1335 0.662102 11.2164C0.727905 11.2993 0.810505 11.3673 0.904475 11.416L7.65447 14.916C7.76127 14.9715 7.87984 15.0004 8.00018 15.0004C8.12052 15.0004 8.23909 14.9715 8.34588 14.916L15.0959 11.416C15.1899 11.3673 15.2725 11.2993 15.3383 11.2164C15.4041 11.1335 15.4516 11.0376 15.4777 10.935C15.5038 10.8324 15.5079 10.7255 15.4897 10.6213C15.4715 10.517 15.4315 10.4177 15.3722 10.3301L8.62225 0.330051C8.55186 0.225813 8.45638 0.140951 8.3446 0.083272C8.23283 0.0255925 8.10834 -0.00305224 7.9826 -2.71348e-05ZM8.00018 2.09177V7.99997L13.5012 10.2412L13.6564 10.4717L8.00018 13.4052V7.99997L2.4992 10.2412L8.00018 2.09177ZM14.7599 13.5C14.6418 13.4985 14.5251 13.5249 14.4191 13.5771L7.9992 16.7373L1.58123 13.5771C1.43001 13.503 1.25823 13.4819 1.09356 13.5172C0.928882 13.5525 0.780895 13.6423 0.673426 13.772C0.565958 13.9017 0.505264 14.0637 0.501117 14.2321C0.496971 14.4005 0.549614 14.5654 0.650569 14.7002L7.40057 23.7002C7.47045 23.7932 7.56101 23.8686 7.66507 23.9206C7.76913 23.9725 7.88386 23.9996 8.00018 23.9996C8.1165 23.9996 8.23122 23.9725 8.33529 23.9206C8.43935 23.8686 8.5299 23.7932 8.59979 23.7002L15.3498 14.7002C15.4329 14.5894 15.4837 14.4578 15.4966 14.32C15.5096 14.1821 15.4841 14.0434 15.423 13.9191C15.3619 13.7949 15.2677 13.69 15.1506 13.616C15.0336 13.542 14.8984 13.5018 14.7599 13.5ZM3.73065 16.3076L7.56463 18.1953C7.62389 18.2359 7.68868 18.2678 7.75701 18.29L8.00018 18.4101V22L3.73065 16.3076Z" fill="#4C77F2"/>
</svg>
