<svg width="18" height="18" viewBox="0 0 18 18" fill="none" xmlns="http://www.w3.org/2000/svg">
<path d="M12 15.5C9.495 15.5 7.32 14.08 6.235 12H12V10H5.585C5.535 9.675 5.5 9.34 5.5 9C5.5 8.66 5.535 8.325 5.585 8H12V6H6.235C7.32 3.92 9.49 2.5 12 2.5C13.615 2.5 15.09 3.09 16.225 4.065L18 2.3C16.41 0.875 14.305 0 12 0C8.085 0 4.76 2.505 3.525 6H0V8H3.06C3.02 8.33 3 8.66 3 9C3 9.34 3.02 9.67 3.06 10H0V12H3.525C4.76 15.495 8.085 18 12 18C14.305 18 16.41 17.125 18 15.7L16.225 13.93C15.09 14.905 13.615 15.5 12 15.5Z" fill="#1EB2E0"/>
</svg>
