<svg width="21" height="22" viewBox="0 0 21 22" fill="none" xmlns="http://www.w3.org/2000/svg">
<path d="M14 22.002L2.917 21C2.915 21 2.913 21 2.911 21C1.342 21 0 19.652 0 18V4C0 2.346 1.346 0.998 3 0.998L13.917 0C13.919 0 13.922 0 13.924 0C15.658 0 17 1.348 17 3V4C17 4.553 16.553 5 16 5C15.447 5 15 4.553 15 4V3C15 2.449 14.552 2 14 2L3.083 2.996C2.448 3 2 3.449 2 4V18C2 18.551 2.448 19 3 19L14.083 20.004C14.552 20 15 19.551 15 19V18C15 17.447 15.447 17 16 17C16.553 17 17 17.447 17 18V19C17 20.654 15.654 22.002 14 22.002Z" fill="#8B9296"/>
<path d="M20.188 10.3198L17.227 7.35876C16.873 7.00476 16.299 7.00476 15.946 7.35876L15.813 7.49176C15.459 7.84576 15.459 8.41876 15.813 8.77276L17.039 9.99976H9C8.447 9.99976 8 10.4468 8 10.9998C8 11.5528 8.447 11.9998 9 11.9998H17.039L15.812 13.2268C15.458 13.5808 15.458 14.1548 15.812 14.5078L15.945 14.6408C16.299 14.9948 16.872 14.9948 17.226 14.6408L20.187 11.6798C20.375 11.4918 20.456 11.2448 20.445 10.9998C20.456 10.7548 20.375 10.5078 20.188 10.3198Z" fill="#8B9296"/>
</svg>
