<svg width="20" height="20" viewBox="0 0 20 20" fill="none" xmlns="http://www.w3.org/2000/svg">
<path d="M10.0049 0.500015C9.86475 0.499139 9.72713 0.53756 9.60769 0.610919C9.48824 0.684278 9.39174 0.789639 9.32913 0.915054L6.75296 6.0674L0.635776 7.0088C0.498851 7.02996 0.370462 7.08863 0.264847 7.1783C0.159231 7.26798 0.0805168 7.38515 0.0374324 7.51683C-0.005652 7.64851 -0.0114225 7.78955 0.0207607 7.92431C0.0529439 8.05907 0.121823 8.18229 0.21976 8.28029L4.45121 12.5117L3.50882 18.6358C3.48774 18.7728 3.50504 18.9129 3.5588 19.0407C3.61256 19.1685 3.70068 19.2789 3.81337 19.3596C3.92607 19.4403 4.05893 19.4882 4.19721 19.498C4.33548 19.5078 4.47377 19.4791 4.59671 19.4151L10 16.5957L15.4034 19.4151C15.5263 19.4791 15.6646 19.5078 15.8029 19.498C15.9411 19.4882 16.074 19.4403 16.1867 19.3596C16.2994 19.2789 16.3875 19.1685 16.4413 19.0407C16.495 18.9129 16.5123 18.7728 16.4912 18.6358L15.5489 12.5117L19.7803 8.28029C19.8782 8.18229 19.9471 8.05907 19.9793 7.92431C20.0115 7.78955 20.0057 7.64851 19.9626 7.51683C19.9195 7.38515 19.8408 7.26798 19.7352 7.1783C19.6296 7.08863 19.5012 7.02996 19.3643 7.0088L13.2471 6.0674L10.6709 0.915054C10.6091 0.791123 10.5141 0.686744 10.3965 0.613486C10.279 0.540229 10.1434 0.500954 10.0049 0.500015ZM10 2.92677L12.0791 7.08498C12.1327 7.19225 12.2112 7.28512 12.308 7.35581C12.4049 7.42649 12.5173 7.47293 12.6358 7.49123L17.6729 8.26662L14.2198 11.7197C14.1364 11.8031 14.0739 11.9048 14.0373 12.0168C14.0006 12.1288 13.9909 12.2478 14.0088 12.3643L14.7832 17.3994L10.3467 15.085C10.2397 15.0292 10.1207 15.0001 10 15.0001C9.87932 15.0001 9.7604 15.0292 9.65335 15.085L5.21683 17.3994L5.99124 12.3643C6.00918 12.2478 5.99943 12.1288 5.96278 12.0168C5.92613 11.9048 5.86362 11.8031 5.78031 11.7197L2.32718 8.26662L7.36429 7.49123C7.48279 7.47293 7.59518 7.42649 7.69203 7.35581C7.78888 7.28512 7.86737 7.19225 7.92093 7.08498L10 2.92677Z" fill="#CBA977"/>
</svg>
