<svg width="20" height="20" viewBox="0 0 20 20" fill="none" xmlns="http://www.w3.org/2000/svg">
<path d="M19.3643 7.0085C19.6438 7.0515 19.8753 7.248 19.9633 7.5165C20.0513 7.785 19.9803 8.0805 19.7803 8.2805L15.5493 12.512L16.4913 18.636C16.5343 18.9155 16.4168 19.1955 16.1868 19.36C16.0573 19.4525 15.9043 19.5 15.7503 19.5C15.6318 19.5 15.5123 19.4715 15.4033 19.415L10.0003 16.5955L4.59679 19.415C4.34629 19.545 4.04329 19.524 3.81329 19.36C3.58329 19.1955 3.46579 18.916 3.50879 18.636L4.45079 12.512L0.219789 8.2805C0.0197889 8.081 -0.0507112 7.7855 0.0372888 7.517C0.125789 7.2485 0.356789 7.052 0.636289 7.009L6.75279 6.068L9.32929 0.9145C9.45679 0.6605 9.71629 0.5 10.0003 0.5C10.2843 0.5 10.5438 0.6605 10.6713 0.9145L13.2478 6.0675L19.3643 7.0085Z" fill="#A5A5A5"/>
</svg>
