<svg width="20" height="20" viewBox="0 0 20 20" fill="none" xmlns="http://www.w3.org/2000/svg">
<path d="M10 0C4.486 0 0 4.486 0 10C0 11.593 0.385 13.1715 1.116 14.586L0.0465 18.4145C-0.0745 18.848 0.0479999 19.3155 0.3665 19.634C0.604 19.8715 0.924 20 1.252 20C1.364 20 1.4765 19.985 1.587 19.954L5.4175 18.8845C6.831 19.615 8.4085 20 10 20C15.514 20 20 15.514 20 10C20 4.486 15.514 0 10 0ZM9.25 5.25C9.25 4.836 9.5855 4.5 10 4.5C10.4145 4.5 10.75 4.836 10.75 5.25V11.25C10.75 11.664 10.4145 12 10 12C9.5855 12 9.25 11.664 9.25 11.25V5.25ZM10 15.5C9.4475 15.5 9 15.0525 9 14.5C9 13.9475 9.4475 13.5 10 13.5C10.5525 13.5 11 13.9475 11 14.5C11 15.0525 10.5525 15.5 10 15.5Z" fill="#A5A5A5"/>
</svg>
