<svg width="20" height="15" viewBox="0 0 20 15" fill="none" xmlns="http://www.w3.org/2000/svg">
<path d="M13.6407 0.439486L19.5667 6.43929C20.1444 7.02527 20.1444 7.97524 19.5667 8.56122L13.6407 14.561C13.3513 14.854 12.972 15 12.5927 15C12.2135 15 11.8342 14.854 11.5458 14.56C10.967 13.974 10.967 13.0251 11.5458 12.4391L14.9424 9.00021H1.4815C0.663712 9.00021 0 8.32823 0 7.50025C0 6.67228 0.663712 6.0003 1.4815 6.0003H14.9424L11.5458 2.56042C10.967 1.97444 10.967 1.02547 11.5458 0.439486C12.1246 -0.146495 13.0619 -0.146495 13.6407 0.439486Z" fill="#CBA977"/>
</svg>
