<svg width="14" height="11" viewBox="0 0 14 11" fill="none" xmlns="http://www.w3.org/2000/svg">
<path d="M4.57282 0.626364L0.622145 4.62623C0.236954 5.01689 0.236954 5.6502 0.622145 6.04085L4.57282 10.0407C4.76574 10.2361 5.01858 10.3334 5.27143 10.3334C5.52427 10.3334 5.77711 10.236 5.96938 10.0401C6.35523 9.6494 6.35523 9.01676 5.96938 8.6261L3.70499 6.33351H12.6789C13.2241 6.33351 13.6666 5.88553 13.6666 5.33354C13.6666 4.78156 13.2241 4.33358 12.6789 4.33358H3.70499L5.96938 2.04032C6.35523 1.64966 6.35523 1.01702 5.96938 0.626364C5.58353 0.235711 4.95867 0.235711 4.57282 0.626364Z" fill="#CBA977"/>
</svg>
