<svg width="74" height="74" viewBox="0 0 74 74" fill="none" xmlns="http://www.w3.org/2000/svg">
<rect y="0.000305176" width="74" height="74" rx="16" fill="#F1EAE3"/>
<path d="M36.3327 35.3337V38.667C36.3327 39.219 36.78 39.667 37.3327 39.667H44.5387C44.206 40.611 43.7013 41.4657 43.0687 42.2037L47.0907 45.6897C49.1054 43.353 50.3327 40.3203 50.3327 37.0003C50.3327 36.4483 50.29 35.875 50.198 35.199C50.1307 34.7037 49.7073 34.3337 49.2073 34.3337H37.3327C36.78 34.3337 36.3327 34.7817 36.3327 35.3337ZM29.4073 39.5077C29.146 38.7183 28.9993 37.8763 28.9993 37.0003C28.9993 36.1243 29.146 35.2823 29.4073 34.493L25.036 31.1503C24.1673 32.919 23.666 34.8997 23.666 37.0003C23.666 39.101 24.1673 41.0817 25.0367 42.8503L29.4073 39.5077ZM41.576 43.557C40.27 44.4697 38.6873 45.0003 36.9993 45.0003C34.1913 45.0003 31.7213 43.543 30.2933 41.3483L26.052 44.5917C28.4627 48.057 32.4673 50.3337 36.9993 50.3337C40.3113 50.3337 43.338 49.1123 45.672 47.107L41.576 43.557ZM46.0093 27.1983C43.5413 24.921 40.3413 23.667 36.9993 23.667C32.4673 23.667 28.4627 25.9437 26.052 29.4097L30.2933 32.653C31.7213 30.4577 34.1913 29.0003 36.9993 29.0003C38.962 29.0003 40.85 29.721 42.3154 31.029C42.7107 31.3823 43.314 31.365 43.6887 30.9897L46.0387 28.6403C46.2313 28.4483 46.3367 28.185 46.3314 27.913C46.326 27.641 46.2093 27.383 46.0093 27.1983Z" fill="#CBA977"/>
</svg>
