<svg width="20" height="20" viewBox="0 0 20 20" fill="none" xmlns="http://www.w3.org/2000/svg">
<path d="M10.0001 3.8147e-06C7.27846 3.8147e-06 4.80605 1.09366 3.0001 2.86426V2C3.00193 1.8663 2.97693 1.73358 2.92657 1.60971C2.87621 1.48583 2.80153 1.37331 2.70693 1.27881C2.61233 1.1843 2.49974 1.10972 2.37582 1.05949C2.25189 1.00925 2.11916 0.984374 1.98545 0.986332C1.72041 0.990216 1.46774 1.09916 1.28298 1.28924C1.09822 1.47931 0.996474 1.73495 1.0001 2V5.5C1.00042 5.75808 1.1005 6.00604 1.2794 6.19205C1.45831 6.37805 1.70219 6.48769 1.96006 6.49805C2.10834 6.53306 2.26266 6.53373 2.41123 6.5H5.5001C5.63261 6.50188 5.76417 6.4774 5.88714 6.42798C6.01011 6.37857 6.12203 6.30521 6.2164 6.21216C6.31077 6.11912 6.38571 6.00825 6.43685 5.88599C6.488 5.76373 6.51434 5.63253 6.51434 5.5C6.51434 5.36748 6.488 5.23628 6.43685 5.11402C6.38571 4.99176 6.31077 4.88089 6.2164 4.78784C6.12203 4.6948 6.01011 4.62144 5.88714 4.57203C5.76417 4.52261 5.63261 4.49813 5.5001 4.5H4.19444C5.6507 2.96229 7.70788 2 10.0001 2C14.4301 2 18.0001 5.56996 18.0001 10C18.0001 14.43 14.4301 18 10.0001 18C5.57005 18 2.0001 14.43 2.0001 10C2.00197 9.86749 1.97749 9.73593 1.92808 9.61296C1.87866 9.48999 1.8053 9.37807 1.71226 9.2837C1.61922 9.18933 1.50834 9.1144 1.38609 9.06325C1.26383 9.0121 1.13262 8.98576 1.0001 8.98576C0.867575 8.98576 0.736371 9.0121 0.614114 9.06325C0.491857 9.1144 0.380984 9.18933 0.28794 9.2837C0.194895 9.37807 0.121535 9.48999 0.072121 9.61296C0.0227073 9.73593 -0.00177404 9.86749 0.000100007 10C0.000100007 15.511 4.48914 20 10.0001 20C15.5111 20 20.0001 15.511 20.0001 10C20.0001 4.48905 15.5111 3.8147e-06 10.0001 3.8147e-06ZM9.98545 4.48633C9.7204 4.49022 9.46774 4.59916 9.28298 4.78924C9.09822 4.97931 8.99647 5.23496 9.0001 5.5V11C9.00012 11.2652 9.10549 11.5196 9.29302 11.7071C9.48055 11.8946 9.73489 12 10.0001 12H13.5001C13.6326 12.0019 13.7642 11.9774 13.8871 11.928C14.0101 11.8786 14.122 11.8052 14.2164 11.7122C14.3108 11.6191 14.3857 11.5082 14.4369 11.386C14.488 11.2637 14.5143 11.1325 14.5143 11C14.5143 10.8675 14.488 10.7363 14.4369 10.614C14.3857 10.4918 14.3108 10.3809 14.2164 10.2878C14.122 10.1948 14.0101 10.1214 13.8871 10.072C13.7642 10.0226 13.6326 9.99813 13.5001 10H11.0001V5.5C11.0019 5.3663 10.9769 5.23358 10.9266 5.10971C10.8762 4.98583 10.8015 4.87331 10.7069 4.77881C10.6123 4.6843 10.4997 4.60972 10.3758 4.55949C10.2519 4.50925 10.1192 4.48437 9.98545 4.48633Z" fill="#A5A5A5"/>
</svg>
