<svg width="33" height="35" viewBox="0 0 33 35" fill="none" xmlns="http://www.w3.org/2000/svg">
<path d="M9.19987 0.165039C9.04154 0.165039 8.88275 0.195313 8.73275 0.257813L5.05762 1.72428L1.79102 0.275716C1.39935 0.100716 0.957943 0.133529 0.599609 0.366862C0.249609 0.600195 0.0332031 0.991667 0.0332031 1.41667V27.25C0.0332031 29.775 2.09154 31.8333 4.61654 31.8333H15.1325C14.5408 30.7167 14.1999 29.4417 14.1999 28.0833C14.1999 27.3583 14.3081 26.6667 14.4831 26H5.44987C4.7582 26 4.19987 25.4417 4.19987 24.75C4.19987 24.0583 4.7582 23.5 5.44987 23.5H15.6745C16.4411 22.4333 17.4583 21.5671 18.6416 20.9837C18.0166 20.9171 17.5332 20.3917 17.5332 19.75C17.5332 19.0583 18.0915 18.5 18.7832 18.5H21.2832C21.7915 18.5 22.2325 18.8087 22.4242 19.2503C23.4825 17.9753 24.9832 17.1005 26.6999 16.8838V1.41667C26.6999 0.991667 26.4835 0.600195 26.1335 0.366862C25.7751 0.141862 25.3337 0.100716 24.9421 0.275716L21.6755 1.72428L18.0003 0.257813C17.7003 0.132812 17.3661 0.132812 17.0661 0.257813L13.3665 1.73405L9.66699 0.257813C9.51699 0.195313 9.3582 0.165039 9.19987 0.165039ZM5.44987 8.5H21.2832C21.9749 8.5 22.5332 9.05833 22.5332 9.75C22.5332 10.4417 21.9749 11 21.2832 11H5.44987C4.7582 11 4.19987 10.4417 4.19987 9.75C4.19987 9.05833 4.7582 8.5 5.44987 8.5ZM5.44987 18.5H13.7832C14.4749 18.5 15.0332 19.0583 15.0332 19.75C15.0332 20.4417 14.4749 21 13.7832 21H5.44987C4.7582 21 4.19987 20.4417 4.19987 19.75C4.19987 19.0583 4.7582 18.5 5.44987 18.5ZM27.5332 18.5C25.9832 18.5 24.5908 19.2081 23.6742 20.3164C27.2242 21.0331 29.9167 24.1077 30.0251 27.8327C31.5251 26.966 32.5332 25.35 32.5332 23.5C32.5332 20.7417 30.2915 18.5 27.5332 18.5ZM22.1165 21.8333C20.4589 21.8333 18.8692 22.4918 17.6971 23.6639C16.525 24.836 15.8665 26.4257 15.8665 28.0833C15.8665 29.7409 16.525 31.3307 17.6971 32.5028C18.8692 33.6749 20.4589 34.3333 22.1165 34.3333C23.7741 34.3333 25.3639 33.6749 26.536 32.5028C27.7081 31.3307 28.3665 29.7409 28.3665 28.0833C28.3665 26.4257 27.7081 24.836 26.536 23.6639C25.3639 22.4918 23.7741 21.8333 22.1165 21.8333Z" fill="#CBA977"/>
</svg>
