<svg width="33" height="33" viewBox="0 0 33 33" fill="none" xmlns="http://www.w3.org/2000/svg">
<path d="M28.8997 17.2648V4.74984C28.8997 2.22317 26.8439 0.166504 24.3164 0.166504H8.48307C5.95557 0.166504 3.89974 2.22317 3.89974 4.74984V17.2648C2.05141 17.3265 0.566406 18.8498 0.566406 20.7132C0.566406 21.8265 1.10724 22.8773 2.01307 23.5215L13.6481 31.8232C14.4714 32.4098 15.4356 32.7032 16.3997 32.7032C17.3639 32.7032 18.3289 32.409 19.1522 31.8223L30.7864 23.5223C31.6922 22.8765 32.2331 21.8257 32.2331 20.7123C32.2331 18.8498 30.7481 17.3265 28.8997 17.2648ZM17.5456 22.0415V23.1873C17.5456 23.8198 17.0331 24.3332 16.3997 24.3332C15.7664 24.3332 15.2539 23.8198 15.2539 23.1873V22.0373C13.8289 22.0265 12.5247 21.5057 11.5789 20.5598C11.1314 20.1123 11.1314 19.3873 11.5789 18.9398C12.0264 18.4923 12.7514 18.4923 13.1989 18.9398C13.5681 19.309 14.2331 19.7498 15.2972 19.7498H17.5456C18.4931 19.7498 19.2639 18.979 19.2639 18.0315C19.2639 17.084 18.4931 16.3132 17.5456 16.3132H15.5406C13.3297 16.3132 11.5306 14.514 11.5306 12.3032C11.5306 10.1898 13.1789 8.4715 15.2547 8.3215V7.1465C15.2539 6.51317 15.7664 5.99984 16.3997 5.99984C17.0331 5.99984 17.5456 6.51317 17.5456 7.14567V8.30817C19.3139 8.39817 20.4431 9.40984 20.7997 9.9615C21.1431 10.4932 20.9897 11.2023 20.4581 11.5457C19.9256 11.8865 19.2164 11.7357 18.8747 11.204V11.2048C18.8714 11.2048 18.3789 10.5832 17.3022 10.5832H15.5397C14.5922 10.5832 13.8214 11.354 13.8214 12.3015C13.8214 13.249 14.5922 14.0198 15.5397 14.0198H17.5447C19.7556 14.0198 21.5547 15.819 21.5547 18.0298C21.5547 20.2407 19.7564 22.0415 17.5456 22.0415Z" fill="#CBA977"/>
</svg>
