<svg width="36" height="34" viewBox="0 0 36 34" fill="none" xmlns="http://www.w3.org/2000/svg">
<path d="M4.08398 0.833496C2.00898 0.833496 0.333984 2.51683 0.333984 4.5835V23.7583C0.333984 25.825 2.01732 27.5083 4.08398 27.5083H15.8678C15.5178 26.4583 15.334 25.3335 15.334 24.1668C15.334 18.1835 20.184 13.3335 26.1673 13.3335C29.084 13.3335 31.7257 14.4842 33.6673 16.3592V4.5835C33.6673 2.51683 31.9923 0.833496 29.9173 0.833496H4.08398ZM9.50065 8.3335C10.884 8.3335 12.0007 9.4585 12.0007 10.8335C12.0007 12.2168 10.884 13.3335 9.50065 13.3335C8.11732 13.3335 7.00065 12.2168 7.00065 10.8335C7.00065 9.4585 8.11732 8.3335 9.50065 8.3335ZM19.9255 8.3335H27.4173L27.5833 8.34163C28.2 8.42497 28.6673 8.95016 28.6673 9.5835C28.6673 10.2168 28.2 10.742 27.5833 10.8254L27.4173 10.8335H19.9173L19.7513 10.8254C19.143 10.742 18.6755 10.2168 18.6755 9.5835C18.6755 8.95016 19.143 8.42497 19.7513 8.34163L19.9255 8.3335ZM6.58398 15.0002H12.4173L12.5833 15.0083C13.2 15.0916 13.6673 15.6168 13.6673 16.2502V17.0754L13.651 17.2495L13.6087 17.5083C13.2337 19.1916 11.7173 20.0002 9.50065 20.0002C7.16732 20.0002 5.61693 19.1078 5.35026 17.2495L5.33398 17.0672V16.2502L5.34212 16.0841C5.42546 15.4675 5.95065 15.0002 6.58398 15.0002ZM26.1673 15.0002C21.1048 15.0002 17.0007 19.1043 17.0007 24.1668C17.0007 29.2293 21.1048 33.3335 26.1673 33.3335C31.2298 33.3335 35.334 29.2293 35.334 24.1668C35.334 19.1043 31.2298 15.0002 26.1673 15.0002ZM31.1673 20.0002C31.3804 20.0002 31.5936 20.0814 31.7565 20.2443C32.0823 20.5701 32.0823 21.0969 31.7565 21.4227L25.0898 28.0894C24.9273 28.2519 24.714 28.3335 24.5007 28.3335C24.2873 28.3335 24.074 28.2519 23.9115 28.0894L20.5781 24.756C20.2523 24.4302 20.2523 23.9035 20.5781 23.5776C20.904 23.2518 21.4307 23.2518 21.7565 23.5776L24.5007 26.3218L30.5781 20.2443C30.741 20.0814 30.9542 20.0002 31.1673 20.0002Z" fill="#CBA977"/>
</svg>
