<svg width="41" height="27" viewBox="0 0 41 27" fill="none" xmlns="http://www.w3.org/2000/svg">
<path d="M20.8008 0C22.0855 0 23.2073 0.526778 23.9225 1.33138C24.6377 2.13598 24.9674 3.15972 24.9674 4.16667C24.9674 5.17361 24.6377 6.19735 23.9225 7.00195C23.2073 7.80656 22.0855 8.33333 20.8008 8.33333C19.5161 8.33333 18.3942 7.80656 17.679 7.00195C16.9638 6.19735 16.6341 5.17361 16.6341 4.16667C16.6341 3.15972 16.9638 2.13598 17.679 1.33138C18.3942 0.526778 19.5161 0 20.8008 0ZM20.8008 2.5C20.1411 2.5 19.8045 2.70239 19.5475 2.99154C19.2905 3.28068 19.1341 3.71528 19.1341 4.16667C19.1341 4.61806 19.2905 5.05265 19.5475 5.3418C19.8045 5.63094 20.1411 5.83333 20.8008 5.83333C21.4605 5.83333 21.797 5.63094 22.054 5.3418C22.3111 5.05265 22.4674 4.61806 22.4674 4.16667C22.4674 3.71528 22.3111 3.28068 22.054 2.99154C21.797 2.70239 21.4605 2.5 20.8008 2.5ZM33.3008 5C34.5855 5 35.7073 5.52678 36.4225 6.33138C37.1377 7.13598 37.4674 8.15972 37.4674 9.16667C37.4674 10.1736 37.1377 11.1974 36.4225 12.002C35.7073 12.8066 34.5855 13.3333 33.3008 13.3333C32.0161 13.3333 30.8942 12.8066 30.179 12.002C29.4638 11.1974 29.1341 10.1736 29.1341 9.16667C29.1341 8.15972 29.4638 7.13598 30.179 6.33138C30.8942 5.52678 32.0161 5 33.3008 5ZM8.30078 5C9.5855 5 10.7073 5.52678 11.4225 6.33138C12.1377 7.13598 12.4674 8.15972 12.4674 9.16667C12.4674 10.1736 12.1377 11.1974 11.4225 12.002C10.7073 12.8066 9.5855 13.3333 8.30078 13.3333C7.01606 13.3333 5.89424 12.8066 5.17904 12.002C4.46384 11.1974 4.13412 10.1736 4.13412 9.16667C4.13412 8.15972 4.46384 7.13598 5.17904 6.33138C5.89424 5.52678 7.01606 5 8.30078 5ZM33.3008 7.5C32.6411 7.5 32.3045 7.70239 32.0475 7.99154C31.7905 8.28068 31.6341 8.71528 31.6341 9.16667C31.6341 9.61806 31.7905 10.0526 32.0475 10.3418C32.3045 10.6309 32.6411 10.8333 33.3008 10.8333C33.9605 10.8333 34.297 10.6309 34.554 10.3418C34.8111 10.0526 34.9674 9.61806 34.9674 9.16667C34.9674 8.71528 34.8111 8.28068 34.554 7.99154C34.297 7.70239 33.9605 7.5 33.3008 7.5ZM8.30078 7.5C7.64106 7.5 7.30455 7.70239 7.04753 7.99154C6.79051 8.28068 6.63412 8.71528 6.63412 9.16667C6.63412 9.61806 6.79051 10.0526 7.04753 10.3418C7.30455 10.6309 7.64106 10.8333 8.30078 10.8333C8.9605 10.8333 9.29702 10.6309 9.55404 10.3418C9.81106 10.0526 9.96745 9.61806 9.96745 9.16667C9.96745 8.71528 9.81106 8.28068 9.55404 7.99154C9.29702 7.70239 8.9605 7.5 8.30078 7.5ZM25.7568 10C27.1468 10 28.3008 11.154 28.3008 12.5439V21.6243C28.3008 23.1484 27.3384 24.4608 25.9928 25.319C24.6473 26.1772 22.8622 26.6683 20.8008 26.6683C18.7394 26.6683 16.9559 26.1771 15.6104 25.319C14.2648 24.4609 13.3008 23.1486 13.3008 21.6243V12.5439C13.3008 11.154 14.4548 10 15.8447 10H25.7568ZM25.7568 12.5H15.8447C15.8064 12.5 15.8008 12.5056 15.8008 12.5439V21.6243C15.8008 22.0859 16.1031 22.6692 16.9531 23.2113C17.8032 23.7534 19.1446 24.1683 20.8008 24.1683C22.4568 24.1683 23.7983 23.7535 24.6484 23.2113C25.4985 22.669 25.8008 22.0853 25.8008 21.6243V12.5439C25.8008 12.5056 25.7952 12.5 25.7568 12.5ZM38.2568 15C39.6593 15 40.8008 18.6414 40.8008 20.0439V21.6243C40.8008 24.4993 37.5766 26.6683 33.3008 26.6683C31.3841 26.6683 29.6821 26.2299 28.3838 25.4899C29.388 24.4107 29.9674 23.0877 29.9674 21.6243V15H38.2568ZM11.6341 15V21.6243C11.6341 23.0868 12.2136 24.4107 13.2178 25.4899C11.9194 26.2299 10.2174 26.6683 8.30078 26.6683C4.02495 26.6683 0.800782 24.4993 0.800782 21.6243V20.0439C0.800782 18.6414 1.94223 15 3.34473 15H11.6341Z" fill="#CBA977"/>
<path d="M20.8008 2.5C20.1411 2.5 19.8045 2.70239 19.5475 2.99154C19.2905 3.28068 19.1341 3.71528 19.1341 4.16667C19.1341 4.61806 19.2905 5.05265 19.5475 5.3418C19.8045 5.63094 20.1411 5.83333 20.8008 5.83333C21.4605 5.83333 21.797 5.63094 22.054 5.3418C22.3111 5.05265 22.4674 4.61806 22.4674 4.16667C22.4674 3.71528 22.3111 3.28068 22.054 2.99154C21.797 2.70239 21.4605 2.5 20.8008 2.5Z" fill="#CBA977"/>
<path d="M25.7568 12.5H15.8447C15.8064 12.5 15.8008 12.5056 15.8008 12.5439V21.6243C15.8008 22.0859 16.1031 22.6692 16.9531 23.2113C17.8032 23.7534 19.1446 24.1683 20.8008 24.1683C22.4568 24.1683 23.7983 23.7535 24.6484 23.2113C25.4985 22.669 25.8008 22.0853 25.8008 21.6243V12.5439C25.8008 12.5056 25.7952 12.5 25.7568 12.5Z" fill="#CBA977"/>
<path d="M8.30078 7.5C7.64106 7.5 7.30455 7.70239 7.04753 7.99154C6.79051 8.28068 6.63412 8.71528 6.63412 9.16667C6.63412 9.61806 6.79051 10.0526 7.04753 10.3418C7.30455 10.6309 7.64106 10.8333 8.30078 10.8333C8.9605 10.8333 9.29702 10.6309 9.55404 10.3418C9.81106 10.0526 9.96745 9.61806 9.96745 9.16667C9.96745 8.71528 9.81106 8.28068 9.55404 7.99154C9.29702 7.70239 8.9605 7.5 8.30078 7.5Z" fill="#CBA977"/>
<path d="M33.3008 7.5C32.6411 7.5 32.3045 7.70239 32.0475 7.99154C31.7905 8.28068 31.6341 8.71528 31.6341 9.16667C31.6341 9.61806 31.7905 10.0526 32.0475 10.3418C32.3045 10.6309 32.6411 10.8333 33.3008 10.8333C33.9605 10.8333 34.297 10.6309 34.554 10.3418C34.8111 10.0526 34.9674 9.61806 34.9674 9.16667C34.9674 8.71528 34.8111 8.28068 34.554 7.99154C34.297 7.70239 33.9605 7.5 33.3008 7.5Z" fill="#CBA977"/>
</svg>
