<svg width="37" height="32" viewBox="0 0 37 32" fill="none" xmlns="http://www.w3.org/2000/svg">
<path d="M18.599 0.333496C17.592 0.333496 16.6785 0.756107 16.1022 1.40446C15.5259 2.05281 15.2656 2.86822 15.2656 3.66683C15.2656 4.00656 15.3397 4.34584 15.4381 4.67757L9.4095 9.50016H4.43229C2.13146 9.50016 0.265625 11.366 0.265625 13.6668V27.0002C0.265625 29.301 2.13146 31.1668 4.43229 31.1668H32.7656C35.0665 31.1668 36.9323 29.301 36.9323 27.0002V13.6668C36.9323 11.366 35.0665 9.50016 32.7656 9.50016H27.7884L21.7598 4.67757C21.8583 4.34584 21.9323 4.00656 21.9323 3.66683C21.9323 2.86822 21.672 2.05281 21.0957 1.40446C20.5194 0.756107 19.6059 0.333496 18.599 0.333496ZM18.599 2.8335C18.9809 2.8335 19.1091 2.93172 19.2272 3.06462C19.3453 3.19751 19.4323 3.42377 19.4323 3.66683C19.4323 3.90989 19.3453 4.13615 19.2272 4.26904C19.1091 4.40194 18.9809 4.50016 18.599 4.50016C18.217 4.50016 18.0888 4.40194 17.9707 4.26904C17.8526 4.13615 17.7656 3.90989 17.7656 3.66683C17.7656 3.42377 17.8526 3.19751 17.9707 3.06462C18.0888 2.93172 18.217 2.8335 18.599 2.8335ZM17.0397 6.59977C17.5072 6.83699 18.0261 7.00016 18.599 7.00016C19.1723 7.00016 19.6921 6.83737 20.1598 6.59977L23.7845 9.50016H13.4134L17.0397 6.59977ZM5.68229 15.3335C7.81979 15.3335 9.43229 16.8813 9.43229 18.9338C9.43229 20.9513 7.85479 22.4168 5.68229 22.4168C4.92229 22.4168 4.3931 22.576 4.1556 23.2502H8.39062C8.96562 23.2502 9.43229 23.7168 9.43229 24.2918C9.43229 24.8668 8.96646 25.3335 8.39062 25.3335H2.97396C2.39896 25.3335 1.93229 24.8668 1.93229 24.2918C1.93229 21.776 3.29896 20.3335 5.68229 20.3335C6.70979 20.3335 7.34896 19.7971 7.34896 18.9338C7.34896 17.8913 6.48479 17.4168 5.68229 17.4168C5.00146 17.4168 4.15594 17.6255 4.0026 18.618C3.9151 19.1872 3.38112 19.573 2.81445 19.4871C2.24612 19.3996 1.85698 18.8673 1.94531 18.299C2.22365 16.4973 3.69062 15.3335 5.68229 15.3335ZM12.1406 15.3335C12.7156 15.3335 13.1823 15.8002 13.1823 16.3752V19.9168H16.5156V16.3752C16.5156 15.8002 16.9823 15.3335 17.5573 15.3335C18.1323 15.3335 18.599 15.8002 18.599 16.3752V24.2918C18.599 24.8668 18.1323 25.3335 17.5573 25.3335C16.9823 25.3335 16.5156 24.8668 16.5156 24.2918V22.0002H12.1406C11.5656 22.0002 11.099 21.5335 11.099 20.9585V16.3752C11.099 15.8002 11.5656 15.3335 12.1406 15.3335ZM25.1012 15.3335C25.2365 15.3392 25.3733 15.3725 25.5033 15.4344C26.0241 15.6811 26.2463 16.3011 25.9997 16.8211L22.2497 24.7378C22.0713 25.1136 21.6957 25.3351 21.3057 25.3351C21.1565 25.3351 21.0055 25.3025 20.8613 25.2342C20.3413 24.9875 20.1191 24.3675 20.3649 23.8475L24.1149 15.9308C24.2993 15.5408 24.6955 15.3163 25.1012 15.3335ZM28.8073 15.3335H34.224C34.5815 15.3335 34.9137 15.516 35.1045 15.8185C35.2953 16.121 35.3188 16.4986 35.1663 16.8211L31.4163 24.7378C31.238 25.1136 30.8623 25.3335 30.4723 25.3335C30.3232 25.3335 30.1722 25.3009 30.028 25.2326C29.508 24.9859 29.2857 24.3659 29.5316 23.8459L32.5784 17.4152H28.8073C28.2323 17.4152 27.7656 16.9485 27.7656 16.3735C27.7656 15.7985 28.2323 15.3335 28.8073 15.3335Z" fill="#CBA977"/>
</svg>
