<svg width="76" height="76" viewBox="0 0 76 76" fill="none" xmlns="http://www.w3.org/2000/svg">
<path d="M61.7071 21.7071C61.3166 22.0976 60.6834 22.0976 60.2929 21.7071L56.2929 17.7071C55.9024 17.3166 55.9024 16.6834 56.2929 16.2929C56.6834 15.9024 57.3166 15.9024 57.7071 16.2929L60 18.5858V17C60 11.8933 58.7831 8.16597 56.6257 5.7247C54.4862 3.30375 51.2906 2 47 2L44 2C43.4477 2 43 1.55228 43 1C43 0.447716 43.4477 -1.19209e-07 44 0L47 2.38419e-07C51.7095 5.96047e-07 55.5138 1.44625 58.1243 4.4003C60.7169 7.33403 62 11.6067 62 17V18.5858L64.2929 16.2929C64.6834 15.9024 65.3166 15.9024 65.7071 16.2929C66.0976 16.6834 66.0976 17.3166 65.7071 17.7071L61.7071 21.7071Z" fill="url(#paint0_radial)"/>
<path d="M2 21C2 10.5066 10.5066 2 21 2C31.4934 2 40 10.5066 40 21C40 21.5523 40.4477 22 41 22C41.5523 22 42 21.5523 42 21C42 9.40202 32.598 1.78814e-06 21 1.78814e-06C9.40202 1.78814e-06 1.49012e-08 9.40202 1.49012e-08 21C1.49012e-08 32.598 9.40202 42 21 42C21.5523 42 22 41.5523 22 41C22 40.4477 21.5523 40 21 40C10.5066 40 2 31.4934 2 21Z" fill="url(#paint1_radial)"/>
<path d="M22 10C22 9.44772 21.5523 9 21 9C20.4477 9 20 9.44772 20 10V12H19.5777C17.0495 12 15 14.0495 15 16.5777C15 18.4496 16.1396 20.1329 17.8776 20.8281L23.3796 23.0289C24.3583 23.4203 25 24.3682 25 25.4223C25 26.8459 23.8459 28 22.4223 28H20C18.3431 28 17 26.6569 17 25C17 24.4477 16.5523 24 16 24C15.4477 24 15 24.4477 15 25C15 27.7614 17.2386 30 20 30V32C20 32.5523 20.4477 33 21 33C21.5523 33 22 32.5523 22 32V30H22.4223C24.9505 30 27 27.9505 27 25.4223C27 23.5504 25.8604 21.8671 24.1224 21.1719L18.6204 18.9711C17.6417 18.5797 17 17.6318 17 16.5777C17 15.1541 18.1541 14 19.5777 14H22C23.6569 14 25 15.3431 25 17C25 17.5523 25.4477 18 26 18C26.5523 18 27 17.5523 27 17C27 14.2386 24.7614 12 22 12V10Z" fill="url(#paint2_radial)"/>
<path fill-rule="evenodd" clip-rule="evenodd" d="M50 26C45.0188 26 40.3948 27.5164 36.5607 30.1127C36.1034 30.4224 35.4816 30.3027 35.172 29.8454C34.8623 29.3881 34.982 28.7663 35.4393 28.4566C39.594 25.6433 44.6066 24 50 24C57.4441 24 64.1589 27.1298 68.8973 32.1424C69.2692 32.5358 69.2605 33.1537 68.8777 33.5365L63 39.4142V49.083C65.8377 49.559 68 52.027 68 55C68 58.3137 65.3137 61 62 61C58.6863 61 56 58.3137 56 55C56 52.027 58.1623 49.559 61 49.083V39C61 38.7348 61.1054 38.4804 61.2929 38.2929L66.7622 32.8236C62.4355 28.6005 56.5222 26 50 26ZM62 51C59.7909 51 58 52.7909 58 55C58 57.2091 59.7909 59 62 59C64.2091 59 66 57.2091 66 55C66 52.7909 64.2091 51 62 51Z" fill="url(#paint3_radial)"/>
<path fill-rule="evenodd" clip-rule="evenodd" d="M31.8153 31.8295C32.0854 31.8257 32.3455 31.9313 32.5365 32.1223L38.7071 38.2929C38.8946 38.4804 39 38.7348 39 39V49.083C41.8377 49.559 44 52.027 44 55C44 58.3137 41.3137 61 38 61C34.6863 61 32 58.3137 32 55C32 52.027 34.1623 49.559 37 49.083V39.4142L31.865 34.2793C28.2105 38.4911 26 43.9864 26 50C26 63.2548 36.7452 74 50 74C50.9755 74 51.937 73.9418 52.8813 73.8289C53.4296 73.7633 53.9273 74.1547 53.9929 74.7031C54.0585 75.2515 53.6671 75.7492 53.1187 75.8148C52.0958 75.9371 51.055 76 50 76C35.6406 76 24 64.3594 24 50C24 43.0853 26.7006 36.7992 31.1027 32.1424C31.2882 31.9461 31.5452 31.8333 31.8153 31.8295ZM38 51C35.7909 51 34 52.7909 34 55C34 57.2091 35.7909 59 38 59C40.2091 59 42 57.2091 42 55C42 52.7909 40.2091 51 38 51Z" fill="url(#paint4_radial)"/>
<path fill-rule="evenodd" clip-rule="evenodd" d="M44 40C44 36.6863 46.6863 34 50 34C53.3137 34 56 36.6863 56 40C56 42.973 53.8377 45.441 51 45.917V50C51 50.5523 50.5523 51 50 51C49.4477 51 49 50.5523 49 50V45.917C46.1623 45.441 44 42.973 44 40ZM50 36C47.7909 36 46 37.7909 46 40C46 42.2091 47.7909 44 50 44C52.2091 44 54 42.2091 54 40C54 37.7909 52.2091 36 50 36Z" fill="url(#paint5_radial)"/>
<path d="M70.4565 35.5905C70.9201 35.2903 71.5392 35.4227 71.8394 35.8863C74.4717 39.9515 76 44.7988 76 50C76 61.2521 68.8527 70.8324 58.8536 74.4534C58.4888 74.5855 58.0804 74.4946 57.806 74.2202L49.2929 65.7071C49.1054 65.5196 49 65.2652 49 65V62C49 61.4477 49.4477 61 50 61C50.5523 61 51 61.4477 51 62V64.5858L58.764 72.3498C67.6857 68.8486 74 60.1605 74 50C74 45.196 72.5896 40.7246 70.1606 36.9734C69.8604 36.5098 69.9929 35.8906 70.4565 35.5905Z" fill="url(#paint6_radial)"/>
<path d="M5.70711 42.2929C5.31658 41.9024 4.68342 41.9024 4.29289 42.2929L0.292893 46.2929C-0.0976311 46.6834 -0.0976311 47.3166 0.292893 47.7071C0.683417 48.0976 1.31658 48.0976 1.70711 47.7071L4 45.4142V47C4 52.3933 5.28307 56.666 7.87567 59.5997C10.4862 62.5538 14.2905 64 19 64H22C22.5523 64 23 63.5523 23 63C23 62.4477 22.5523 62 22 62H19C14.7095 62 11.5138 60.6962 9.37433 58.2753C7.21693 55.834 6 52.1067 6 47V45.4142L8.29289 47.7071C8.68342 48.0976 9.31658 48.0976 9.70711 47.7071C10.0976 47.3166 10.0976 46.6834 9.70711 46.2929L5.70711 42.2929Z" fill="url(#paint7_radial)"/>
<path d="M50 55C50.5523 55 51 55.4477 51 56C51 56.5523 50.5523 57 50 57C49.4477 57 49 56.5523 49 56C49 55.4477 49.4477 55 50 55Z" fill="url(#paint8_radial)"/>
<defs>
<radialGradient id="paint0_radial" cx="0" cy="0" r="1" gradientUnits="userSpaceOnUse" gradientTransform="translate(-2.26498e-06 76) rotate(-45) scale(107.48)">
<stop stop-color="#FF661A"/>
<stop offset="1" stop-color="#BF00E6"/>
</radialGradient>
<radialGradient id="paint1_radial" cx="0" cy="0" r="1" gradientUnits="userSpaceOnUse" gradientTransform="translate(-2.26498e-06 76) rotate(-45) scale(107.48)">
<stop stop-color="#FF661A"/>
<stop offset="1" stop-color="#BF00E6"/>
</radialGradient>
<radialGradient id="paint2_radial" cx="0" cy="0" r="1" gradientUnits="userSpaceOnUse" gradientTransform="translate(-2.26498e-06 76) rotate(-45) scale(107.48)">
<stop stop-color="#FF661A"/>
<stop offset="1" stop-color="#BF00E6"/>
</radialGradient>
<radialGradient id="paint3_radial" cx="0" cy="0" r="1" gradientUnits="userSpaceOnUse" gradientTransform="translate(-2.26498e-06 76) rotate(-45) scale(107.48)">
<stop stop-color="#FF661A"/>
<stop offset="1" stop-color="#BF00E6"/>
</radialGradient>
<radialGradient id="paint4_radial" cx="0" cy="0" r="1" gradientUnits="userSpaceOnUse" gradientTransform="translate(-2.26498e-06 76) rotate(-45) scale(107.48)">
<stop stop-color="#FF661A"/>
<stop offset="1" stop-color="#BF00E6"/>
</radialGradient>
<radialGradient id="paint5_radial" cx="0" cy="0" r="1" gradientUnits="userSpaceOnUse" gradientTransform="translate(-2.26498e-06 76) rotate(-45) scale(107.48)">
<stop stop-color="#FF661A"/>
<stop offset="1" stop-color="#BF00E6"/>
</radialGradient>
<radialGradient id="paint6_radial" cx="0" cy="0" r="1" gradientUnits="userSpaceOnUse" gradientTransform="translate(-2.26498e-06 76) rotate(-45) scale(107.48)">
<stop stop-color="#FF661A"/>
<stop offset="1" stop-color="#BF00E6"/>
</radialGradient>
<radialGradient id="paint7_radial" cx="0" cy="0" r="1" gradientUnits="userSpaceOnUse" gradientTransform="translate(-2.26498e-06 76) rotate(-45) scale(107.48)">
<stop stop-color="#FF661A"/>
<stop offset="1" stop-color="#BF00E6"/>
</radialGradient>
<radialGradient id="paint8_radial" cx="0" cy="0" r="1" gradientUnits="userSpaceOnUse" gradientTransform="translate(-2.26498e-06 76) rotate(-45) scale(107.48)">
<stop stop-color="#FF661A"/>
<stop offset="1" stop-color="#BF00E6"/>
</radialGradient>
</defs>
</svg>
