<svg width="16" height="20" viewBox="0 0 16 20" fill="none" xmlns="http://www.w3.org/2000/svg">
<path d="M2.25 0C1.0075 0 0 1.0075 0 2.25V17.75C0 18.9925 1.0075 20 2.25 20H13.75C14.9925 20 16 18.9925 16 17.75V8H10.25C9.0075 8 8 6.9925 8 5.75V0H2.25ZM9.5 0.439453V5.75C9.5 6.1635 9.8365 6.5 10.25 6.5H15.5605L9.5 0.439453ZM4.25 10C4.9405 10 5.5 10.5595 5.5 11.25C5.5 11.9405 4.9405 12.5 4.25 12.5C3.5595 12.5 3 11.9405 3 11.25C3 10.5595 3.5595 10 4.25 10ZM7.75 10.5H12.25C12.664 10.5 13 10.836 13 11.25C13 11.664 12.664 12 12.25 12H7.75C7.336 12 7 11.664 7 11.25C7 10.836 7.336 10.5 7.75 10.5ZM4.25 14C4.9405 14 5.5 14.5595 5.5 15.25C5.5 15.9405 4.9405 16.5 4.25 16.5C3.5595 16.5 3 15.9405 3 15.25C3 14.5595 3.5595 14 4.25 14ZM7.75 14.5H12.25C12.664 14.5 13 14.836 13 15.25C13 15.664 12.664 16 12.25 16H7.75C7.336 16 7 15.664 7 15.25C7 14.836 7.336 14.5 7.75 14.5Z" fill="#CBA977"/>
</svg>
