<svg width="65" height="65" viewBox="0 0 65 65" fill="none" xmlns="http://www.w3.org/2000/svg">
<path d="M32.5 0C14.553 0 0 14.554 0 32.5C0 50.449 14.553 65 32.5 65C50.448 65 65 50.449 65 32.5C65 14.554 50.448 0 32.5 0ZM32.5 60C17.336 60 5 47.664 5 32.5C5 17.336 17.336 5 32.5 5C47.664 5 60 17.336 60 32.5C60 47.664 47.664 60 32.5 60Z" fill="#D1D3D5"/>
<path d="M43.061 32.563C44.271 31.03 44.75 29.1 44.75 27C44.75 23.091 42.5 19.765 38.5 18.525V15.5C38.5 14.119 37.381 13 36 13C34.619 13 33.5 14.119 33.5 15.5V18.5H29.5V15.5C29.5 14.119 28.381 13 27 13C25.619 13 24.5 14.119 24.5 15.5V18.5H19.5C18.119 18.5 17 19.619 17 21C17 22.381 18.119 23.5 19.5 23.5H24.5V44.5H19.5C18.119 44.5 17 45.619 17 47C17 48.381 18.119 49.5 19.5 49.5H24.5V50.5C24.5 51.881 25.619 53 27 53C28.381 53 29.5 51.881 29.5 50.5V49.5H33.5V50.5C33.5 51.881 34.619 53 36 53C37.381 53 38.5 51.881 38.5 50.5V48.941C43.5 48.441 46.75 44.624 46.75 40C46.75 36.913 45.437 34.186 43.061 32.563ZM36 23.5C38.209 23.5 40 25.291 40 27.5C40 29.709 38.209 31.5 36 31.5H29.5V23.5H36ZM37.5 44V44.051C37.5 44.018 37.672 44.5 37.5 44.5H29.5V36.5H38C40.209 36.5 41.75 38.041 41.75 40.25C41.75 42.459 40.5 44 37.5 44Z" fill="#D1D3D5"/>
</svg>
