<svg width="16" height="20" viewBox="0 0 16 20" fill="none" xmlns="http://www.w3.org/2000/svg">
<path d="M15.25 17.5C15.664 17.5 16 17.1645 16 16.75V2.25C16 1.0095 14.9905 3.8147e-06 13.75 3.8147e-06H2.25C1.0095 3.8147e-06 0 1.0095 0 2.25V17.75C0 18.9905 1.0095 20 2.25 20H15.25C15.664 20 16 19.6645 16 19.25C16 18.8355 15.664 18.5 15.25 18.5H2.25C1.8365 18.5 1.5 18.1635 1.5 17.75V17.5H15.25ZM4.75 5H11.25C11.664 5 12 5.3355 12 5.75C12 6.1645 11.664 6.5 11.25 6.5H4.75C4.336 6.5 4 6.1645 4 5.75C4 5.3355 4.336 5 4.75 5Z" fill="#A5A5A5"/>
</svg>
