<svg width="18" height="18" viewBox="0 0 18 18" fill="none" xmlns="http://www.w3.org/2000/svg">
<path d="M15.3634 2.63036C13.6636 0.934137 11.4037 0 9 0C6.5963 0 4.33638 0.934137 2.63658 2.63036C0.936352 4.327 0 6.58287 0 8.98246V9.01754C0 11.4171 0.936352 13.673 2.63658 15.3696C4.33638 17.0659 6.5963 18 9 18C11.4037 18 13.6636 17.0659 15.3634 15.3696C17.0636 13.673 18 11.4171 18 9.01754V8.98246C18 6.58287 17.0636 4.327 15.3634 2.63036ZM16.5938 9.01754C16.5938 13.1951 13.1872 16.5938 9 16.5938C4.81279 16.5938 1.40625 13.1951 1.40625 9.01754V8.98246C1.40625 4.80491 4.81279 1.40625 9 1.40625C13.1872 1.40625 16.5938 4.80491 16.5938 8.98246V9.01754Z" fill="#CBA977"/>
<path d="M9 4.5C6.5187 4.5 4.5 6.5187 4.5 9C4.5 11.4813 6.5187 13.5 9 13.5C11.4813 13.5 13.5 11.4813 13.5 9C13.5 6.5187 11.4813 4.5 9 4.5ZM9 12.06C7.31272 12.06 5.94 10.6873 5.94 9C5.94 7.31272 7.31272 5.94 9 5.94C10.6873 5.94 12.06 7.31272 12.06 9C12.06 10.6873 10.6873 12.06 9 12.06Z" fill="#CBA977"/>
<path d="M9 12.06C7.31272 12.06 5.94 10.6873 5.94 9C5.94 7.31272 7.31272 5.94 9 5.94C10.6873 5.94 12.06 7.31272 12.06 9C12.06 10.6873 10.6873 12.06 9 12.06Z" fill="#CBA977"/>
</svg>
