<svg width="16" height="20" viewBox="0 0 16 20" fill="none" xmlns="http://www.w3.org/2000/svg">
<path d="M2.25 0C1.01625 0 0 1.01625 0 2.25V17.75C0 18.9838 1.01625 20 2.25 20H13.75C14.9838 20 16 18.9838 16 17.75V7.25C16 7.0511 15.9209 6.86036 15.7803 6.71973L15.7725 6.71191L9.28027 0.219727C9.13964 0.0790744 8.9489 3.82642e-05 8.75 0H2.25ZM2.25 1.5H8V5.75C8 6.98375 9.01625 8 10.25 8H14.5V17.75C14.5 18.1733 14.1732 18.5 13.75 18.5H2.25C1.82675 18.5 1.5 18.1733 1.5 17.75V2.25C1.5 1.82675 1.82675 1.5 2.25 1.5ZM9.5 2.56055L13.4395 6.5H10.25C9.82675 6.5 9.5 6.17325 9.5 5.75V2.56055Z" fill="#CBA977"/>
</svg>
