<svg width="12" height="12" viewBox="0 0 12 12" fill="none" xmlns="http://www.w3.org/2000/svg">
	<g opacity="0.4" clip-path="url(#clip0_170:566)">
		<path d="M9.99048 4.99785H9.49128V3.49815C9.49128 1.56525 7.92618 -0.00195312 5.99583 -0.00195312C4.06548 -0.00195312 2.50053 1.56525 2.50053 3.49815V4.99785H2.00133C1.45008 4.99785 1.00293 5.44605 1.00293 5.9982V10.9981C1.00293 11.5506 1.44978 11.998 2.00133 11.998H9.99048C10.5419 11.998 10.9889 11.5495 10.9889 10.9981V5.9982C10.9889 5.4456 10.5417 4.99785 9.99048 4.99785ZM7.99308 4.99785H3.99828V3.49815C3.99828 2.39385 4.89273 1.49835 5.99568 1.49835C7.09848 1.49835 7.99308 2.39385 7.99308 3.49815V4.99785Z" fill="#8B9296" />
	</g>
	<defs>
		<clipPath id="clip0_170:566">
			<rect width="12" height="12" fill="white" />
		</clipPath>
	</defs>
</svg>
