<svg width="28" height="28" viewBox="0 0 28 28" fill="none" xmlns="http://www.w3.org/2000/svg">
<path d="M27.188 14C27.188 14.828 26.507 15.5 25.667 15.5H14.52C13.68 15.5 13 14.828 13 14C13 13.172 13.68 12.5 14.52 12.5H25.667C26.507 12.5 27.188 13.172 27.188 14Z" fill="#BBBEC1"/>
<path d="M25.8029 15.182C25.2179 15.768 25.2679 15.768 24.6819 15.182L20.4399 10.94C19.8529 10.354 19.8539 9.40403 20.4399 8.81803C21.0249 8.23303 21.9749 8.23203 22.5609 8.81803L26.8029 13.061C27.3889 13.646 26.3889 14.597 25.8029 15.182Z" fill="#BBBEC1"/>
<path d="M25.8029 12.9006C26.3889 13.4856 27.3889 14.4356 26.8029 15.0216L22.5609 19.2636C21.9749 19.8506 21.0249 19.8496 20.4399 19.2636C19.8539 18.6786 19.8529 17.7286 20.4399 17.1426L24.6819 12.9006C25.2679 12.3146 26.2179 13.3146 26.8029 13.9006L25.8029 12.9006Z" fill="#BBBEC1"/>
<path d="M21.715 22.428C21.715 25.505 19.22 27 16.144 27H9.571C6.495 27 4 24.505 4 21.428V6.571C4 3.495 6.495 1 9.571 1H16.143C19.219 1 21.714 2.495 21.714 5.571" stroke="#BBBEC1" stroke-width="2" stroke-miterlimit="10" stroke-linecap="round" stroke-linejoin="round"/>
</svg>
