<svg width="77" height="19" viewBox="0 0 77 19" fill="none" xmlns="http://www.w3.org/2000/svg">
<path d="M10.056 18.336C8.296 18.336 6.712 17.968 5.304 17.232C3.912 16.48 2.816 15.44 2.016 14.112C1.216 12.784 0.816 11.28 0.816 9.6C0.816 7.92 1.216 6.416 2.016 5.088C2.816 3.76 3.912 2.728 5.304 1.992C6.712 1.24 8.296 0.863999 10.056 0.863999C11.592 0.863999 12.976 1.136 14.208 1.68C15.44 2.224 16.464 3.008 17.28 4.032L14.256 6.768C13.168 5.456 11.848 4.8 10.296 4.8C9.384 4.8 8.568 5 7.848 5.4C7.144 5.8 6.592 6.368 6.192 7.104C5.808 7.824 5.616 8.656 5.616 9.6C5.616 10.544 5.808 11.384 6.192 12.12C6.592 12.84 7.144 13.4 7.848 13.8C8.568 14.2 9.384 14.4 10.296 14.4C11.848 14.4 13.168 13.744 14.256 12.432L17.28 15.168C16.464 16.192 15.44 16.976 14.208 17.52C12.976 18.064 11.592 18.336 10.056 18.336ZM21.7987 1.2H29.7428C31.5828 1.2 33.2148 1.544 34.6388 2.232C36.0627 2.92 37.1667 3.896 37.9508 5.16C38.7348 6.424 39.1268 7.904 39.1268 9.6C39.1268 11.296 38.7348 12.776 37.9508 14.04C37.1667 15.304 36.0627 16.28 34.6388 16.968C33.2148 17.656 31.5828 18 29.7428 18H21.7987V1.2ZM29.5507 14.208C30.9907 14.208 32.1427 13.8 33.0067 12.984C33.8867 12.168 34.3267 11.04 34.3267 9.6C34.3267 8.16 33.8867 7.032 33.0067 6.216C32.1427 5.4 30.9907 4.992 29.5507 4.992H26.5507V14.208H29.5507ZM57.0589 15.912V18H44.8669V1.2H56.7229V3.288H47.2669V8.448H55.6909V10.488H47.2669V15.912H57.0589ZM73.7175 18L68.6775 11.064L63.7095 18H60.9495L67.2615 9.384L61.3335 1.2H64.0695L68.7735 7.656L73.4295 1.2H76.0455L70.1175 9.312L76.4775 18H73.7175Z" fill="white"/>
</svg>
