<svg width="158" height="32" viewBox="0 0 158 32" fill="none" xmlns="http://www.w3.org/2000/svg">
<path d="M29.0462 16.0001L29.3025 15.743C32.899 12.1466 32.8993 6.29443 29.3025 2.69761C25.7057 -0.899205 19.8536 -0.899205 16.2568 2.69761L16 2.95397L15.7437 2.69761C12.1469 -0.899205 6.29439 -0.899205 2.69757 2.69761C-0.89925 6.29443 -0.899249 12.1466 2.69793 15.743L2.95428 16.0001L2.69793 16.2564C-0.899249 19.8533 -0.89925 25.705 2.69757 29.3026C6.29475 32.899 12.1472 32.899 15.7437 29.3026L16 29.0459L16.2568 29.3026C19.8536 32.899 25.7057 32.899 29.3025 29.3026C32.8993 25.705 32.899 19.8533 29.3025 16.2564L29.0462 16.0001ZM17.3924 3.83362C20.3627 0.863294 25.1958 0.863294 28.1658 3.83362C31.1361 6.80395 31.1361 11.6374 28.1662 14.6074L19.5179 23.2556C18.8559 23.918 18.6945 24.7038 19.4792 25.4977L19.7746 25.7843C21.4315 27.4412 24.1274 27.4412 25.7843 25.7843C27.4412 24.1274 27.4412 21.4312 25.7846 19.7743L25.5279 19.5176L26.1505 18.8954L26.4072 19.1521C28.4079 21.1521 28.4079 24.4072 26.4072 26.4073C24.4072 28.4073 21.1517 28.4073 19.1517 26.4073C19.1517 26.4073 19.0258 26.3013 18.8555 26.1299C18.6991 25.971 17.1407 24.388 18.8953 22.633L27.5432 13.9848C30.1704 11.3579 30.1704 7.08377 27.5432 4.45656C24.9164 1.83005 20.6426 1.83005 18.0157 4.45691L17.7586 4.71327L17.1357 4.09069L17.3924 3.83362ZM24.6483 24.6487C23.6175 25.6787 21.9407 25.6787 20.9099 24.6487L20.6536 24.392L24.3916 20.654L24.6483 20.91C25.6787 21.9411 25.6787 23.6176 24.6483 24.6487ZM3.83358 3.83362C6.8039 0.863294 11.6374 0.863294 14.6077 3.83362L23.2552 12.4811L22.6323 13.1048L13.9844 4.45656C11.3572 1.8297 7.08373 1.8297 4.45687 4.45656C1.82965 7.08342 1.82965 11.3576 4.45687 13.9844L4.71323 14.2411L4.09029 14.8641L3.83358 14.6077C0.863249 11.6374 0.863249 6.8043 3.83358 3.83362ZM20.6539 7.60786L20.9103 7.35115C21.9407 6.32075 23.6175 6.32075 24.6486 7.35115C25.6787 8.38156 25.6787 10.058 24.6486 11.0895L24.3919 11.3458L20.6539 7.60786ZM7.03999 18.9498L6.21546 19.774C4.5582 21.4309 4.55856 24.1271 6.21546 25.784C7.872 27.4409 10.5682 27.4409 12.2251 25.784L12.4818 25.5273C13.7479 24.2618 12.224 23.0014 11.4909 22.2679L11.0134 21.7864L8.74383 19.5169L9.36676 18.8947L12.3854 21.913L12.6237 22.1519C14.8431 24.3703 13.2768 25.9777 13.1047 26.1498L12.848 26.4065C10.8477 28.4076 7.59289 28.4066 5.59216 26.4065C3.59215 24.4065 3.59215 21.1514 5.59252 19.1507L14.2411 10.5028L14.8637 11.1265L10.5575 15.4319L7.03999 18.9498ZM7.60782 20.6543L11.3458 24.3912L11.0891 24.6483C10.0583 25.6784 8.38187 25.6791 7.35146 24.6483C6.32106 23.6179 6.32106 21.9407 7.35146 20.9103L7.60782 20.6543ZM15.9997 12.2621L19.7373 16.0001L15.9997 19.7374L12.2617 16.0001L15.9997 12.2621ZM12.2254 6.21586C10.5685 4.55825 7.87235 4.55896 6.21581 6.21586C4.55891 7.87204 4.55856 10.5686 6.21581 12.2255L6.47217 12.4822L5.84923 13.1048L5.59252 12.8484C3.59215 10.8477 3.59251 7.59293 5.59252 5.59221C7.59324 3.5922 10.848 3.59184 12.8484 5.59221L21.4966 14.2404L20.8737 14.8634L12.2254 6.21586ZM11.3458 7.60822L7.60782 11.3458L7.35146 11.0895C6.3207 10.0587 6.3207 8.38191 7.35111 7.35115C8.38151 6.32075 10.0583 6.32075 11.0891 7.35186L11.3458 7.60822ZM28.1658 28.1662C25.1958 31.1365 20.3627 31.1365 17.3924 28.1662L17.0692 27.8771C16.9988 27.8064 16.4032 27.2147 15.9645 26.3006C15.5552 27.1646 15.0119 27.757 14.8644 27.9095L14.6077 28.1662C11.6374 31.1365 6.8039 31.1365 3.83358 28.1662C0.863249 25.1959 0.863249 20.3628 3.83358 17.3917L12.4818 8.74423L13.1047 9.36752L4.45687 18.0154C1.82965 20.6426 1.82965 24.9164 4.45687 27.5433C7.08373 30.1705 11.3575 30.1705 13.9844 27.5433L14.255 27.2723C14.9369 26.5644 15.4518 25.4718 15.4898 24.3464C15.4898 24.3134 15.4923 24.2803 15.493 24.248C15.5008 23.3683 15.2128 22.4769 14.4761 21.7395C14.0196 21.283 13.1037 20.367 13.1037 20.367L12.9718 20.2266L10.5035 17.7587L11.1264 17.1354L14.5728 20.5818L14.8619 20.8762C15.3732 21.3879 15.7362 21.897 15.9858 22.3941C16.2365 21.9148 16.592 21.4234 17.0888 20.9263L17.1364 20.8737L25.785 12.2258C27.4415 10.5689 27.4415 7.8724 25.7846 6.2155C24.1281 4.5586 21.4319 4.5586 19.775 6.2155L19.5183 6.47257L18.8957 5.84963L19.1521 5.59256C21.1521 3.59255 24.4076 3.59255 26.4076 5.59256C28.4083 7.59329 28.4083 10.8481 26.4076 12.8481L17.7583 21.4967L17.4856 21.7704C15.7547 23.5013 16.4345 25.9799 17.7003 27.245L18.0153 27.5433C20.6422 30.1705 24.916 30.1705 27.5429 27.5433C30.1701 24.9164 30.1701 20.6426 27.5429 18.0154L27.2862 17.7587L27.9091 17.1354L28.1658 17.3925C31.1361 20.3628 31.1361 25.1955 28.1658 28.1662Z" fill="url(#paint0_linear_2160_11143)"/>
<path d="M44 16.918C44 21.0492 47.0501 23.9344 52.3824 23.9344C54.9498 23.9344 57.0563 23.1694 58.4168 21.224L58.6143 23.6066H60.3917V15.6503H53.1504V17.7049H57.5171L57.4732 18.0328C57.0563 20.153 55.1253 21.3333 52.3824 21.3333C49.0031 21.3333 47.1818 19.6066 47.1818 16.918V15.1694C47.1818 11.7377 48.8934 10.6011 52.3824 10.6011C55.1911 10.6011 56.7491 11.3443 57.2538 13.2459H60.4795C59.7992 9.48634 56.6833 8 52.3824 8C47.3793 8 44 10.0546 44 15.1694V16.918Z" fill="black"/>
<path d="M62.358 18.8197C62.358 21.8579 64.706 23.9563 68.6119 23.9563C72.5178 23.9563 74.9097 21.8579 74.9097 18.8197V17.5956C74.9097 13.8142 72.2765 12.3279 68.6119 12.3279C64.9474 12.3279 62.358 13.8142 62.358 17.5956V18.8197ZM71.9254 18.8197C71.9254 20.4809 70.7624 21.5519 68.6119 21.5519C66.4615 21.5519 65.3423 20.5246 65.3423 18.8197V17.5956C65.3423 15.4317 66.3517 14.7541 68.6119 14.7541C70.916 14.7541 71.9254 15.4098 71.9254 17.5956V18.8197Z" fill="black"/>
<path d="M76.9528 8.30601V23.6066H79.9371V8.30601H76.9528Z" fill="black"/>
<path d="M90.9552 8.30601V14.2951C90.1433 13.0055 88.7609 12.2842 86.6105 12.306C83.9772 12.3497 81.6732 13.7923 81.6732 17.5301V18.7322C81.6732 22.0546 84.1309 24 87.0274 24C88.8267 23.9781 90.2531 23.3005 91.3722 21.7486L91.5697 23.6284H93.9395V8.30601H90.9552ZM90.9552 18.7322C90.9552 20.4809 89.9239 21.4863 87.8173 21.4863C85.7327 21.4863 84.6575 20.4809 84.6575 18.7322V17.5301C84.6575 15.3443 85.6449 14.6667 87.8173 14.6667C90.0117 14.6667 90.9552 15.3443 90.9552 17.5301V18.7322Z" fill="black"/>
<path d="M95.9878 18.8197C96.0098 21.8579 98.3577 23.9563 102.264 23.9563C105.533 23.9563 107.684 22.5137 108.342 20.153H105.314C105.116 21.2022 103.975 22.0328 102.242 22.0328C100.091 22.0328 98.9721 21.0055 98.9721 19.3005V18.7322H108.517L108.539 18.3169V17.5956C108.539 13.8142 105.906 12.3279 102.242 12.3279C98.5991 12.3279 95.9878 13.8142 95.9878 17.5956V18.8197ZM98.9721 17.0929C98.9721 15.1038 99.9815 14.2514 102.242 14.2514C104.546 14.2514 105.555 15.082 105.555 17.0929H98.9721Z" fill="black"/>
<path d="M113.106 12.6776H110.472V23.6066H113.457V17.5956C113.457 15.6066 114.4 14.7541 116.551 14.7541C118.745 14.7541 119.359 15.6066 119.359 17.5956V23.6066H122.322V17.2896C122.322 13.7705 120.325 12.3279 117.582 12.3279C115.651 12.3279 114.137 12.9617 113.106 14.6448V12.6776Z" fill="black"/>
<path d="M130.841 8.32787V23.6066H137.731C141.835 23.6066 144.644 22.3825 144.644 19.847V18.8634C144.644 17.2678 143.481 16.0219 141.747 15.6503C143.086 15.3005 144.292 14.2732 144.292 12.8087V12.153C144.292 9.28962 141.769 8.32787 138.148 8.32787H130.841ZM141.22 13.0055C141.22 13.8798 140.233 14.5137 138.412 14.5137H134.023V10.8197H138.412C140.123 10.8197 141.22 11.3224 141.22 12.3934V13.0055ZM141.593 19.388C141.593 20.3934 140.299 21.1148 138.017 21.1148H134.023V16.8962H138.017C140.255 16.8962 141.593 17.4863 141.593 18.7104V19.388Z" fill="black"/>
<path d="M146.674 8.13115V10.9071H149.636V8.13115H146.674ZM146.674 12.6776V23.6066H149.636V12.6776H146.674Z" fill="black"/>
<path d="M152.799 9.79235V12.6776H150.978V14.5355H152.799V21.3989C152.799 23.235 154.05 23.8033 155.828 23.8033H158V21.9235H157.254C156.003 21.9235 155.784 21.3333 155.784 20.8962V14.5355H158V12.6776H155.784V9.79235H152.799Z" fill="black"/>
<defs>
<linearGradient id="paint0_linear_2160_11143" x1="0" y1="0" x2="32" y2="0" gradientUnits="userSpaceOnUse">
<stop stop-color="#B88746"/>
<stop offset="1" stop-color="#FFD12D"/>
</linearGradient>
</defs>
</svg>
