<svg width="24" height="24" viewBox="0 0 24 24" fill="none" xmlns="http://www.w3.org/2000/svg">
<path d="M2.39945 3.83994C2.27224 3.83814 2.14594 3.86164 2.02789 3.90908C1.90984 3.95652 1.8024 4.02694 1.7118 4.11627C1.62121 4.20559 1.54927 4.31203 1.50017 4.42939C1.45107 4.54676 1.42578 4.67272 1.42578 4.79994C1.42578 4.92716 1.45107 5.05312 1.50017 5.17049C1.54927 5.28785 1.62121 5.39429 1.7118 5.48361C1.8024 5.57294 1.90984 5.64336 2.02789 5.6908C2.14594 5.73824 2.27224 5.76174 2.39945 5.75994H21.5995C21.7267 5.76174 21.853 5.73824 21.971 5.6908C22.0891 5.64336 22.1965 5.57294 22.2871 5.48361C22.3777 5.39429 22.4496 5.28785 22.4987 5.17049C22.5478 5.05312 22.5731 4.92716 22.5731 4.79994C22.5731 4.67272 22.5478 4.54676 22.4987 4.42939C22.4496 4.31203 22.3777 4.20559 22.2871 4.11627C22.1965 4.02694 22.0891 3.95652 21.971 3.90908C21.853 3.86164 21.7267 3.83814 21.5995 3.83994H2.39945ZM2.39945 11.0399C2.27224 11.0381 2.14594 11.0616 2.02789 11.1091C1.90984 11.1565 1.8024 11.2269 1.7118 11.3163C1.62121 11.4056 1.54927 11.512 1.50017 11.6294C1.45107 11.7468 1.42578 11.8727 1.42578 11.9999C1.42578 12.1272 1.45107 12.2531 1.50017 12.3705C1.54927 12.4879 1.62121 12.5943 1.7118 12.6836C1.8024 12.7729 1.90984 12.8434 2.02789 12.8908C2.14594 12.9382 2.27224 12.9617 2.39945 12.9599H21.5995C21.7267 12.9617 21.853 12.9382 21.971 12.8908C22.0891 12.8434 22.1965 12.7729 22.2871 12.6836C22.3777 12.5943 22.4496 12.4879 22.4987 12.3705C22.5478 12.2531 22.5731 12.1272 22.5731 11.9999C22.5731 11.8727 22.5478 11.7468 22.4987 11.6294C22.4496 11.512 22.3777 11.4056 22.2871 11.3163C22.1965 11.2269 22.0891 11.1565 21.971 11.1091C21.853 11.0616 21.7267 11.0381 21.5995 11.0399H2.39945ZM2.39945 18.2399C2.27224 18.2381 2.14594 18.2616 2.02789 18.3091C1.90984 18.3565 1.8024 18.4269 1.7118 18.5163C1.62121 18.6056 1.54927 18.712 1.50017 18.8294C1.45107 18.9468 1.42578 19.0727 1.42578 19.1999C1.42578 19.3272 1.45107 19.4531 1.50017 19.5705C1.54927 19.6879 1.62121 19.7943 1.7118 19.8836C1.8024 19.9729 1.90984 20.0434 2.02789 20.0908C2.14594 20.1382 2.27224 20.1617 2.39945 20.1599H21.5995C21.7267 20.1617 21.853 20.1382 21.971 20.0908C22.0891 20.0434 22.1965 19.9729 22.2871 19.8836C22.3777 19.7943 22.4496 19.6879 22.4987 19.5705C22.5478 19.4531 22.5731 19.3272 22.5731 19.1999C22.5731 19.0727 22.5478 18.9468 22.4987 18.8294C22.4496 18.712 22.3777 18.6056 22.2871 18.5163C22.1965 18.4269 22.0891 18.3565 21.971 18.3091C21.853 18.2616 21.7267 18.2381 21.5995 18.2399H2.39945Z" fill="#CBA977"/>
</svg>
