<svg width="28" height="28" viewBox="0 0 28 28" fill="none" xmlns="http://www.w3.org/2000/svg">
<g clip-path="url(#clip0_1299:984)">
<path d="M21 2C23.757 2 26 4.243 26 7V17C26 19.757 23.757 22 21 22H15.187H14.697L14.263 22.227L10.001 24.448L10 23.994L9.994 22H8C7.931 22 6.948 21.999 6.843 21.998C4.127 21.915 2 19.72 2 17V7C2 4.243 4.243 2 7 2H21ZM21 0H7C3.134 0 0 3.134 0 7V17C0 20.793 3.017 23.882 6.782 23.997C6.854 23.999 7.927 24 8 24L8.011 27.739L15.188 24H21C24.866 24 28 20.866 28 17V7C28 3.134 24.866 0 21 0Z" fill="#BAC6CA"/>
<path d="M21 9.5C21 10.328 20.328 11 19.5 11H8.5C7.671 11 7 10.328 7 9.5C7 8.672 7.671 8 8.5 8H19.5C20.328 8 21 8.672 21 9.5Z" fill="#BAC6CA"/>
<path d="M16 14.5C16 15.328 15.328 16 14.5 16H8.5C7.671 16 7 15.328 7 14.5C7 13.672 7.671 13 8.5 13H14.5C15.328 13 16 13.672 16 14.5Z" fill="#BAC6CA"/>
</g>
<defs>
<clipPath id="clip0_1299:984">
<rect width="28" height="28" fill="white"/>
</clipPath>
</defs>
</svg>
