<svg width="28" height="28" viewBox="0 0 28 28" fill="none" xmlns="http://www.w3.org/2000/svg">
<path d="M0 14C0 6.26801 6.26801 0 14 0C21.732 0 28 6.26801 28 14C28 21.732 21.732 28 14 28C6.26801 28 0 21.732 0 14Z" fill="#F5F5F5"/>
<path d="M8.41771 13.5823C8.33501 13.665 8.27888 13.7706 8.25648 13.8854C8.23408 14.0002 8.24644 14.1191 8.29198 14.2269C8.33752 14.3347 8.41416 14.4265 8.51212 14.4905C8.61007 14.5545 8.72489 14.5879 8.84188 14.5863L13.2445 14.587L14.4207 14.5872L18.8233 14.5879C18.9015 14.5895 18.9793 14.5754 19.052 14.5466C19.1247 14.5178 19.191 14.4747 19.2469 14.42C19.3028 14.3652 19.3472 14.2999 19.3775 14.2277C19.4078 14.1556 19.4234 14.0781 19.4234 13.9999C19.4233 13.9216 19.4077 13.8441 19.3774 13.772C19.3471 13.6998 19.3027 13.6345 19.2468 13.5797C19.1908 13.5249 19.1246 13.4818 19.0518 13.453C18.9791 13.4241 18.9013 13.4101 18.8231 13.4117L14.4205 13.411L13.2443 13.4108L8.8417 13.4101C8.7631 13.4091 8.68509 13.4237 8.61227 13.4533C8.53944 13.4829 8.47329 13.5267 8.41771 13.5823Z" fill="black"/>
</svg>
