<svg width="74" height="74" viewBox="0 0 74 74" fill="none" xmlns="http://www.w3.org/2000/svg">
<rect width="74" height="74" rx="16" fill="#F1EAE3"/>
<path d="M45.3333 25H28.6667C26.6453 25 25 26.6453 25 28.6667V45.3333C25 47.3547 26.6453 49 28.6667 49H45.3333C47.3547 49 49 47.3547 49 45.3333V28.6667C49 26.6453 47.3547 25 45.3333 25ZM37 29.6667C38.8407 29.6667 40.3333 31.1593 40.3333 33C40.3333 34.8407 38.8407 36.3333 37 36.3333C35.1593 36.3333 33.6667 34.8407 33.6667 33C33.6667 31.1593 35.1593 29.6667 37 29.6667ZM43 40.0253C43 41.9313 40.5687 43.6667 37 43.6667C33.4313 43.6667 31 41.9313 31 40.0253V39.5747C31 38.8893 31.556 38.3333 32.2413 38.3333H41.7587C42.444 38.3333 43 38.8893 43 39.5747V40.0253Z" fill="#CBA977"/>
</svg>
