<svg width="21" height="21" viewBox="0 0 21 21" fill="none" xmlns="http://www.w3.org/2000/svg">
<path d="M6.3 -7.62939e-06C2.81925 -7.62939e-06 0 2.81924 0 6.29999C0 9.78074 2.81925 12.6 6.3 12.6C6.5835 12.6 6.85654 12.5846 7.12954 12.5426C7.86979 9.93332 9.93333 7.86978 12.5426 7.12953C12.5846 6.85653 12.6 6.58349 12.6 6.29999C12.6 2.81924 9.78075 -7.62939e-06 6.3 -7.62939e-06ZM16.1878 -7.62939e-06C16.0282 -7.62939e-06 15.8717 0.0618357 15.7551 0.179436L14.5298 1.40478C14.2904 1.64365 14.2904 2.03133 14.5298 2.27021L15.7551 3.49555C15.93 3.67037 16.1922 3.72285 16.4216 3.62782C16.6505 3.5328 16.8 3.30961 16.8 3.06181V2.62499H17.0625C17.7966 2.62499 18.375 3.20342 18.375 3.93749V4.98749C18.3735 5.09185 18.3928 5.19545 18.4317 5.29229C18.4706 5.38913 18.5284 5.47726 18.6017 5.55158C18.6749 5.6259 18.7623 5.68491 18.8585 5.72519C18.9548 5.76547 19.0581 5.78621 19.1625 5.78621C19.2669 5.78621 19.3702 5.76547 19.4665 5.72519C19.5627 5.68491 19.6501 5.6259 19.7233 5.55158C19.7966 5.47726 19.8544 5.38913 19.8933 5.29229C19.9322 5.19545 19.9515 5.09185 19.95 4.98749V3.93749C19.95 2.35211 18.6479 1.04999 17.0625 1.04999H16.8V0.613176C16.8 0.364851 16.6505 0.14166 16.4216 0.0471603C16.346 0.0156603 16.2661 -7.62939e-06 16.1878 -7.62939e-06ZM14.7 8.39999C11.2192 8.39999 8.4 11.2192 8.4 14.7C8.4 18.1807 11.2192 21 14.7 21C18.1807 21 21 18.1807 21 14.7C21 11.2192 18.1807 8.39999 14.7 8.39999ZM1.8252 15.2137C1.61652 15.217 1.41766 15.3029 1.27231 15.4527C1.12697 15.6025 1.04701 15.8038 1.05 16.0125V17.0625C1.05 18.6479 2.35212 19.95 3.9375 19.95H4.2V20.3868C4.2 20.6351 4.34947 20.8583 4.57837 20.9528C4.65397 20.9843 4.73393 21 4.81216 21C4.97176 21 5.12832 20.9382 5.24487 20.8206L6.47021 19.5952C6.70961 19.3563 6.70961 18.9687 6.47021 18.7298L5.24487 17.5044C5.07005 17.3296 4.80779 17.2771 4.57837 17.3722C4.34947 17.4672 4.2 17.6904 4.2 17.9382V18.375H3.9375C3.20343 18.375 2.625 17.7966 2.625 17.0625V16.0125C2.62651 15.9071 2.60685 15.8025 2.56718 15.7048C2.52751 15.6071 2.46863 15.5184 2.39405 15.4439C2.31946 15.3694 2.23068 15.3107 2.13297 15.2711C2.03525 15.2316 1.9306 15.2121 1.8252 15.2137Z" fill="#A5A5A5"/>
</svg>
