<svg width="74" height="74" viewBox="0 0 74 74" fill="none" xmlns="http://www.w3.org/2000/svg">
<rect y="0.000427246" width="74" height="74" rx="16" fill="#F1EAE3"/>
<path d="M37.0007 23.6671C34.0669 23.6671 31.6673 26.0667 31.6673 29.0004V31.6671H29.334C27.68 31.6671 26.334 33.0131 26.334 34.6671V47.3338C26.334 48.9878 27.68 50.3338 29.334 50.3338H44.6673C46.3213 50.3338 47.6673 48.9878 47.6673 47.3338V34.6671C47.6673 33.0131 46.3213 31.6671 44.6673 31.6671H42.334V29.0004C42.334 26.0667 39.9344 23.6671 37.0007 23.6671ZM37.0007 25.6671C38.8536 25.6671 40.334 27.1475 40.334 29.0004V31.6671H33.6673V29.0004C33.6673 27.1475 35.1477 25.6671 37.0007 25.6671ZM32.334 39.6671C33.0707 39.6671 33.6673 40.2638 33.6673 41.0004C33.6673 41.7371 33.0707 42.3338 32.334 42.3338C31.5973 42.3338 31.0007 41.7371 31.0007 41.0004C31.0007 40.2638 31.5973 39.6671 32.334 39.6671ZM37.0007 39.6671C37.7373 39.6671 38.334 40.2638 38.334 41.0004C38.334 41.7371 37.7373 42.3338 37.0007 42.3338C36.264 42.3338 35.6673 41.7371 35.6673 41.0004C35.6673 40.2638 36.264 39.6671 37.0007 39.6671ZM41.6673 39.6671C42.404 39.6671 43.0007 40.2638 43.0007 41.0004C43.0007 41.7371 42.404 42.3338 41.6673 42.3338C40.9307 42.3338 40.334 41.7371 40.334 41.0004C40.334 40.2638 40.9307 39.6671 41.6673 39.6671Z" fill="#CBA977"/>
</svg>
