<svg width="74" height="74" viewBox="0 0 74 74" fill="none" xmlns="http://www.w3.org/2000/svg">
<rect y="0.000549316" width="74" height="74" rx="16" fill="#F1EAE3"/>
<path d="M42.9993 22.3339H30.9993C29.1593 22.3339 27.666 23.8272 27.666 25.6672V48.3339C27.666 50.1739 29.1593 51.6672 30.9993 51.6672H42.9993C44.8393 51.6672 46.3327 50.1739 46.3327 48.3339V25.6672C46.3327 23.8272 44.8393 22.3339 42.9993 22.3339ZM36.9993 49.1672C36.17 49.1672 35.4993 48.4965 35.4993 47.6672C35.4993 46.8379 36.17 46.1672 36.9993 46.1672C37.8287 46.1672 38.4993 46.8379 38.4993 47.6672C38.4993 48.4965 37.8287 49.1672 36.9993 49.1672ZM43.666 45.0005H30.3327V26.3339H43.666V45.0005Z" fill="#CBA977"/>
</svg>
