<svg width="28" height="28" viewBox="0 0 28 28" fill="none" xmlns="http://www.w3.org/2000/svg">
<path d="M0 14C0 6.26801 6.26801 0 14 0C21.732 0 28 6.26801 28 14C28 21.732 21.732 28 14 28C6.26801 28 0 21.732 0 14Z" fill="#F5F5F5"/>
<g clip-path="url(#clip0_2143_4709)">
<path d="M8.41797 13.5824C8.33527 13.6651 8.27913 13.7707 8.25674 13.8855C8.23434 14.0003 8.2467 14.1193 8.29224 14.227C8.33778 14.3348 8.41442 14.4266 8.51238 14.4906C8.61033 14.5546 8.72515 14.588 8.84214 14.5864L13.2447 14.5871L13.2454 18.9897C13.2438 19.0679 13.2579 19.1457 13.2867 19.2185C13.3156 19.2912 13.3586 19.3575 13.4134 19.4134C13.4682 19.4693 13.5336 19.5137 13.6057 19.544C13.6779 19.5743 13.7553 19.59 13.8336 19.59C13.9118 19.59 13.9893 19.5744 14.0614 19.5441C14.1336 19.5138 14.1989 19.4694 14.2537 19.4135C14.3085 19.3576 14.3515 19.2914 14.3803 19.2186C14.4092 19.1459 14.4232 19.0681 14.4216 18.9899L14.4209 14.5873L18.8235 14.588C18.9018 14.5896 18.9795 14.5755 19.0523 14.5467C19.125 14.5179 19.1913 14.4748 19.2471 14.4201C19.303 14.3653 19.3474 14.3 19.3777 14.2278C19.408 14.1557 19.4236 14.0782 19.4236 14C19.4236 13.9217 19.408 13.8442 19.3777 13.7721C19.3473 13.6999 19.3029 13.6346 19.247 13.5798C19.1911 13.525 19.1248 13.4819 19.0521 13.4531C18.9793 13.4242 18.9016 13.4102 18.8233 13.4118L14.4207 13.4111L14.4201 9.00851C14.4217 8.89 14.3876 8.77373 14.322 8.67496C14.2565 8.57618 14.1626 8.4995 14.0528 8.45497C13.9429 8.41043 13.8222 8.40012 13.7064 8.42538C13.5906 8.45064 13.4851 8.51029 13.4038 8.59653C13.299 8.70778 13.2417 8.85548 13.2439 9.00833L13.2446 13.4109L8.84196 13.4102C8.76336 13.4092 8.68535 13.4238 8.61252 13.4534C8.5397 13.483 8.47355 13.5268 8.41797 13.5824Z" fill="black"/>
</g>
<defs>
<clipPath id="clip0_2143_4709">
<rect width="12" height="12" fill="white" transform="translate(8 8)"/>
</clipPath>
</defs>
</svg>
