<svg width="24" height="24" viewBox="0 0 24 24" fill="none" xmlns="http://www.w3.org/2000/svg">
<path d="M18.25 3H5.75C4.234 3 3 4.234 3 5.75V18.25C3 19.766 4.234 21 5.75 21H18.25C19.766 21 21 19.766 21 18.25V5.75C21 4.234 19.766 3 18.25 3ZM16.2675 12.268L12.5485 16.261C12.4065 16.4135 12.208 16.5 12 16.5C11.792 16.5 11.5935 16.4135 11.451 16.261L7.7135 12.2485C7.2605 11.796 7 11.168 7 10.5C7 9.832 7.2605 9.204 7.7325 8.732C8.707 7.7585 10.293 7.758 11.2675 8.7325L12 9.465L12.7325 8.7325C13.707 7.758 15.293 7.7585 16.2675 8.732C16.2675 8.7325 16.2675 8.7325 16.2675 8.7325C16.7395 9.2045 17 9.832 17 10.5C17 11.168 16.7395 11.796 16.2675 12.268Z" fill="#A5A5A5"/>
</svg>
