<svg width="28" height="28" viewBox="0 0 28 28" fill="none" xmlns="http://www.w3.org/2000/svg">
<path d="M21.25 2C23.731 2 25.875 4.019 25.875 6.5C25.875 8.981 23.981 11 21.5 11H6.5C4.019 11 2 8.981 2 6.5C2 4.019 4.019 2 6.5 2H21H21.25ZM21.5 0H6.5C2.91 0 0 2.91 0 6.5C0 10.09 2.91 13 6.5 13H21.5C25.09 13 28 10.09 28 6.5C28 2.91 25.09 0 21.5 0Z" fill="#BAC6CA"/>
<path d="M6.625 9C8.00571 9 9.125 7.88071 9.125 6.5C9.125 5.11929 8.00571 4 6.625 4C5.24429 4 4.125 5.11929 4.125 6.5C4.125 7.88071 5.24429 9 6.625 9Z" fill="#BAC6CA"/>
<path d="M21.25 17C23.731 17 25.875 19.019 25.875 21.5C25.875 23.981 23.981 26 21.5 26H6.5C4.019 26 2 23.981 2 21.5C2 19.019 4.019 17 6.5 17H21H21.25ZM21.5 15H6.5C2.91 15 0 17.91 0 21.5C0 25.09 2.91 28 6.5 28H21.5C25.09 28 28 25.09 28 21.5C28 17.91 25.09 15 21.5 15Z" fill="#BAC6CA"/>
<path d="M21.375 24C22.7557 24 23.875 22.8807 23.875 21.5C23.875 20.1193 22.7557 19 21.375 19C19.9943 19 18.875 20.1193 18.875 21.5C18.875 22.8807 19.9943 24 21.375 24Z" fill="#BAC6CA"/>
</svg>
