<svg width="22" height="21" viewBox="0 0 22 21" fill="none" xmlns="http://www.w3.org/2000/svg">
<path d="M8 10C5.243 10 3 7.757 3 5C3 2.243 5.243 0 8 0C10.757 0 13 2.243 13 5C13 7.757 10.757 10 8 10ZM21.0525 14.059L21.5 13.6285C21.2995 13.055 21.0095 12.526 20.647 12.059L20.045 12.237C18.9475 12.5615 17.8025 11.9005 17.534 10.788L17.3615 10.072C17.081 10.0245 16.7935 10 16.5 10C16.2065 10 15.919 10.0245 15.6385 10.072L15.466 10.788C15.1975 11.9005 14.0525 12.5615 12.955 12.237L12.353 12.059C11.991 12.5255 11.7005 13.055 11.5 13.6285L11.9475 14.059C12.765 14.846 12.765 16.1545 11.9475 16.9415L11.5 17.3715C11.7005 17.945 11.9905 18.474 12.353 18.941L12.955 18.763C14.0525 18.4385 15.1975 19.0995 15.466 20.212L15.6385 20.928C15.919 20.9755 16.207 21 16.5 21C16.7935 21 17.081 20.9755 17.3615 20.928L17.534 20.212C17.8025 19.0995 18.9475 18.4385 20.045 18.763L20.647 18.941C21.009 18.4745 21.2995 17.945 21.5 17.3715L21.0525 16.941C20.235 16.1545 20.235 14.8455 21.0525 14.059ZM16.5 17C15.6715 17 15 16.3285 15 15.5C15 14.6715 15.6715 14 16.5 14C17.3285 14 18 14.6715 18 15.5C18 16.3285 17.3285 17 16.5 17ZM10 15.5C10 14.21 10.3805 13.011 11.0285 12H2.361C1.335 12 0.5 12.8925 0.5 13.9895V14.75C0.5 16.3905 1.348 17.816 2.888 18.7635C4.1835 19.561 5.91 20 7.75 20C9.025 20 10.241 19.785 11.3015 19.39C10.488 18.3045 10 16.961 10 15.5Z" fill="#A5A5A5"/>
</svg>
