<svg width="18" height="20" viewBox="0 0 18 20" fill="none" xmlns="http://www.w3.org/2000/svg">
<path d="M9 0C4.0375 0 0 4.0375 0 9C0 13.9625 4.0375 18 9 18C10.0145 18 11.0056 17.832 11.9551 17.5L12.8477 19.5498C12.9667 19.8223 13.2347 19.999 13.5322 20H13.5352C13.8312 20 14.1002 19.8262 14.2207 19.5557C14.2207 19.5557 17.2509 12.7561 17.2734 12.7051C17.7489 11.6316 18 10.3505 18 9C18 4.0375 13.9625 0 9 0ZM9 5C9.3045 5 9.57934 5.18382 9.69434 5.46582L11.9443 10.9658C12.1013 11.3493 11.9172 11.7878 11.5342 11.9443C11.4412 11.9823 11.3445 12 11.25 12C10.9545 12 10.6747 11.8237 10.5557 11.5332L10.3379 11H7.66211L7.44434 11.5342C7.28784 11.9182 6.84932 12.1023 6.46582 11.9443C6.08232 11.7878 5.89866 11.3493 6.05566 10.9658L8.30566 5.46582C8.42066 5.18382 8.6955 5 9 5ZM9 7.73047L8.27637 9.5H9.72363L9 7.73047Z" fill="#A5A5A5"/>
</svg>
