<svg width="47" height="44" viewBox="0 0 47 44" fill="none" xmlns="http://www.w3.org/2000/svg">
<path d="M38.3505 15.1843C38.3497 14.9679 38.3447 14.7526 38.3349 14.5383V2.32318L34.9297 5.70017C32.1426 2.31707 27.9028 0.15625 23.1539 0.15625C18.2119 0.15625 13.8213 2.49561 11.0459 6.11847L16.6276 11.712C17.1746 10.7087 17.9516 9.84706 18.8886 9.19625C19.8631 8.44212 21.2438 7.82552 23.1537 7.82552C23.3845 7.82552 23.5626 7.85226 23.6934 7.90264C26.0599 8.08786 28.1111 9.383 29.3189 11.2628L25.368 15.181C30.3724 15.1615 36.0258 15.1501 38.35 15.1835" fill="#1C3AA9"/>
<path d="M23.0651 0.156738C22.8468 0.157457 22.6297 0.162452 22.4137 0.172155H10.0962L13.5015 3.54914C10.0901 6.31301 7.91113 10.5176 7.91113 15.2271C7.91113 20.1281 10.2701 24.4821 13.9233 27.2345L19.5637 21.6992C18.552 21.1568 17.6831 20.3861 17.0268 19.457C16.2664 18.4906 15.6446 17.1213 15.6446 15.2272C15.6446 14.9984 15.6716 14.8218 15.7224 14.692C15.9092 12.3452 17.2152 10.311 19.1107 9.11326L23.0617 13.0314C23.042 8.06858 23.0305 2.46213 23.0642 0.157169" fill="#4285F4"/>
<path d="M7.91211 15.2268C7.91283 15.4433 7.91787 15.6585 7.92766 15.8728V28.088L11.3329 24.711C14.12 28.0941 18.3597 30.2549 23.1087 30.2549C28.0507 30.2549 32.4413 27.9155 35.2167 24.2927L29.635 18.6992C29.088 19.7024 28.3109 20.5641 27.374 21.2149C26.3995 21.969 25.0188 22.5856 23.1088 22.5856C22.8781 22.5856 22.7 22.5589 22.5692 22.5085C20.2027 22.3233 18.1514 21.0281 16.9436 19.1483L20.8946 15.2302C15.8902 15.2497 10.2368 15.2611 7.91254 15.2277" fill="#ABABAB"/>
<path d="M10.4759 36.0911C10.1057 36.0911 9.77389 36.1608 9.48029 36.3C9.18671 36.4361 8.93781 36.6307 8.73358 36.8839C8.53254 37.137 8.37778 37.444 8.26927 37.8047C8.16396 38.1623 8.11131 38.5626 8.11131 39.0057V40.2826C8.11131 40.7287 8.16396 41.1307 8.26927 41.4883C8.37776 41.8459 8.53094 42.1512 8.7288 42.4044C8.92666 42.6576 9.16597 42.8522 9.44677 42.9882C9.72757 43.1243 10.0435 43.1924 10.3945 43.1924C10.7551 43.1924 11.071 43.1401 11.3423 43.0357C11.6167 42.9313 11.8465 42.781 12.0316 42.5848C12.2166 42.3854 12.3586 42.1449 12.4576 41.8633C12.5597 41.5816 12.6203 41.262 12.6395 40.9044H11.7539C11.7316 41.1797 11.6933 41.4155 11.639 41.6117C11.5848 41.8047 11.505 41.9645 11.3997 42.0911C11.2976 42.2145 11.1636 42.3063 10.9976 42.3664C10.8349 42.4234 10.6338 42.4518 10.3945 42.4518C10.1392 42.4518 9.92223 42.3965 9.74354 42.2857C9.56485 42.1718 9.41965 42.0167 9.30797 41.8205C9.19947 41.6243 9.1197 41.3949 9.06864 41.1322C9.02077 40.8696 8.99684 40.5863 8.99684 40.2825V38.9962C8.99684 38.6702 9.02556 38.3743 9.083 38.1085C9.14363 37.8427 9.23457 37.6164 9.35583 37.4297C9.4771 37.243 9.63027 37.099 9.81536 36.9977C10.0004 36.8933 10.2206 36.8411 10.4759 36.8411C10.6897 36.8411 10.8732 36.8727 11.0263 36.936C11.1795 36.9962 11.3072 37.0911 11.4093 37.2208C11.5114 37.3474 11.5896 37.5088 11.6438 37.705C11.6981 37.9012 11.7348 38.1354 11.7539 38.4075H12.6394C12.6235 38.0341 12.5644 37.7034 12.4623 37.4154C12.3602 37.1274 12.2182 36.8854 12.0363 36.6892C11.8544 36.493 11.6326 36.3442 11.371 36.243C11.1125 36.1417 10.8142 36.0911 10.4759 36.0911L10.4759 36.0911ZM32.0923 36.0911C31.7221 36.0911 31.3903 36.1608 31.0967 36.3C30.8031 36.4361 30.5542 36.6307 30.35 36.8839C30.1489 37.137 29.9942 37.444 29.8856 37.8047C29.7803 38.1623 29.7277 38.5626 29.7277 39.0057V40.2826C29.7277 40.7287 29.7803 41.1307 29.8856 41.4883C29.9941 41.8459 30.1473 42.1512 30.3452 42.4044C30.543 42.6576 30.7823 42.8522 31.0631 42.9882C31.344 43.1243 31.6599 43.1924 32.0109 43.1924C32.3715 43.1924 32.6874 43.1401 32.9587 43.0357C33.2331 42.9313 33.4628 42.781 33.6479 42.5848C33.833 42.3854 33.975 42.1449 34.0739 41.8633C34.1761 41.5816 34.2367 41.262 34.2558 40.9044H33.3703C33.348 41.1797 33.3097 41.4155 33.2554 41.6117C33.2012 41.8047 33.1214 41.9645 33.0161 42.0911C32.914 42.2145 32.78 42.3063 32.614 42.3664C32.4513 42.4234 32.2502 42.4518 32.0109 42.4518C31.7556 42.4518 31.5386 42.3965 31.36 42.2857C31.1813 42.1718 31.0361 42.0167 30.9244 41.8205C30.8159 41.6243 30.7361 41.3949 30.6851 41.1322C30.6372 40.8696 30.6133 40.5863 30.6133 40.2825V38.9962C30.6133 38.6702 30.642 38.3743 30.6994 38.1085C30.76 37.8427 30.851 37.6164 30.9723 37.4297C31.0935 37.243 31.2467 37.099 31.4317 36.9977C31.6168 36.8933 31.837 36.8411 32.0923 36.8411C32.3061 36.8411 32.4896 36.8727 32.6427 36.936C32.7959 36.9962 32.9235 37.0911 33.0257 37.2208C33.1278 37.3474 33.2059 37.5088 33.2602 37.705C33.3144 37.9012 33.3511 38.1354 33.3703 38.4075H34.2558C34.2398 38.0341 34.1808 37.7034 34.0787 37.4154C33.9766 37.1274 33.8346 36.8854 33.6527 36.6892C33.4708 36.4929 33.249 36.3442 32.9874 36.243C32.7289 36.1417 32.4305 36.0911 32.0923 36.0911L32.0923 36.0911ZM15.5213 36.1861L13.2763 43.0974H14.1762L14.7171 41.2936H17.0721L17.6226 43.0974H18.5224L16.2727 36.1861H15.5213ZM19.4701 36.1861V43.0974H20.346V40.3917H21.691C22.0261 40.3917 22.3229 40.3458 22.5813 40.254C22.8398 40.1591 23.0568 40.023 23.2323 39.8458C23.411 39.6686 23.545 39.4502 23.6344 39.1907C23.7269 38.9281 23.7732 38.6306 23.7732 38.2983C23.7732 37.9914 23.7269 37.7097 23.6344 37.4534C23.545 37.1939 23.4126 36.9708 23.2371 36.7841C23.0616 36.5942 22.843 36.4471 22.5813 36.3426C22.3229 36.2382 22.0261 36.186 21.691 36.186L19.4701 36.1861ZM24.4433 36.1861V36.9361H26.2718V43.0974H27.1477V36.9361H28.9809V36.1861H24.4433ZM35.4381 36.1861V43.0974H36.314V39.9028H39.119V43.0974H39.9997V36.1861H39.119V39.1576H36.314V36.1861H35.4381ZM43.3216 36.1861L41.0766 43.0974H41.9765L42.5174 41.2936H44.8724L45.4229 43.0974H46.3227L44.0731 36.1861H43.3216ZM20.3459 36.9361H21.6909C21.9047 36.9361 22.0866 36.974 22.2366 37.05C22.3898 37.1259 22.5142 37.2272 22.61 37.3538C22.7089 37.4804 22.7807 37.6275 22.8254 37.7952C22.8732 37.9598 22.8972 38.1307 22.8972 38.3079C22.8972 38.5041 22.8732 38.6845 22.8254 38.849C22.7807 39.0104 22.7089 39.1513 22.61 39.2715C22.5142 39.3886 22.3898 39.4804 22.2366 39.5468C22.0866 39.6133 21.9047 39.6465 21.6909 39.6465H20.3459V36.9361ZM15.8945 37.4013L16.847 40.5437H14.9468L15.8945 37.4013ZM43.6948 37.4013L44.6473 40.5437H42.7471L43.6948 37.4013ZM2.46381 37.8665C2.24363 37.8665 2.05374 37.9219 1.89419 38.0326C1.73783 38.1434 1.60699 38.2937 1.5017 38.4835L1.48734 37.9614H0.664062V43.0974H1.51129V39.4233C1.59107 39.2049 1.70435 39.0325 1.85114 38.9059C2.00112 38.7793 2.19099 38.716 2.42076 38.716C2.49415 38.716 2.55957 38.7192 2.61701 38.7255C2.67445 38.7287 2.73667 38.7366 2.80368 38.7492L2.7989 37.9328C2.78613 37.9264 2.76539 37.9201 2.73667 37.9138C2.71114 37.9042 2.68242 37.8963 2.65051 37.89C2.6186 37.8837 2.58509 37.8789 2.54999 37.8758C2.51808 37.8694 2.48936 37.8663 2.46383 37.8663L2.46381 37.8665ZM5.31182 37.8665C5.06611 37.8665 4.82838 37.9092 4.59863 37.9946C4.36887 38.0801 4.16465 38.2209 3.98596 38.4171C3.81046 38.6101 3.66845 38.8633 3.55996 39.1766C3.45146 39.4867 3.39721 39.868 3.39721 40.3206V40.8997C3.39721 41.2921 3.44348 41.6323 3.53602 41.9203C3.62856 42.2082 3.76099 42.4472 3.9333 42.6371C4.1088 42.8238 4.321 42.963 4.56992 43.0548C4.81882 43.1466 5.09804 43.1924 5.40758 43.1924C5.63096 43.1924 5.8304 43.1703 6.0059 43.126C6.1846 43.0817 6.34255 43.0247 6.47977 42.9551C6.61699 42.8823 6.73506 42.8 6.83398 42.7083C6.9329 42.6165 7.01747 42.5216 7.08767 42.4234L6.64731 41.8918C6.57711 41.9772 6.50212 42.0564 6.42234 42.1292C6.34257 42.1988 6.25481 42.2605 6.15908 42.3143C6.06335 42.3649 5.95804 42.4045 5.84317 42.4329C5.72829 42.4614 5.59905 42.4757 5.45546 42.4757C5.06297 42.4757 4.7614 42.3507 4.55079 42.1007C4.34337 41.8507 4.23967 41.4504 4.23967 40.8997V40.781H7.13076V40.2921C7.13076 39.8997 7.09726 39.5532 7.03024 39.2526C6.96323 38.9519 6.85633 38.6988 6.70954 38.4931C6.56276 38.2874 6.37448 38.1323 6.14471 38.0279C5.91495 37.9203 5.63735 37.8665 5.31183 37.8665L5.31182 37.8665ZM5.31182 38.588C5.4969 38.588 5.65007 38.6212 5.77135 38.6877C5.8926 38.7541 5.98834 38.8475 6.05854 38.9677C6.13194 39.088 6.18459 39.232 6.2165 39.3997C6.2516 39.5643 6.27394 39.7462 6.28351 39.9456V40.0595H4.24443C4.25719 39.7715 4.29229 39.5326 4.34973 39.3427C4.40717 39.1528 4.48216 39.0025 4.5747 38.8918C4.67043 38.7779 4.78052 38.6987 4.90498 38.6544C5.02943 38.6101 5.16505 38.588 5.31185 38.588L5.31182 38.588Z" fill="#A6A6A6"/>
</svg>
