<svg width="71" height="9" viewBox="0 0 71 9" fill="none" xmlns="http://www.w3.org/2000/svg">
<path d="M0.501953 0.476563H3.18618C3.84907 0.476563 4.38562 0.679248 4.79583 1.08462C5.20902 1.48999 5.41561 2.02353 5.41561 2.68524C5.41561 3.34397 5.20307 3.87751 4.778 4.28586C4.35292 4.69123 3.80002 4.89392 3.1193 4.89392H1.84853V6.92823H0.501953V0.476563ZM1.84853 1.54513V3.83876H2.82502C3.21145 3.83876 3.51168 3.73891 3.72571 3.5392C3.93973 3.3395 4.04674 3.05633 4.04674 2.68971C4.04674 2.32309 3.93973 2.04142 3.72571 1.84469C3.51465 1.64499 3.21591 1.54513 2.82948 1.54513H1.84853Z" fill="#A4A19C"/>
<path d="M6.11565 6.92823V2.00565H7.37305V2.88644H7.3998C7.48304 2.58539 7.62572 2.35439 7.82785 2.19343C8.02999 2.02949 8.27671 1.94752 8.56802 1.94752C8.71368 1.94752 8.83555 1.96392 8.93365 1.99671V3.1547C8.81772 3.10104 8.66166 3.07422 8.46547 3.07422C8.13551 3.07422 7.87839 3.17109 7.69409 3.36483C7.50979 3.55858 7.41764 3.82833 7.41764 4.17409V6.92823H6.11565Z" fill="#A4A19C"/>
<path d="M9.52668 6.92823V2.00565H10.8287V6.92823H9.52668ZM10.1777 1.46913C9.98445 1.46913 9.81948 1.40355 9.68274 1.2724C9.546 1.14125 9.47763 0.978806 9.47763 0.785062C9.47763 0.591318 9.546 0.430362 9.68274 0.302193C9.81948 0.171044 9.98445 0.105469 10.1777 0.105469C10.3739 0.105469 10.5403 0.171044 10.6771 0.302193C10.8138 0.430362 10.8822 0.591318 10.8822 0.785062C10.8822 0.978806 10.8138 1.14125 10.6771 1.2724C10.5403 1.40355 10.3739 1.46913 10.1777 1.46913Z" fill="#A4A19C"/>
<path d="M16.1882 2.00565L14.4938 6.92823H13.0313L11.3281 2.00565H12.7192L13.7626 5.7613H13.7893L14.8283 2.00565H16.1882Z" fill="#A4A19C"/>
<path d="M18.4266 6.03403C18.7327 6.03403 18.9899 5.94908 19.1979 5.77918C19.406 5.6063 19.5101 5.38722 19.5101 5.12194V4.75979L18.4801 4.83133C18.2096 4.84921 18.003 4.91031 17.8603 5.01464C17.7176 5.11896 17.6463 5.26203 17.6463 5.44385C17.6463 5.62567 17.7161 5.77024 17.8558 5.87754C17.9985 5.98187 18.1887 6.03403 18.4266 6.03403ZM18.003 6.98635C17.5244 6.98635 17.129 6.84924 16.8169 6.57502C16.5048 6.3008 16.3487 5.9461 16.3487 5.51092C16.3487 5.0668 16.5137 4.71955 16.8437 4.46917C17.1736 4.2188 17.6537 4.07423 18.2839 4.03549L19.5101 3.95948V3.6331C19.5101 3.39762 19.4343 3.21729 19.2827 3.0921C19.1311 2.96393 18.92 2.89985 18.6495 2.89985C18.4176 2.89985 18.2229 2.95648 18.0654 3.06975C17.9108 3.18003 17.8172 3.32609 17.7845 3.50791H16.594C16.6118 3.03696 16.8139 2.65543 17.2004 2.36333C17.5898 2.06824 18.0907 1.9207 18.703 1.9207C19.3332 1.9207 19.8385 2.06973 20.219 2.3678C20.5995 2.66587 20.7897 3.06081 20.7897 3.55262V6.92823H19.5323V6.16816H19.5056C19.3748 6.42151 19.1712 6.62122 18.8947 6.76727C18.6213 6.91333 18.324 6.98635 18.003 6.98635Z" fill="#A4A19C"/>
<path d="M26.1047 3.82088H24.8919C24.8562 3.55858 24.7507 3.34844 24.5753 3.19047C24.3999 3.02951 24.174 2.94903 23.8976 2.94903C23.5617 2.94903 23.2956 3.08465 23.0994 3.35589C22.9032 3.62415 22.8052 3.99376 22.8052 4.4647C22.8052 4.94161 22.9032 5.31419 23.0994 5.58246C23.2956 5.84774 23.5632 5.98037 23.902 5.98037C24.1785 5.98037 24.4029 5.90735 24.5753 5.7613C24.7477 5.61524 24.8547 5.40809 24.8964 5.13983H26.1092C26.0705 5.71211 25.8505 6.16816 25.4493 6.50795C25.0509 6.84477 24.5307 7.01318 23.8887 7.01318C23.1515 7.01318 22.5659 6.78516 22.1319 6.32911C21.7008 5.87307 21.4853 5.2516 21.4853 4.4647C21.4853 3.68675 21.7008 3.06826 22.1319 2.60923C22.5659 2.15021 23.1485 1.9207 23.8797 1.9207C24.5278 1.9207 25.0524 2.09805 25.4537 2.45275C25.855 2.80745 26.072 3.26349 26.1047 3.82088Z" fill="#A4A19C"/>
<path d="M27.3844 8.72557C27.1198 8.72557 26.9549 8.71961 26.8895 8.70769V7.69724C26.9341 7.70618 27.0321 7.71066 27.1837 7.71066C27.4305 7.71066 27.6237 7.66446 27.7634 7.57205C27.9061 7.48263 28.0027 7.34105 28.0532 7.14731L28.0978 6.95953L26.3767 2.00565H27.8035L28.8647 5.8686H28.8915L29.9572 2.00565H31.3305L29.6317 7.02659C29.4236 7.65253 29.1501 8.09218 28.8112 8.34554C28.4753 8.5989 27.9997 8.72557 27.3844 8.72557Z" fill="#A4A19C"/>
<path d="M42.4776 4.89839H33.3459V3.72699H42.4776V4.89839Z" fill="#A4A19C"/>
<path d="M47.8818 6.92823H46.5352V1.58984H44.6535V0.476563H49.7679V1.58984H47.8818V6.92823Z" fill="#A4A19C"/>
<path d="M51.7342 2.89538C51.4369 2.89538 51.1887 2.99374 50.9896 3.19047C50.7934 3.38719 50.6834 3.64353 50.6596 3.95948H52.7776C52.7657 3.63757 52.6646 3.37974 52.4744 3.18599C52.2841 2.99225 52.0374 2.89538 51.7342 2.89538ZM52.7954 5.42597H53.9948C53.9235 5.90288 53.6842 6.28738 53.277 6.57949C52.8697 6.86862 52.3674 7.01318 51.7699 7.01318C51.0238 7.01318 50.4352 6.78814 50.0042 6.33806C49.5761 5.88797 49.3621 5.27097 49.3621 4.48706C49.3621 3.70314 49.5746 3.08018 49.9997 2.61818C50.4278 2.15319 51.0015 1.9207 51.7208 1.9207C52.4283 1.9207 52.9901 2.14127 53.4063 2.58241C53.8254 3.02355 54.035 3.61819 54.035 4.36634V4.76873H50.6462V4.84921C50.6462 5.20391 50.7518 5.49154 50.9628 5.71211C51.1739 5.9297 51.4503 6.0385 51.7922 6.0385C52.0389 6.0385 52.2514 5.98485 52.4298 5.87754C52.6111 5.76726 52.733 5.61673 52.7954 5.42597Z" fill="#A4A19C"/>
<path d="M54.735 6.92823V2.00565H55.9924V2.88644H56.0192C56.1024 2.58539 56.2451 2.35439 56.4472 2.19343C56.6494 2.02949 56.8961 1.94752 57.1874 1.94752C57.333 1.94752 57.4549 1.96392 57.553 1.99671V3.1547C57.4371 3.10104 57.281 3.07422 57.0848 3.07422C56.7549 3.07422 56.4978 3.17109 56.3135 3.36483C56.1292 3.55858 56.037 3.82833 56.037 4.17409V6.92823H54.735Z" fill="#A4A19C"/>
<path d="M58.1237 6.92823V2.00565H59.3811V2.89985H59.4079C59.5119 2.60178 59.6888 2.36631 59.9385 2.19343C60.1912 2.02055 60.481 1.93411 60.808 1.93411C61.1617 1.93411 61.4575 2.02204 61.6953 2.1979C61.9331 2.37078 62.0936 2.61818 62.1768 2.94009H62.2036C62.3166 2.6301 62.5098 2.38568 62.7833 2.20684C63.0567 2.02502 63.3718 1.93411 63.7285 1.93411C64.2101 1.93411 64.598 2.08613 64.8923 2.39015C65.1895 2.6912 65.3382 3.08912 65.3382 3.58391V6.92823H64.0362V3.9103C64.0362 3.62117 63.9648 3.4006 63.8222 3.24859C63.6825 3.09359 63.4803 3.0161 63.2158 3.0161C62.9601 3.0161 62.7535 3.10254 62.596 3.27541C62.4384 3.44531 62.3597 3.67035 62.3597 3.95054V6.92823H61.1023V3.86112C61.1023 3.59882 61.0309 3.39315 60.8882 3.24412C60.7456 3.0921 60.5479 3.0161 60.2952 3.0161C60.0396 3.0161 59.83 3.10552 59.6665 3.28436C59.506 3.46022 59.4257 3.68824 59.4257 3.96842V6.92823H58.1237Z" fill="#A4A19C"/>
<path d="M66.1185 3.45425C66.1185 2.99225 66.3057 2.62116 66.6803 2.34097C67.0548 2.06079 67.5527 1.9207 68.174 1.9207C68.7804 1.9207 69.2694 2.06377 69.641 2.34992C70.0125 2.63308 70.2028 3.01013 70.2117 3.48108H69.0078C68.993 3.28734 68.9097 3.13383 68.7581 3.02057C68.6065 2.90432 68.4059 2.8462 68.1562 2.8462C67.9213 2.8462 67.7326 2.89538 67.5899 2.99374C67.4472 3.08912 67.3759 3.2158 67.3759 3.37378C67.3759 3.61521 67.5944 3.7866 68.0313 3.88794L68.9543 4.08914C69.4478 4.2024 69.8 4.36187 70.0111 4.56754C70.2251 4.7732 70.3321 5.05935 70.3321 5.42597C70.3321 5.90288 70.1329 6.28738 69.7346 6.57949C69.3363 6.86862 68.8146 7.01318 68.1695 7.01318C67.5304 7.01318 67.0162 6.8716 66.6268 6.58843C66.2404 6.30229 66.0308 5.91927 65.9981 5.43938H67.2689C67.3016 5.64803 67.3982 5.80899 67.5587 5.92225C67.7192 6.03254 67.9347 6.08768 68.2052 6.08768C68.4638 6.08768 68.6675 6.04148 68.8161 5.94908C68.9647 5.8537 69.039 5.72553 69.039 5.56457C69.039 5.4364 68.9915 5.33506 68.8963 5.26054C68.8042 5.18603 68.6466 5.12194 68.4237 5.06829L67.5186 4.86262C66.5852 4.65099 66.1185 4.18154 66.1185 3.45425Z" fill="#A4A19C"/>
</svg>
