<svg width="21" height="18" viewBox="0 0 21 18" fill="none" xmlns="http://www.w3.org/2000/svg">
<path d="M12.6194 0.00366185C12.1403 0.0258388 11.663 0.14889 11.2178 0.371522C11.2048 0.377964 11.1921 0.384797 11.1796 0.39201L9.82736 1.17336C9.81309 1.17263 9.79881 1.17231 9.78452 1.17243H0.724921C0.620533 1.1711 0.517119 1.19262 0.421937 1.23551C0.326755 1.27839 0.242113 1.34159 0.173954 1.42066C0.105795 1.49974 0.055771 1.59277 0.0273936 1.69324C-0.000983916 1.7937 -0.00702673 1.89916 0.00968936 2.00221V10.8299C-0.00748103 10.9332 -0.00178038 11.0389 0.0263891 11.1398C0.0545585 11.2406 0.10451 11.334 0.172719 11.4134C0.240928 11.4928 0.325731 11.5562 0.421145 11.5993C0.516558 11.6423 0.620256 11.6639 0.724921 11.6625H1.35354C1.67649 11.6625 1.97896 11.7895 2.20381 12.0192C3.31847 13.1572 5.7566 15.6446 6.47006 16.3497C7.29272 17.1631 8.35352 17.5006 9.30863 17.3247C10.0831 17.1821 10.7613 16.642 11.1004 15.8719C11.9161 15.8039 12.5428 15.4293 12.9211 14.9825C12.9307 14.9831 12.9403 14.9834 12.95 14.9835C12.95 14.9835 15.1023 15.021 16.2998 14.9835C17.1329 14.9576 17.9727 14.6749 18.7137 14.0252C19.048 13.7323 19.4502 13.5688 19.8592 13.5688H20.2746C20.3694 13.5702 20.4635 13.5527 20.5514 13.5173C20.6394 13.482 20.7194 13.4295 20.7869 13.363C20.8544 13.2964 20.908 13.2171 20.9446 13.1297C20.9812 13.0422 21 12.9484 21 12.8536C21 12.7588 20.9812 12.665 20.9446 12.5775C20.908 12.4901 20.8544 12.4108 20.7869 12.3443C20.7194 12.2777 20.6394 12.2252 20.5514 12.1899C20.4635 12.1546 20.3694 12.137 20.2746 12.1384H19.8592C19.0705 12.1384 18.3382 12.4528 17.7713 12.9495C17.2506 13.4061 16.8373 13.5359 16.2561 13.5539C16.2558 13.5539 16.2554 13.5539 16.2551 13.5539C15.8646 13.5662 15.3207 13.5637 14.8088 13.5633C15.1737 13.2625 15.5009 12.8253 15.7029 12.2408C16.5292 12.0519 17.2296 11.5879 17.4919 10.8644C17.8156 9.97139 17.5638 8.89202 16.7692 8.07889C16.1671 7.46248 13.4939 4.4841 13.4939 4.4841C13.4001 4.37946 13.2775 4.30475 13.1416 4.2693C13.0056 4.23386 12.8622 4.23925 12.7293 4.28481C12.7293 4.28481 10.0053 5.19188 7.9983 5.19188C7.70114 5.19188 7.44264 5.15708 7.21602 5.10062C6.93059 5.02935 6.82274 4.84453 6.79787 4.60517C6.77314 4.36718 6.85146 4.15706 7.09123 4.03522L9.33005 3.10579C9.35887 3.09367 9.38687 3.07967 9.41387 3.06388L11.8613 1.64925C12.4021 1.38006 12.9767 1.35979 13.4976 1.56823L16.7208 2.85714C17.0871 3.00429 17.4782 3.07867 17.8719 3.07879L20.2746 3.07972C20.3694 3.08106 20.4635 3.06355 20.5514 3.0282C20.6394 2.99286 20.7194 2.94039 20.7869 2.87384C20.8544 2.8073 20.908 2.728 20.9446 2.64055C20.9812 2.55311 21 2.45927 21 2.36449C21 2.2697 20.9812 2.17586 20.9446 2.08842C20.908 2.00097 20.8544 1.92167 20.7869 1.85513C20.7194 1.78858 20.6394 1.73611 20.5514 1.70076C20.4635 1.66542 20.3694 1.64791 20.2746 1.64925L17.8728 1.64832C17.6602 1.64832 17.4504 1.6088 17.2544 1.53005C17.2538 1.52974 17.2532 1.52943 17.2525 1.52912L14.0293 0.24021C13.579 0.0600015 13.0984 -0.018515 12.6194 0.00366185Z" fill="#A5A5A5"/>
</svg>
