<svg width="18" height="20" viewBox="0 0 18 20" fill="none" xmlns="http://www.w3.org/2000/svg">
<path d="M16.2491 16H1.75107C1.14857 16 0.596073 15.6965 0.273573 15.1875C-0.0489271 14.6785 -0.0889271 14.05 0.167573 13.505L1.50007 10.824V7.69053C1.50007 3.57103 4.63557 0.197028 8.63857 0.00852842C10.7141 -0.0854716 12.6786 0.644029 14.1761 2.07253C15.6751 3.50203 16.5001 5.42953 16.5001 7.50003V10.824L17.8251 13.4905C18.0886 14.05 18.0491 14.679 17.7266 15.188C17.4041 15.697 16.8516 16 16.2491 16ZM8.67407 0.758028H8.67907H8.67407ZM6.04507 17C6.28407 18.4165 7.51607 19.5 9.00007 19.5C10.4841 19.5 11.7156 18.4165 11.9551 17H6.04507Z" fill="#A5A5A5"/>
</svg>
