<svg width="17" height="18" viewBox="0 0 17 18" fill="none" xmlns="http://www.w3.org/2000/svg">
<path d="M13.2703 5.58665C13.2703 4.73438 12.9946 4.04403 12.4433 3.51562C11.892 2.98722 11.1667 2.72301 10.2676 2.72301H6.19621V8.45028H10.2676C11.1667 8.45028 11.892 8.18608 12.4433 7.65767C12.9946 7.12926 13.2703 6.43892 13.2703 5.58665ZM16.2857 5.58665C16.2857 7.23153 15.7492 8.57386 14.6762 9.61364C13.6032 10.6534 12.2185 11.1733 10.5221 11.1733H6.19621V12.6818H12.6214C12.7402 12.6818 12.8377 12.7202 12.9141 12.7969C12.9904 12.8736 13.0286 12.9716 13.0286 13.0909V14.7273C13.0286 14.8466 12.9904 14.9446 12.9141 15.0213C12.8377 15.098 12.7402 15.1364 12.6214 15.1364H6.19621V17.5909C6.19621 17.7102 6.15591 17.8082 6.07533 17.8849C5.99475 17.9616 5.89933 18 5.78906 18H3.66429C3.54554 18 3.44799 17.9616 3.37165 17.8849C3.29531 17.8082 3.25714 17.7102 3.25714 17.5909V15.1364H0.407143C0.288393 15.1364 0.190848 15.098 0.114509 15.0213C0.0381696 14.9446 0 14.8466 0 14.7273V13.0909C0 12.9716 0.0381696 12.8736 0.114509 12.7969C0.190848 12.7202 0.288393 12.6818 0.407143 12.6818H3.25714V11.1733H0.407143C0.288393 11.1733 0.190848 11.1349 0.114509 11.0582C0.0381696 10.9815 0 10.8835 0 10.7642V8.85938C0 8.74858 0.0381696 8.6527 0.114509 8.57173C0.190848 8.49077 0.288393 8.45028 0.407143 8.45028H3.25714V0.409091C3.25714 0.289773 3.29531 0.191761 3.37165 0.115057C3.44799 0.0383523 3.54554 0 3.66429 0H10.5221C12.2185 0 13.6032 0.519886 14.6762 1.55966C15.7492 2.59943 16.2857 3.94176 16.2857 5.58665Z" fill="#FFC702"/>
</svg>
