<svg width="32" height="32" viewBox="0 0 32 32" fill="none" xmlns="http://www.w3.org/2000/svg">
<path d="M0 16C0 7.16344 7.16344 0 16 0C24.8366 0 32 7.16344 32 16C32 24.8366 24.8366 32 16 32C7.16344 32 0 24.8366 0 16Z" fill="#BEBEBE"/>
<path d="M16 9.33337C15.1159 9.33337 14.2681 9.68456 13.6429 10.3097C13.0178 10.9348 12.6666 11.7827 12.6666 12.6667C12.6666 13.5508 13.0178 14.3986 13.6429 15.0237C14.2681 15.6489 15.1159 16 16 16C16.884 16 17.7319 15.6489 18.357 15.0237C18.9821 14.3986 19.3333 13.5508 19.3333 12.6667C19.3333 11.7827 18.9821 10.9348 18.357 10.3097C17.7319 9.68456 16.884 9.33337 16 9.33337ZM20.007 17.3334H11.993C11.2616 17.3334 10.6666 17.9284 10.6666 18.6597V19.1667C10.6666 20.2707 11.295 21.2254 12.4356 21.8544C13.3846 22.3784 14.6506 22.6667 16 22.6667C18.5686 22.6667 21.3333 21.5714 21.3333 19.1667V18.6597C21.3333 17.9284 20.7383 17.3334 20.007 17.3334Z" fill="white"/>
</svg>
