<svg width="14" height="16" viewBox="0 0 14 16" fill="none" xmlns="http://www.w3.org/2000/svg">
<path d="M12.0335 7.74628C12.291 8.00566 12.7105 8.00566 12.968 7.74628C13.2229 7.48954 13.2229 7.07523 12.968 6.81849L7.45636 1.2669C7.20494 1.01365 6.79537 1.01365 6.54395 1.2669L1.0323 6.81849C0.777402 7.07523 0.777402 7.48954 1.0323 7.74628C1.28981 8.00566 1.7093 8.00566 1.96681 7.74628L6.08774 3.59548C6.16441 3.51826 6.24843 3.45281 6.33756 3.39914V14.4298C6.33756 14.7958 6.63427 15.0925 7.00028 15.0925C7.36629 15.0925 7.66301 14.7958 7.66301 14.4298V3.39929C7.75204 3.45294 7.83598 3.51833 7.91257 3.59548L12.0335 7.74628Z" fill="white" stroke="white"/>
</svg>
