<svg width="21" height="21" viewBox="0 0 21 21" fill="none" xmlns="http://www.w3.org/2000/svg">
<path d="M11.1048 1.5503L13.4695 6.57005C13.568 6.77849 13.7578 6.92296 13.9777 6.95674L19.2655 7.76174C19.819 7.84584 20.0396 8.55812 19.6393 8.96709L15.8127 12.8742C15.6538 13.0366 15.5812 13.2702 15.6186 13.4995L16.5221 19.0167C16.6162 19.5938 16.0383 20.0344 15.5431 19.7613L10.8138 17.1565C10.6175 17.048 10.3825 17.048 10.1863 17.1565L5.45691 19.7613C4.96241 20.0337 4.38381 19.5938 4.47797 19.0167L5.38144 13.4995C5.41881 13.2702 5.34622 13.0366 5.18738 12.8742L1.36075 8.96709C0.960408 8.55812 1.18106 7.84584 1.7345 7.76174L7.02235 6.95674C7.24228 6.92296 7.43203 6.77849 7.5305 6.57005L9.89519 1.5503C10.1424 1.0249 10.8569 1.0249 11.1048 1.5503Z" stroke="#B3B3B3" stroke-width="2" stroke-miterlimit="10" stroke-linecap="round" stroke-linejoin="round"/>
</svg>
