<svg width="28" height="28" viewBox="0 0 28 28" fill="none" xmlns="http://www.w3.org/2000/svg">
<path d="M28 27.25C28 27.664 27.664 28 27.25 28H0.75C0.336 28 0 27.664 0 27.25V26.75C0 26.336 0.336 26 0.75 26H27.25C27.664 26 28 26.336 28 26.75V27.25Z" fill="#BAC6CA"/>
<path d="M2 27.25C2 27.664 1.664 28 1.25 28H0.75C0.336 28 0 27.664 0 27.25V0.75C0 0.336 0.336 0 0.75 0H1.25C1.664 0 2 0.336 2 0.75V27.25Z" fill="#BAC6CA"/>
<path d="M9 21.5C9 22.328 8.329 23 7.5 23C6.671 23 6 22.328 6 21.5V15.5C6 14.672 6.671 14 7.5 14C8.329 14 9 14.672 9 15.5V21.5Z" fill="#BAC6CA"/>
<path d="M16 21.5C16 22.328 15.328 23 14.5 23C13.671 23 13 22.328 13 21.5V4.5C13 3.672 13.671 3 14.5 3C15.328 3 16 3.672 16 4.5V21.5Z" fill="#BAC6CA"/>
<path d="M23 21.5C23 22.328 22.328 23 21.5 23C20.672 23 20 22.328 20 21.5V9.5C20 8.672 20.672 8 21.5 8C22.328 8 23 8.672 23 9.5V21.5Z" fill="#BAC6CA"/>
</svg>
