<svg width="20" height="18" viewBox="0 0 20 18" fill="none" xmlns="http://www.w3.org/2000/svg">
<path d="M8.5 0.500004C3.813 0.500004 0 4.313 0 9C0 13.687 3.813 17.5 8.5 17.5C9.01256 17.5 9.51219 17.4467 10 17.3594C10.4861 17.4467 10.9858 17.5 11.5 17.5C16.1854 17.5 20 13.6854 20 9C20 4.31463 16.1854 0.500004 11.5 0.500004C10.9858 0.500004 10.4861 0.553273 10 0.640629C9.51219 0.553273 9.01256 0.500004 8.5 0.500004ZM13.8691 2.41797C16.5711 3.38701 18.5 5.95881 18.5 9C18.5 12.0412 16.5711 14.613 13.8691 15.582C15.7779 14.0221 17 11.6517 17 9C17 6.3483 15.7779 3.97796 13.8691 2.41797Z" fill="#A5A5A5"/>
</svg>
