<svg width="53" height="52" viewBox="0 0 53 52" fill="none" xmlns="http://www.w3.org/2000/svg">
<rect x="0.333374" width="52" height="52" rx="12" fill="white"/>
<path d="M23.5834 17C22.6259 17 21.8334 17.7925 21.8334 18.75V20H18.0834C17.1184 20 16.3334 20.785 16.3334 21.75V28H24.8334V27.75C24.8334 27.335 25.1684 27 25.5834 27H27.0834C27.4984 27 27.8334 27.335 27.8334 27.75V28H36.3334V21.75C36.3334 20.785 35.5484 20 34.5834 20H30.8334V18.75C30.8334 17.7925 30.0409 17 29.0834 17H23.5834ZM23.5834 18.5H29.0834C29.2309 18.5 29.3334 18.6025 29.3334 18.75V20H23.3334V18.75C23.3334 18.6025 23.4359 18.5 23.5834 18.5ZM16.3334 29.5V33.25C16.3334 34.215 17.1184 35 18.0834 35H34.5834C35.5484 35 36.3334 34.215 36.3334 33.25V29.5H27.8334V29.75C27.8334 30.165 27.4984 30.5 27.0834 30.5H25.5834C25.1684 30.5 24.8334 30.165 24.8334 29.75V29.5H16.3334Z" fill="#CBA977"/>
</svg>
