<svg width="74" height="74" viewBox="0 0 74 74" fill="none" xmlns="http://www.w3.org/2000/svg">
<rect y="0.00012207" width="74" height="74" rx="16" fill="#F1EAE3"/>
<path d="M23.8855 36.7442C32.2642 33.0582 43.1069 28.5642 44.6035 27.9422C48.5295 26.3142 49.7342 26.6262 49.1335 30.2315C48.7022 32.8228 47.4575 41.4022 46.4655 46.7422C45.8769 49.9088 44.5562 50.2842 42.4795 48.9142C41.4809 48.2548 36.4402 44.9215 35.3462 44.1388C34.3475 43.4255 32.9702 42.5675 34.6975 40.8775C35.3122 40.2755 39.3415 36.4282 42.4809 33.4335C42.8922 33.0402 42.3755 32.3942 41.9009 32.7095C37.6695 35.5155 31.8029 39.4102 31.0562 39.9175C29.9282 40.6835 28.8449 41.0348 26.9002 40.4762C25.4309 40.0542 23.9955 39.5508 23.4369 39.3588C21.2855 38.6202 21.7962 37.6635 23.8855 36.7442Z" fill="#CBA977"/>
</svg>
