<svg width="16" height="18" viewBox="0 0 16 18" fill="none" xmlns="http://www.w3.org/2000/svg">
<path d="M6.95833 0.750063C6.87551 0.748891 6.79329 0.764192 6.71643 0.795076C6.63958 0.825959 6.56963 0.87181 6.51064 0.929962C6.45166 0.988115 6.40483 1.05741 6.37286 1.13382C6.34089 1.21023 6.32443 1.29223 6.32443 1.37506C6.32443 1.45789 6.34089 1.53989 6.37286 1.6163C6.40483 1.69271 6.45166 1.76201 6.51064 1.82016C6.56963 1.87832 6.63958 1.92417 6.71643 1.95505C6.79329 1.98593 6.87551 2.00123 6.95833 2.00006H7.375V2.86513C3.53156 3.18447 0.5 6.40892 0.5 10.3334C0.5 14.4688 3.86458 17.8334 8 17.8334C12.1354 17.8334 15.5 14.4688 15.5 10.3334C15.5 8.49024 14.8289 6.8026 13.7218 5.49534L14.4819 4.73525C14.5721 4.64744 14.6337 4.53445 14.6585 4.41107C14.6834 4.28769 14.6705 4.15968 14.6214 4.04377C14.5724 3.92787 14.4894 3.82948 14.3835 3.76148C14.2776 3.69348 14.1536 3.65904 14.0278 3.66266C13.8655 3.66739 13.7114 3.7351 13.5981 3.85146L12.8381 4.61155C11.6804 3.63116 10.2235 2.99795 8.625 2.86513V2.00006H9.04167C9.12449 2.00123 9.20671 1.98593 9.28357 1.95505C9.36042 1.92417 9.43037 1.87832 9.48936 1.82016C9.54834 1.76201 9.59517 1.69271 9.62714 1.6163C9.65911 1.53989 9.67557 1.45789 9.67557 1.37506C9.67557 1.29223 9.65911 1.21023 9.62714 1.13382C9.59517 1.05741 9.54834 0.988115 9.48936 0.929962C9.43037 0.87181 9.36042 0.825959 9.28357 0.795076C9.20671 0.764192 9.12449 0.748891 9.04167 0.750063H6.95833ZM10.7083 7.00006C10.8682 7.00006 11.0281 7.06108 11.1502 7.18317C11.3944 7.42692 11.394 7.82279 11.1502 8.06696L9.20361 10.0136C9.2307 10.1161 9.25 10.2221 9.25 10.3334C9.25 11.0238 8.69042 11.5834 8 11.5834C7.30958 11.5834 6.75 11.0238 6.75 10.3334C6.75 9.64298 7.30958 9.0834 8 9.0834C8.11125 9.0834 8.21732 9.10228 8.31982 9.12978L10.2664 7.18317C10.3885 7.06108 10.5484 7.00006 10.7083 7.00006Z" fill="#BEBEBE"/>
</svg>
