<svg width="19" height="21" viewBox="0 0 19 21" fill="none" xmlns="http://www.w3.org/2000/svg">
<path d="M8.41669 0.500075C8.3173 0.498669 8.21863 0.51703 8.1264 0.554091C8.03418 0.591151 7.95024 0.646172 7.87946 0.715955C7.80868 0.785738 7.75248 0.868893 7.71412 0.960586C7.67576 1.05228 7.656 1.15068 7.656 1.25007C7.656 1.34947 7.67576 1.44787 7.71412 1.53956C7.75248 1.63126 7.80868 1.71441 7.87946 1.7842C7.95024 1.85398 8.03418 1.909 8.1264 1.94606C8.21863 1.98312 8.3173 2.00148 8.41669 2.00007H8.91669V3.03816C4.30456 3.42136 0.666687 7.29071 0.666687 12.0001C0.666687 16.9626 4.70419 21.0001 9.66669 21.0001C14.6292 21.0001 18.6667 16.9626 18.6667 12.0001C18.6667 9.78829 17.8614 7.76312 16.5329 6.19441L17.445 5.2823C17.5532 5.17692 17.6271 5.04134 17.6569 4.89328C17.6868 4.74523 17.6713 4.59161 17.6124 4.45253C17.5535 4.31344 17.454 4.19537 17.3269 4.11377C17.1998 4.03217 17.0511 3.99084 16.9001 3.99519C16.7053 4.00087 16.5204 4.08212 16.3845 4.22175L15.4724 5.13386C14.0832 3.95739 12.3349 3.19754 10.4167 3.03816V2.00007H10.9167C11.0161 2.00148 11.1147 1.98312 11.207 1.94606C11.2992 1.909 11.3831 1.85398 11.4539 1.7842C11.5247 1.71441 11.5809 1.63126 11.6193 1.53956C11.6576 1.44787 11.6774 1.34947 11.6774 1.25007C11.6774 1.15068 11.6576 1.05228 11.6193 0.960586C11.5809 0.868893 11.5247 0.785738 11.4539 0.715955C11.3831 0.646172 11.2992 0.591151 11.207 0.554091C11.1147 0.51703 11.0161 0.498669 10.9167 0.500075H8.41669ZM12.9167 8.00007C13.1086 8.00007 13.3005 8.0733 13.447 8.2198C13.74 8.5123 13.7395 8.98735 13.447 9.28035L11.111 11.6163C11.1435 11.7393 11.1667 11.8666 11.1667 12.0001C11.1667 12.8286 10.4952 13.5001 9.66669 13.5001C8.83819 13.5001 8.16669 12.8286 8.16669 12.0001C8.16669 11.1716 8.83819 10.5001 9.66669 10.5001C9.80019 10.5001 9.92748 10.5227 10.0505 10.5557L12.3864 8.2198C12.5329 8.0733 12.7248 8.00007 12.9167 8.00007Z" fill="#CBA977"/>
</svg>
