<svg width="80" height="80" viewBox="0 0 80 80" fill="none" xmlns="http://www.w3.org/2000/svg">
<path d="M40 15.083C53.785 15.083 65 26.298 65 40.083C65 53.868 53.785 65.083 40 65.083C26.215 65.083 15 53.868 15 40.083C15 26.298 26.215 15.083 40 15.083ZM40 10.083C23.432 10.083 10 23.515 10 40.083C10 56.652 23.432 70.083 40 70.083C56.568 70.083 70 56.652 70 40.083C70 23.515 56.568 10.083 40 10.083Z" fill="#D1D3D5"/>
<path d="M42 53.375C42 52.615 41.385 52 40.625 52H40.374C39.615 52 39 52.615 39 53.375V59.625C39 60.385 39.615 61 40.375 61H40.626C41.385 61 42 60.385 42 59.625V53.375Z" fill="#D1D3D5"/>
<path d="M43 59.625C43 60.937 41.937 62 40.625 62H40.374C39.063 62 38 60.937 38 59.625V53.375C38 52.063 39.063 51 40.375 51H40.626C41.937 51 43 52.063 43 53.375V59.625ZM41 53.375C41 53.168 40.832 53 40.625 53H40.375C40.168 53 40 53.168 40 53.375V59.625C40 59.832 40.168 60 40.375 60H40.625C40.832 60 41 59.832 41 59.625V53.375Z" fill="#D1D3D5"/>
<path d="M42 21.375C42 20.616 41.385 20 40.625 20H40.374C39.615 20 39 20.616 39 21.375V27.625C39 28.384 39.615 29 40.375 29H40.626C41.385 29 42 28.384 42 27.625V21.375Z" fill="#D1D3D5"/>
<path d="M43 27.625C43 28.937 41.937 30 40.625 30H40.374C39.063 30 38 28.937 38 27.625V21.375C38 20.063 39.063 19 40.375 19H40.626C41.937 19 43 20.063 43 21.375V27.625ZM41 21.375C41 21.168 40.832 21 40.625 21H40.375C40.168 21 40 21.168 40 21.375V27.625C40 27.832 40.168 28 40.375 28H40.625C40.832 28 41 27.832 41 27.625V21.375Z" fill="#D1D3D5"/>
<path d="M29 40.375C29 39.616 28.384 39 27.625 39H21.375C20.616 39 20 39.616 20 40.375V40.625C20 41.385 20.616 42 21.375 42H27.625C28.384 42 29 41.385 29 40.625V40.375Z" fill="#D1D3D5"/>
<path d="M30 40.625C30 41.937 28.937 43 27.625 43H21.375C20.063 43 19 41.937 19 40.625V40.375C19 39.063 20.063 38 21.375 38H27.625C28.937 38 30 39.063 30 40.375V40.625ZM28 40.375C28 40.168 27.832 40 27.625 40H21.375C21.168 40 21 40.168 21 40.375V40.625C21 40.832 21.168 41 21.375 41H27.625C27.832 41 28 40.832 28 40.625V40.375Z" fill="#D1D3D5"/>
<path d="M61 40.375C61 39.616 60.385 39 59.625 39H53.375C52.615 39 52 39.616 52 40.375V40.625C52 41.385 52.615 42 53.375 42H59.625C60.385 42 61 41.385 61 40.625V40.375Z" fill="#D1D3D5"/>
<path d="M59.291 43H53.041C51.732 43 51 41.935 51 40.625V40.375C51 39.065 51.732 38 53.041 38H59.291C60.602 38 62 39.065 62 40.375V40.625C62 41.935 60.602 43 59.291 43ZM60 40.375C60 40.168 59.832 40 59.625 40H53.375C53.168 40 53 40.168 53 40.375V40.625C53 40.832 53.168 41 53.375 41H59.625C59.832 41 60 40.832 60 40.625V40.375Z" fill="#D1D3D5"/>
<path d="M31.4123 49.0795C30.8753 48.5425 30.0053 48.5425 29.4683 49.0795L27.1703 51.3775C26.6333 51.9145 26.6333 52.7845 27.1703 53.3215L27.3473 53.4985C27.8843 54.0355 28.7543 54.0355 29.2913 53.4985L31.5893 51.2005C32.1273 50.6635 32.1273 49.7935 31.5893 49.2565L31.4123 49.0795Z" fill="#D1D3D5"/>
<path d="M28.3176 54.9002C27.6836 54.9002 27.0876 54.6532 26.6386 54.2052L26.4616 54.0282C26.0126 53.5802 25.7656 52.9832 25.7656 52.3492C25.7656 51.7142 26.0126 51.1182 26.4616 50.6692L28.7596 48.3712C29.6566 47.4752 31.2206 47.4752 32.1176 48.3712L32.2946 48.5482C32.7426 48.9962 32.9906 49.5932 32.9906 50.2282C32.9906 50.8622 32.7426 51.4582 32.2936 51.9082L29.9966 54.2052C29.5476 54.6532 28.9526 54.9002 28.3176 54.9002ZM30.4386 49.6772C30.3806 49.6772 30.2696 49.6912 30.1736 49.7862L27.8756 52.0842C27.7796 52.1802 27.7656 52.2912 27.7656 52.3502C27.7656 52.4082 27.7806 52.5192 27.8756 52.6152L28.0526 52.7922C28.2436 52.9832 28.3916 52.9832 28.5826 52.7922L30.8806 50.4942C30.9776 50.3972 30.9906 50.2872 30.9906 50.2292C30.9906 50.1702 30.9766 50.0602 30.8816 49.9642L30.7036 49.7862C30.6086 49.6902 30.4976 49.6772 30.4386 49.6772Z" fill="#D1D3D5"/>
<path d="M50.9205 29.9214C51.4575 30.4584 52.3285 30.4584 52.8655 29.9214L55.1625 27.6234C55.6996 27.0864 55.6996 26.2164 55.1625 25.6794L54.9865 25.5024C54.4495 24.9654 53.5785 24.9654 53.0415 25.5024L50.7445 27.8004C50.2075 28.3374 50.2075 29.2074 50.7445 29.7444L50.9205 29.9214Z" fill="#D1D3D5"/>
<path d="M51.8942 31.3234C51.2592 31.3234 50.6642 31.0764 50.2142 30.6284L50.0382 30.4514C49.1122 29.5254 49.1122 28.0184 50.0382 27.0934L52.3352 24.7954C53.2312 23.8994 54.7962 23.8984 55.6942 24.7954L55.8702 24.9724C56.7962 25.8984 56.7962 27.4054 55.8702 28.3304L53.5732 30.6284C53.1242 31.0764 52.5282 31.3234 51.8942 31.3234ZM54.0152 26.1004C53.9562 26.1004 53.8452 26.1144 53.7492 26.2094L51.4522 28.5074C51.3062 28.6534 51.3062 28.8914 51.4522 29.0374L51.6283 29.2144C51.8193 29.4044 51.9662 29.4074 52.1592 29.2144L54.4562 26.9164C54.6022 26.7704 54.6022 26.5324 54.4562 26.3864L54.2802 26.2094C54.1852 26.1134 54.0732 26.1004 54.0152 26.1004Z" fill="#D1D3D5"/>
<path d="M52.8655 49.0785C52.3285 48.5415 51.4575 48.5415 50.9205 49.0785L50.7445 49.2555C50.2075 49.7925 50.2075 50.6625 50.7445 51.1995L53.0415 53.4975C53.5785 54.0345 54.4495 54.0345 54.9865 53.4975L55.1625 53.3205C55.6996 52.7835 55.6996 51.9135 55.1625 51.3765L52.8655 49.0785Z" fill="#D1D3D5"/>
<path d="M54.0152 54.9C53.3802 54.9 52.7852 54.653 52.3352 54.205L50.0382 51.907C49.1122 50.981 49.1122 49.474 50.0382 48.549L50.2142 48.372C51.1102 47.476 52.6752 47.474 53.5732 48.372L55.8702 50.67C56.7962 51.596 56.7962 53.103 55.8702 54.028L55.6942 54.205C55.2452 54.653 54.6492 54.9 54.0152 54.9ZM51.8942 49.677C51.8352 49.677 51.7243 49.691 51.6283 49.786L51.4522 49.963C51.3062 50.109 51.3062 50.347 51.4522 50.493L53.7492 52.791C53.9402 52.98 54.0872 52.984 54.2802 52.791L54.4562 52.614C54.6022 52.468 54.6022 52.23 54.4562 52.084L52.1592 49.786C52.0632 49.69 51.9522 49.677 51.8942 49.677Z" fill="#D1D3D5"/>
<path d="M29.2894 25.5024C28.7524 24.9654 27.8824 24.9654 27.3454 25.5024L27.1684 25.6794C26.6314 26.2164 26.6314 27.0864 27.1684 27.6234L29.4664 29.9214C30.0034 30.4584 30.8734 30.4584 31.4104 29.9214L31.5874 29.7444C32.1254 29.2074 32.1254 28.3374 31.5874 27.8004L29.2894 25.5024Z" fill="#D1D3D5"/>
<path d="M30.4376 31.3231C29.8036 31.3231 29.2076 31.0761 28.7586 30.6281L26.4606 28.3301C26.0116 27.8821 25.7646 27.2851 25.7656 26.6501C25.7656 26.0161 26.0116 25.4201 26.4606 24.9711L26.6376 24.7941C27.5346 23.8981 29.0986 23.8981 29.9956 24.7941L32.2936 27.0921C32.7416 27.5401 32.9896 28.1371 32.9896 28.7721C32.9896 29.4061 32.7416 30.0021 32.2926 30.4521L32.1166 30.6281C31.6676 31.0761 31.0726 31.3231 30.4376 31.3231ZM28.3166 26.1001C28.2586 26.1001 28.1476 26.1141 28.0516 26.2091L27.8746 26.3861C27.7786 26.4821 27.7656 26.5931 27.7656 26.6521C27.7656 26.7101 27.7796 26.8211 27.8746 26.9171L30.1726 29.2151C30.3636 29.4061 30.5116 29.4061 30.7026 29.2151L30.8796 29.0381C30.9766 28.9411 30.9896 28.8311 30.9896 28.7731C30.9896 28.7141 30.9756 28.6041 30.8806 28.5081L28.5816 26.2091C28.4866 26.1131 28.3746 26.1001 28.3166 26.1001Z" fill="#D1D3D5"/>
<path d="M47 4.5C47 5.881 45.881 7 44.5 7H36.5C35.119 7 34 5.881 34 4.5C34 3.119 35.119 2 36.5 2H44.5C45.881 2 47 3.119 47 4.5Z" fill="#D1D3D5"/>
<path d="M42 10.5C42 11.329 41.329 12 40.5 12C39.672 12 39 11.329 39 10.5V5.5C39 4.671 39.671 4 40.5 4C41.329 4 42 4.671 42 5.5V10.5Z" fill="#D1D3D5"/>
<path d="M40.5 13C39.121 13 38 11.879 38 10.5V5.5C38 4.121 39.121 3 40.5 3C41.879 3 43 4.121 43 5.5V10.5C43 11.879 41.879 13 40.5 13ZM40.5 5C40.225 5 40 5.225 40 5.5V10.5C40 10.775 40.225 11 40.5 11C40.775 11 41 10.775 41 10.5V5.5C41 5.225 40.775 5 40.5 5Z" fill="#D1D3D5"/>
<path d="M70.5312 19.8281C69.5542 20.8051 67.9702 20.8051 66.9942 19.8281L61.3382 14.1721C60.3612 13.1951 60.3612 11.6121 61.3382 10.6361C62.3152 9.65907 63.8972 9.65907 64.8732 10.6361L70.5312 16.2931C71.5082 17.2701 71.5082 18.8521 70.5312 19.8281Z" fill="#D1D3D5"/>
<path d="M62.7519 20.535C62.1659 21.121 61.2169 21.121 60.6309 20.535C60.0449 19.95 60.0449 19 60.6309 18.414L64.1659 14.879C64.7519 14.293 65.7029 14.293 66.2869 14.879C66.8729 15.464 66.8729 16.414 66.2869 17L62.7519 20.535Z" fill="#D1D3D5"/>
<path d="M61.6914 21.9747C61.0234 21.9747 60.3964 21.7137 59.9234 21.2417C59.4524 20.7707 59.1914 20.1437 59.1914 19.4747C59.1914 18.8067 59.4514 18.1797 59.9234 17.7067L63.4584 14.1717C64.4054 13.2267 66.0504 13.2287 66.9954 14.1727C67.4664 14.6437 67.7254 15.2707 67.7254 15.9397C67.7254 16.6077 67.4654 17.2347 66.9934 17.7077L63.4584 21.2427C62.9864 21.7147 62.3594 21.9747 61.6914 21.9747ZM65.2274 15.4387C65.1514 15.4387 65.0024 15.4587 64.8734 15.5847L61.3384 19.1197C61.2114 19.2477 61.1924 19.3957 61.1924 19.4737C61.1924 19.5517 61.2124 19.6997 61.3384 19.8267C61.4674 19.9557 61.6154 19.9737 61.6924 19.9737C61.7704 19.9737 61.9194 19.9547 62.0464 19.8277L65.5814 16.2927C65.7104 16.1647 65.7274 16.0167 65.7274 15.9387C65.7274 15.8607 65.7094 15.7127 65.5824 15.5857C65.4534 15.4577 65.3054 15.4387 65.2274 15.4387Z" fill="#D1D3D5"/>
</svg>
