<?xml version="1.0" standalone="no"?>
<!DOCTYPE svg PUBLIC "-//W3C//DTD SVG 20010904//EN"
 "http://www.w3.org/TR/2001/REC-SVG-20010904/DTD/svg10.dtd">
<svg version="1.0" xmlns="http://www.w3.org/2000/svg"
 width="1024.000000pt" height="1024.000000pt" viewBox="0 0 1024.000000 1024.000000"
 preserveAspectRatio="xMidYMid meet">

<g transform="translate(0.000000,1024.000000) scale(0.100000,-0.100000)"
fill="#000000" stroke="none">
<path d="M4825 10150 c-66 -4 -173 -12 -237 -19 -65 -6 -170 -16 -234 -21
-123 -11 -166 -18 -174 -30 -3 -4 -36 -12 -75 -18 -38 -6 -101 -18 -140 -27
-38 -9 -95 -21 -125 -27 -30 -7 -58 -16 -61 -20 -3 -5 -37 -17 -75 -27 -142
-38 -177 -49 -183 -59 -3 -5 -22 -12 -41 -15 -54 -9 -137 -31 -146 -40 -4 -4
-15 -7 -24 -7 -9 0 -27 -9 -39 -19 -13 -11 -37 -23 -54 -27 -18 -3 -41 -13
-52 -20 -11 -8 -27 -14 -37 -14 -10 0 -27 -9 -38 -20 -11 -11 -23 -20 -27 -20
-4 0 -30 -9 -58 -19 -27 -11 -62 -23 -78 -26 -15 -3 -36 -14 -45 -23 -10 -10
-49 -31 -86 -48 -37 -16 -75 -36 -84 -44 -10 -8 -49 -30 -87 -49 -39 -19 -72
-37 -75 -40 -3 -4 -26 -17 -51 -29 -25 -13 -57 -34 -71 -47 -14 -12 -38 -30
-55 -39 -17 -8 -33 -22 -36 -31 -4 -8 -14 -15 -24 -15 -10 0 -33 -16 -52 -35
-19 -19 -41 -35 -50 -35 -9 0 -32 -15 -51 -32 -19 -18 -48 -40 -65 -49 -16 -9
-34 -26 -40 -37 -5 -12 -13 -22 -17 -22 -4 0 -28 -16 -54 -35 -25 -19 -50 -35
-55 -35 -12 0 -72 -53 -128 -112 -24 -27 -49 -48 -54 -48 -9 0 -25 -14 -94
-83 -10 -10 -33 -33 -52 -50 -19 -18 -53 -52 -75 -75 -23 -24 -53 -50 -68 -58
-16 -8 -28 -23 -28 -34 0 -10 -16 -32 -35 -47 -19 -15 -35 -33 -35 -39 0 -5
-13 -23 -30 -39 -17 -16 -30 -35 -30 -42 0 -7 -5 -13 -11 -13 -21 0 -69 -42
-69 -60 0 -10 -16 -33 -35 -51 -19 -19 -35 -38 -35 -45 0 -6 -17 -28 -37 -49
-43 -44 -93 -114 -93 -132 0 -6 -13 -27 -30 -45 -16 -18 -30 -37 -30 -43 -1
-15 -33 -50 -58 -64 -12 -6 -22 -19 -22 -27 0 -9 -9 -27 -20 -41 -11 -14 -20
-32 -20 -39 0 -7 -6 -17 -13 -21 -15 -9 -47 -69 -47 -88 0 -7 -7 -18 -15 -25
-8 -7 -15 -21 -15 -31 0 -10 -6 -22 -13 -26 -14 -8 -87 -140 -87 -156 0 -4 -9
-17 -20 -29 -11 -12 -23 -38 -26 -57 -4 -20 -10 -40 -14 -46 -4 -5 -13 -27
-19 -47 -7 -21 -18 -38 -24 -38 -7 0 -30 -46 -51 -103 -22 -56 -46 -106 -53
-110 -7 -4 -13 -16 -13 -25 0 -9 -9 -44 -19 -77 -11 -33 -25 -87 -32 -120 -7
-33 -17 -63 -22 -66 -9 -6 -67 -222 -67 -250 0 -10 -6 -24 -14 -31 -13 -13
-24 -61 -50 -216 -7 -41 -17 -77 -23 -80 -6 -4 -12 -49 -15 -100 -2 -52 -9
-97 -15 -100 -12 -9 -29 -185 -44 -474 -9 -162 -9 -272 0 -440 14 -281 31
-461 44 -469 5 -4 12 -48 15 -98 2 -50 8 -91 12 -91 4 0 12 -33 19 -72 7 -40
19 -100 27 -134 8 -33 14 -68 14 -77 0 -9 4 -17 9 -17 4 0 15 -33 24 -72 22
-108 54 -220 64 -227 5 -3 15 -33 22 -66 7 -33 22 -86 32 -118 11 -31 19 -64
19 -72 0 -9 7 -18 15 -21 8 -4 15 -14 15 -23 0 -9 9 -33 20 -54 11 -20 20 -45
20 -54 0 -10 7 -27 15 -37 8 -11 15 -28 15 -38 0 -10 6 -18 14 -18 15 0 51
-76 61 -132 4 -20 14 -45 23 -55 10 -10 35 -54 57 -98 22 -44 45 -84 52 -90 6
-5 25 -43 43 -83 17 -40 40 -82 50 -92 11 -11 28 -39 39 -64 12 -24 30 -47 41
-51 11 -3 20 -11 20 -17 0 -5 13 -27 30 -48 17 -21 30 -43 30 -48 0 -6 6 -15
13 -19 7 -4 21 -27 32 -51 10 -24 31 -53 46 -66 14 -12 44 -48 64 -79 21 -32
41 -57 46 -57 4 0 17 -20 29 -45 12 -25 28 -45 36 -45 8 0 14 -4 14 -10 0 -5
6 -10 13 -10 6 0 22 -15 35 -34 13 -19 43 -55 68 -81 24 -26 44 -53 44 -61 0
-8 3 -14 8 -14 11 0 212 -198 212 -209 0 -6 6 -11 13 -11 7 0 26 -14 42 -30
16 -17 32 -30 37 -30 5 0 39 -32 76 -71 37 -39 83 -78 102 -86 19 -8 51 -33
72 -54 21 -21 42 -39 48 -39 5 0 10 -4 10 -9 0 -14 52 -61 85 -77 18 -8 42
-24 53 -34 12 -11 25 -20 29 -20 4 -1 24 -14 43 -30 19 -17 42 -30 51 -30 9 0
19 -7 22 -15 4 -8 29 -26 57 -40 28 -14 53 -32 56 -39 5 -14 28 -26 119 -67
28 -12 54 -29 58 -36 4 -7 17 -13 27 -13 11 0 20 -3 20 -8 0 -4 24 -18 53 -32
28 -14 61 -33 71 -42 11 -10 24 -18 29 -18 14 0 101 -44 105 -52 2 -5 9 -8 16
-8 16 0 109 -36 148 -56 14 -8 33 -14 42 -14 9 0 16 -4 16 -9 0 -9 147 -71
168 -71 6 0 15 -6 19 -13 4 -8 46 -22 93 -31 47 -10 90 -22 95 -27 6 -4 30
-11 54 -15 23 -4 48 -13 55 -20 11 -11 204 -63 299 -81 15 -3 27 -9 27 -13 0
-4 17 -10 38 -14 20 -3 75 -13 122 -22 47 -8 132 -19 189 -24 57 -4 106 -12
110 -18 7 -12 195 -29 483 -44 162 -8 272 -8 440 1 304 15 482 31 489 43 4 6
51 14 105 19 85 7 197 24 307 46 15 3 27 9 27 14 0 5 8 9 18 9 9 0 71 13 137
30 66 16 127 30 137 30 9 0 24 7 32 16 17 16 65 31 211 66 50 12 94 28 98 35
4 7 16 13 25 13 10 0 35 9 57 20 22 11 46 20 55 20 9 0 26 9 38 20 12 11 26
20 31 20 10 0 48 15 127 51 23 11 49 19 58 19 9 0 16 5 16 10 0 6 6 10 13 10
13 0 129 57 137 68 10 13 108 62 124 62 10 0 27 11 39 23 12 13 40 32 62 42
89 39 110 51 133 77 13 16 30 28 38 28 8 0 25 10 38 23 13 12 39 30 57 40 73
40 93 53 127 85 20 17 41 32 48 32 7 0 27 16 45 35 19 19 39 35 46 35 7 0 13
5 13 10 0 17 58 69 94 84 19 8 44 28 57 45 12 17 29 31 36 31 7 0 24 18 39 39
14 22 32 41 38 43 13 3 115 88 150 125 105 109 149 153 154 153 4 0 18 16 31
35 13 19 34 47 47 62 14 16 34 43 47 60 12 18 28 33 35 33 6 0 12 5 12 10 0 6
6 10 14 10 7 0 26 20 42 45 15 25 32 45 36 45 5 0 12 10 17 23 13 34 59 98 81
114 10 7 31 36 46 63 15 28 31 50 35 50 5 0 18 19 29 42 41 82 51 98 65 98 14
0 19 7 63 94 13 25 27 46 32 46 4 0 10 8 14 18 3 9 14 31 25 47 11 17 20 39
20 51 1 11 9 29 19 40 9 10 35 55 57 99 22 44 46 84 52 88 7 4 13 13 13 20 0
18 43 117 51 117 4 0 10 18 14 40 4 22 10 40 15 40 4 0 13 15 20 33 6 17 20
50 31 73 10 23 19 49 19 58 0 9 7 19 15 22 8 4 15 12 15 20 0 8 16 60 35 116
19 57 35 111 35 121 0 9 5 17 10 17 6 0 10 8 10 18 0 10 16 80 35 157 19 77
35 148 35 158 0 9 4 17 8 17 8 0 25 74 38 163 3 26 10 47 15 47 8 0 10 7 30
147 6 46 15 83 19 83 17 0 33 334 34 685 0 357 -17 683 -35 695 -5 3 -15 55
-24 115 -8 60 -19 111 -24 115 -5 3 -15 37 -21 75 -20 124 -22 135 -30 135 -4
0 -10 12 -13 28 -14 66 -37 161 -51 212 -9 30 -16 65 -16 78 0 12 -4 22 -10
22 -5 0 -10 8 -10 19 0 10 -16 65 -35 122 -19 57 -35 110 -35 118 0 8 -6 19
-13 25 -7 6 -23 38 -36 71 -39 100 -46 115 -53 115 -4 0 -10 17 -14 38 -4 20
-10 39 -14 42 -9 7 -50 94 -50 106 0 5 -9 17 -20 27 -11 9 -20 23 -20 30 0 18
-59 127 -82 151 -10 11 -18 28 -18 37 0 29 -37 103 -64 128 -14 13 -26 28 -26
35 0 6 -9 22 -20 36 -11 14 -20 33 -20 43 0 10 -8 20 -17 24 -24 8 -62 54 -63
75 0 9 -12 29 -27 45 -16 15 -37 45 -47 66 -11 20 -41 60 -68 88 -26 27 -48
57 -48 65 0 8 -8 22 -18 32 -11 11 -33 40 -51 65 -18 27 -43 50 -56 53 -14 3
-25 12 -25 18 0 7 -13 25 -30 41 -16 16 -30 33 -30 38 0 4 -16 25 -35 45 -19
20 -35 43 -35 50 0 7 -8 15 -17 19 -10 3 -62 49 -115 102 -134 134 -170 166
-191 174 -9 4 -27 22 -38 42 -12 19 -26 35 -32 35 -7 0 -30 17 -52 38 -22 20
-53 44 -69 52 -15 8 -38 25 -50 37 -11 13 -26 23 -32 23 -7 0 -14 7 -17 15 -4
8 -25 27 -48 42 -24 15 -57 40 -73 56 -17 15 -36 27 -42 27 -6 0 -24 12 -39
26 -16 15 -44 33 -62 40 -18 8 -33 19 -33 25 0 5 -15 16 -32 24 -18 7 -38 22
-45 33 -6 10 -37 32 -70 48 -32 16 -59 32 -61 37 -2 4 -9 7 -16 7 -8 0 -24 9
-38 19 -13 11 -37 23 -51 26 -15 4 -31 12 -35 19 -4 6 -43 29 -87 51 -44 22
-83 45 -87 51 -4 6 -26 16 -50 23 -24 7 -62 21 -86 32 -23 10 -49 19 -56 19
-8 0 -16 4 -18 10 -3 10 -91 47 -135 57 -12 3 -30 13 -41 24 -11 10 -33 21
-49 25 -15 4 -32 10 -38 14 -5 4 -29 11 -52 15 -24 4 -45 11 -49 16 -3 5 -22
9 -44 9 -23 0 -40 5 -43 14 -3 8 -25 17 -49 21 -24 4 -54 13 -68 20 -14 7 -55
18 -92 25 -38 7 -68 15 -68 19 0 12 -308 80 -362 81 -16 0 -28 4 -28 9 0 15
-24 19 -220 36 -102 8 -221 20 -265 25 -107 13 -590 20 -740 10z m2765 -3065
c0 -236 -2 -285 -14 -285 -9 0 -18 -22 -26 -65 -7 -35 -18 -70 -26 -76 -8 -6
-14 -19 -14 -28 0 -9 -15 -34 -32 -54 -103 -119 -111 -125 -196 -156 -46 -17
-92 -31 -103 -31 -10 0 -19 -4 -19 -10 0 -7 -242 -10 -705 -10 l-705 0 0
-1900 0 -1900 -156 0 c-140 0 -241 12 -254 30 -3 4 -44 19 -92 34 -47 15 -95
36 -105 46 -11 9 -40 27 -65 38 -25 11 -55 29 -66 40 -11 11 -29 23 -39 26
-23 7 -193 172 -193 186 0 6 -11 16 -25 22 -14 6 -25 17 -25 24 0 7 -7 19 -15
28 -17 16 -85 149 -85 165 0 5 -6 11 -13 14 -8 3 -24 43 -36 89 -12 45 -26 97
-32 114 -5 17 -9 45 -9 62 0 18 -4 32 -10 32 -7 0 -10 482 -10 1425 l0 1425
-917 0 -916 0 6 98 c8 117 57 312 78 312 4 0 15 21 25 48 18 47 25 57 54 91 9
9 26 37 39 61 26 51 89 114 142 142 20 10 47 32 59 48 13 17 43 40 68 52 24
13 47 28 49 35 3 7 13 13 22 13 9 0 27 8 41 17 13 9 47 20 74 25 93 14 138 26
145 36 3 6 24 12 46 15 22 2 943 4 2048 5 l2007 2 0 -285z"/>
</g>
</svg>
