<?xml version="1.0" encoding="utf-8"?>
<!-- Generator: Adobe Illustrator 26.0.0, SVG Export Plug-In . SVG Version: 6.00 Build 0)  -->
<svg version="1.1" id="Слой_1" xmlns="http://www.w3.org/2000/svg" xmlns:xlink="http://www.w3.org/1999/xlink" x="0px" y="0px"
	 viewBox="0 0 48 48" enable-background="new 0 0 48 48" xml:space="preserve">
<g>
	<path fill="#6F4DBA" d="M22.507,12.09h10.582l8.978,8.411c0.56,0.542,0.119,1.387-0.723,1.387H28.759v19.494
		c0,0.507-0.72,0.742-1.121,0.338l-6.012-5.946v-4.088l3.847,3.243V20.163c0-0.742,0.72-1.351,1.603-1.351h9.058l-4.448-3.783
		h-9.179V12.09z M22.507,12.09"/>
	<path fill="#936AEC" d="M21.627,31.686l0.04,4.121l-4.53-4.359v-16.42H7.477l4.088,4.088h3.407v2.805h-4.81l-9.018-9.022
		c-0.32-0.302-0.08-0.809,0.442-0.809H19.14c0.723,0,1.324,0.507,1.324,1.114v17.502L21.627,31.686z M21.627,31.686"/>
	<path fill="#6F4DBA" d="M18.339,10.805c2.487-1.52,5.572-2.332,9.419-2.398c3.889-0.069,7.135,1.283,8.818,2.196
		c4.731,2.601,6.334,6.453,6.774,7.569c0.601,1.62,1.282,6.251-0.641,9.729c-2.244,4.19-6.012,6.184-11.262,7.804v2.434
		c2.284-0.507,8.256-2.061,12.183-6.453c1.845-2.298,2.647-4.561,2.887-5.373c0.401-1.351,1.282-6.115-1.202-10.745
		c-1.885-3.514-4.57-5.506-5.893-6.317c-1.562-0.98-5.57-3.176-12.383-3.176c-5.411,0-10.903,2.67-12.145,4.29L18.339,10.805z
		 M18.339,10.805"/>
	<path fill="#6F4DBA" d="M17.377,33.038l0.042,2.872c-2.204-0.98-4.169-2.027-6.413-4.968C9.521,29.016,8.4,25.942,8.4,23.339
		l2.845,0.576c0.161,1.183,0.361,2.465,1.442,4.492C13.97,30.739,15.333,31.686,17.377,33.038L17.377,33.038z M17.377,33.038"/>
</g>
</svg>
