<svg width="33px" height="33px" class="svg-icon" style="width: 1em; height: 1em;vertical-align: middle;fill: currentColor;overflow: hidden;" viewBox="0 0 1024 1024" version="1.1" xmlns="http://www.w3.org/2000/svg"><path d="M503.466667 465.066667c-96.853333-25.173333-128-51.2-128-91.733334 0-46.506667 43.093333-78.933333 115.2-78.933333 75.946667 0 104.106667 36.266667 106.666666 89.6h94.293334c-2.986667-73.386667-47.786667-140.8-136.96-162.56V128h-128v92.16c-82.773333 17.92-149.333333 71.68-149.333334 154.026667 0 98.56 81.493333 147.626667 200.533334 176.213333 106.666667 25.6 128 63.146667 128 102.826667 0 29.44-20.906667 76.373333-115.2 76.373333-87.893333 0-122.453333-39.253333-128-89.6H269.653333c5.12 93.44 75.093333 145.92 157.013334 163.413333V896h128v-91.733333c83.2-14.933333 149.333333-64 149.333333-151.466667 0-121.173333-103.68-162.133333-200.533333-187.733333z" fill="#447744" /></svg>