<svg width="20" height="19" viewBox="0 0 20 19" fill="none" xmlns="http://www.w3.org/2000/svg">
<path d="M20 8.74723C20 7.48613 16.5685 6.43395 12.0084 6.19121L12.0081 4.18185H17.7019V6.10352e-05H2.13268V4.18185H7.82602V6.20103C3.34899 6.46042 0 7.50162 0 8.74723C0 9.99302 3.34899 11.0343 7.82602 11.2933V18.5088H12.0081V11.3031C16.5685 11.0609 20 10.0083 20 8.74723ZM9.99996 9.98957C5.10533 9.98957 1.13734 9.23202 1.13734 8.29697C1.13734 7.50525 3.98259 6.84057 7.82602 6.65563V7.13219H7.82646V9.08506C8.51939 9.12393 9.24763 9.14429 9.99996 9.14429C10.6927 9.14429 11.3654 9.12667 12.0085 9.09445V6.64837C15.9352 6.82198 18.8627 7.49365 18.8627 8.29697C18.8627 9.23202 14.8946 9.98957 9.99996 9.98957Z" fill="#2CCFA0"/>
</svg>
