<svg width="24" height="28" viewBox="0 0 24 28" fill="none" xmlns="http://www.w3.org/2000/svg">
<path d="M12.167 2.33398C16.027 2.33398 19.167 5.47498 19.167 9.33398C19.167 13.193 16.027 16.334 12.167 16.334C8.30699 16.334 5.16699 13.193 5.16699 9.33398C5.16699 5.47498 8.30699 2.33398 12.167 2.33398ZM12.167 0.333984C7.19599 0.333984 3.16699 4.36298 3.16699 9.33398C3.16699 14.304 7.19599 18.334 12.167 18.334C17.138 18.334 21.167 14.304 21.167 9.33398C21.167 4.36298 17.138 0.333984 12.167 0.333984Z" fill="#BAC6CA"/>
<path d="M23 27.6663C22.447 27.6663 22 27.2193 22 26.6663V21.6663C22 19.3603 20.652 17.2303 18.567 16.2413C18.068 16.0053 17.855 15.4083 18.092 14.9093C18.327 14.4103 18.924 14.1983 19.424 14.4343C22.204 15.7533 24 18.5923 24 21.6663V26.6663C24 27.2193 23.553 27.6663 23 27.6663Z" fill="#BAC6CA"/>
<path d="M1 27.6661C0.448 27.6661 0 27.2191 0 26.6661V21.6661C0 18.4441 1.917 15.5521 4.884 14.2951C5.394 14.0801 5.98 14.3171 6.195 14.8261C6.41 15.3351 6.173 15.9211 5.664 16.1371C3.438 17.0791 2 19.2501 2 21.6661V26.6661C2 27.2191 1.552 27.6661 1 27.6661Z" fill="#BAC6CA"/>
<path d="M15 25.444L11.938 27.291L9 25.646L11.5 18H12.5L15 25.444Z" fill="#BAC6CA"/>
<path d="M11.938 27.5831C11.841 27.5831 11.745 27.5551 11.661 27.4991L8.72298 25.5401C8.53798 25.4171 8.45698 25.1861 8.52298 24.9751L11.023 17.1841C11.088 16.9751 11.281 17.0001 11.5 17.0001H12.5C12.718 17.0001 12.91 16.9741 12.977 17.1821L15.477 24.9591C15.544 25.1721 15.463 25.3601 15.28 25.4841L12.217 27.5181C12.132 27.5751 12.035 27.5831 11.938 27.5831ZM9.58898 25.0831L11.936 26.5641L14.41 25.0301L12.135 18.0001H11.867L9.58898 25.0831Z" fill="#BAC6CA"/>
</svg>
