<svg width="20" height="20" viewBox="0 0 20 20" fill="none" xmlns="http://www.w3.org/2000/svg">
<path d="M9.88485 0.0136719C9.17355 0.0136718 8.46218 0.333998 8.01473 0.973633L7.40243 1.84863C7.21232 2.1203 6.8789 2.24118 6.55868 2.15527L5.52743 1.87891C4.01967 1.4739 2.52575 2.7271 2.6622 4.28223L2.75595 5.34668C2.785 5.67681 2.60726 5.98417 2.30673 6.12402L1.33798 6.5752C-0.0768732 7.23458 -0.415141 9.15508 0.688563 10.2588L1.44442 11.0137C1.67884 11.2478 1.74084 11.5971 1.60067 11.8975L1.14852 12.8652C1.14852 12.8656 1.14852 12.8659 1.14852 12.8662C0.488232 14.2807 1.46352 15.9688 3.01864 16.1045L4.08212 16.1973C4.41224 16.2261 4.684 16.4543 4.76962 16.7744L5.04598 17.8066C5.44941 19.3147 7.28212 19.9816 8.56063 19.0859L9.43466 18.4727C9.70793 18.2815 10.0623 18.2822 10.3341 18.4727L11.2091 19.0859C12.4876 19.9816 14.3193 19.3147 14.7227 17.8066L14.9991 16.7744C15.0847 16.4543 15.3565 16.2261 15.6866 16.1973L16.7501 16.1045C16.7504 16.1045 16.7507 16.1045 16.7511 16.1045C18.3062 15.9688 19.2805 14.2807 18.6202 12.8662C18.6202 12.8659 18.6202 12.8656 18.6202 12.8652L18.169 11.8975C18.0289 11.5971 18.0899 11.2478 18.3243 11.0137L19.0802 10.2588C20.1843 9.15539 19.8458 7.23467 18.4307 6.5752L17.463 6.12402C17.1624 5.98417 16.9847 5.67681 17.0138 5.34668L17.1075 4.28223C17.2439 2.72712 15.75 1.4739 14.2423 1.87891L13.211 2.15527C12.8908 2.24118 12.5574 2.1203 12.3673 1.84863L11.755 0.973633C11.3075 0.333998 10.5962 0.0136718 9.88485 0.0136719ZM9.88485 1.48438C10.1241 1.48438 10.3629 1.60064 10.5255 1.83301C10.5255 1.83333 10.5255 1.83366 10.5255 1.83398L11.1378 2.70898C11.6867 3.49332 12.6749 3.85259 13.5997 3.60449L14.6309 3.32715C15.1782 3.18015 15.6629 3.5865 15.6134 4.15137L15.5196 5.21484V5.21582C15.4361 6.16932 15.961 7.08037 16.8292 7.48438V7.4834L17.797 7.93457C18.3109 8.1741 18.4205 8.79667 18.0196 9.19727L17.2647 9.95215C16.5872 10.629 16.4048 11.6646 16.8097 12.5322L17.2618 13.5C17.5015 14.0135 17.1851 14.5611 16.6202 14.6104L15.5567 14.7031C14.6029 14.7863 13.7973 15.4618 13.5499 16.3867L13.2745 17.4189C13.1279 17.9669 12.5339 18.1828 12.0694 17.8574L11.1954 17.2441C10.4112 16.6946 9.35904 16.6953 8.57431 17.2441L7.69931 17.8574C7.23482 18.1828 6.64177 17.9669 6.4952 17.4189L6.21884 16.3867C5.97145 15.4618 5.16685 14.7863 4.21298 14.7031L3.14852 14.6104C2.58365 14.5611 2.26819 14.0135 2.5079 13.5L2.96005 12.5322C3.36488 11.6646 3.18255 10.629 2.50497 9.95215L1.74911 9.19727C1.34781 8.79597 1.45762 8.17419 1.97177 7.93457L2.93954 7.4834V7.48438C3.8077 7.08035 4.33358 6.16932 4.25009 5.21582V5.21484L4.15634 4.15137C4.10678 3.5865 4.59054 3.18015 5.13778 3.32715L6.17001 3.60449C7.09479 3.85259 8.08206 3.49332 8.63095 2.70898L9.24325 1.83398C9.24325 1.83366 9.24325 1.83333 9.24325 1.83301C9.4058 1.60066 9.64566 1.48438 9.88485 1.48438ZM13.4854 6.99316C13.2907 6.99884 13.1057 7.0801 12.9698 7.21973L8.50009 11.6895L6.53036 9.71973C6.46125 9.64775 6.37847 9.59028 6.28688 9.5507C6.19528 9.51111 6.09671 9.4902 5.99693 9.48918C5.89715 9.48817 5.79817 9.50707 5.70579 9.54479C5.61341 9.58251 5.52948 9.63828 5.45892 9.70883C5.38836 9.77939 5.33259 9.86332 5.29487 9.9557C5.25716 10.0481 5.23825 10.1471 5.23927 10.2468C5.24028 10.3466 5.2612 10.4452 5.30078 10.5368C5.34037 10.6284 5.39783 10.7112 5.46981 10.7803L7.96981 13.2803C8.11047 13.4209 8.30121 13.4999 8.50009 13.4999C8.69897 13.4999 8.8897 13.4209 9.03036 13.2803L14.0304 8.28027C14.1386 8.1749 14.2124 8.03931 14.2423 7.89126C14.2722 7.7432 14.2566 7.58958 14.1978 7.4505C14.1389 7.31141 14.0394 7.19335 13.9123 7.11175C13.7852 7.03015 13.6364 6.98882 13.4854 6.99316Z" fill="#00BC40"/>
</svg>
