<svg width="56" height="56" viewBox="0 0 56 56" fill="none" xmlns="http://www.w3.org/2000/svg">
<rect width="56" height="56" rx="12" fill="#F1EAE3"/>
<path fill-rule="evenodd" clip-rule="evenodd" d="M18 20.7272C18 19.2206 19.2206 18 20.7272 18H34.3632C34.8653 18 35.2723 18.407 35.2723 18.9091C35.2723 19.4111 34.8653 19.8181 34.3632 19.8181H20.7272C20.2247 19.8181 19.8181 20.2248 19.8181 20.7272C19.8181 21.2297 20.2247 21.6363 20.7272 21.6363H28.9088C29.4109 21.6363 29.8179 22.0433 29.8179 22.5453C29.8179 23.0474 29.4109 23.4544 28.9088 23.4544H20.7272C19.2206 23.4544 18 22.2338 18 20.7272Z" fill="#CBA977"/>
<path d="M36.1819 21.6365H19.8186L18.0005 20.7274V35.2725C18.0005 36.7788 19.2214 37.9997 20.7277 37.9997H36.1819C37.1864 37.9997 38 37.1861 38 36.1816V23.4546C38 22.4501 37.1864 21.6365 36.1819 21.6365ZM34.3637 31.6362C33.3592 31.6362 32.5456 30.8226 32.5456 29.8181C32.5456 28.8136 33.3592 28 34.3637 28C35.3682 28 36.1819 28.8136 36.1819 29.8181C36.1819 30.8226 35.3682 31.6362 34.3637 31.6362Z" fill="#CBA977"/>
</svg>
