<svg width="50" height="50" viewBox="0 0 50 50" fill="none" xmlns="http://www.w3.org/2000/svg">
    <circle cx="25" cy="25" r="25" fill="#FD9816"/>
    <g clip-path="url(#clip0_0:1)">
        <path d="M32.6458 21.286C32.8199 23.0464 32.1863 24.2942 30.7451 25.0293C31.8768 25.3001 32.7232 25.7983 33.2842 26.5237C33.8452 27.2492 34.0628 28.2841 33.9371 29.6286C33.8694 30.3154 33.7122 30.9199 33.4655 31.4422C33.2189 31.9646 32.9069 32.395 32.5297 32.7335C32.1525 33.0721 31.6834 33.355 31.1223 33.5823C30.5613 33.8096 29.9737 33.9765 29.3595 34.0829C28.7453 34.1893 28.0416 34.2618 27.2485 34.3005V38.0003H25.0141V34.3585C24.2403 34.3585 23.6503 34.3537 23.244 34.344V38.0003H21.0096V34.3005C20.8355 34.3005 20.5744 34.2981 20.2261 34.2932C19.8779 34.2884 19.6119 34.286 19.4282 34.286H16.5264L16.9761 31.6309H18.5866C19.0703 31.6309 19.3508 31.3842 19.4282 30.8909V25.0583H19.6603C19.6023 25.0486 19.5249 25.0438 19.4282 25.0438V20.8797C19.3024 20.222 18.872 19.8931 18.1369 19.8931H16.5264V17.5137L19.6023 17.5282C20.2213 17.5282 20.6904 17.5233 21.0096 17.5137V13.8574H23.244V17.4411C24.0372 17.4218 24.6272 17.4121 25.0141 17.4121V13.8574H27.2485V17.5137C28.0126 17.5814 28.6897 17.6902 29.2797 17.8401C29.8697 17.99 30.4162 18.2077 30.9192 18.493C31.4222 18.7784 31.8212 19.1556 32.1162 19.6247C32.4112 20.0938 32.5877 20.6476 32.6458 21.286ZM29.5264 29.1934C29.5264 28.8451 29.4538 28.5356 29.3087 28.2648C29.1636 27.994 28.9847 27.7715 28.7719 27.5974C28.5591 27.4233 28.281 27.2758 27.9376 27.1549C27.5943 27.0339 27.2775 26.9445 26.9873 26.8864C26.6971 26.8284 26.3392 26.7849 25.9136 26.7559C25.488 26.7268 25.1543 26.7123 24.9125 26.7123C24.6707 26.7123 24.3588 26.7172 23.9767 26.7268C23.5946 26.7365 23.3649 26.7414 23.2875 26.7414V31.6454C23.3649 31.6454 23.5439 31.6478 23.8244 31.6526C24.1049 31.6575 24.337 31.6599 24.5208 31.6599C24.7046 31.6599 24.9609 31.6526 25.2898 31.6381C25.6186 31.6236 25.9016 31.6043 26.1385 31.5801C26.3755 31.5559 26.6512 31.5148 26.9655 31.4568C27.2799 31.3987 27.5483 31.331 27.7708 31.2536C27.9933 31.1762 28.223 31.0747 28.46 30.9489C28.6969 30.8232 28.888 30.6781 29.0331 30.5137C29.1782 30.3492 29.2966 30.1558 29.3885 29.9333C29.4804 29.7108 29.5264 29.4642 29.5264 29.1934ZM28.4962 22.2871C28.4962 21.9679 28.4358 21.685 28.3149 21.4383C28.194 21.1917 28.0465 20.9886 27.8723 20.829C27.6982 20.6694 27.4661 20.5339 27.1759 20.4227C26.8857 20.3115 26.6197 20.2317 26.3779 20.1833C26.1361 20.135 25.8387 20.0963 25.4856 20.0672C25.1326 20.0382 24.8521 20.0261 24.6441 20.031C24.4362 20.0358 24.175 20.0406 23.8606 20.0455C23.5463 20.0503 23.3552 20.0527 23.2875 20.0527V24.507C23.3359 24.507 23.5027 24.5094 23.7881 24.5142C24.0734 24.5191 24.2983 24.5191 24.4628 24.5142C24.6272 24.5094 24.869 24.4997 25.1882 24.4852C25.5074 24.4707 25.7734 24.4441 25.9862 24.4054C26.199 24.3667 26.4481 24.3135 26.7334 24.2458C27.0187 24.1781 27.2533 24.0886 27.4371 23.9774C27.6209 23.8662 27.7998 23.7356 27.9739 23.5857C28.148 23.4357 28.2786 23.2495 28.3657 23.0271C28.4527 22.8046 28.4962 22.5579 28.4962 22.2871Z" fill="white"/>
    </g>
    <defs>
        <clipPath id="clip0_0:1">
            <rect width="26" height="26" fill="white" transform="translate(12 12)"/>
        </clipPath>
    </defs>
</svg>
