<svg width="80" height="80" viewBox="0 0 80 80" fill="none" xmlns="http://www.w3.org/2000/svg">
<path d="M71.646 40.0723L78.829 33.0452C79.87 32.0732 80.217 30.8592 79.87 29.4012C79.453 27.9792 78.552 27.0932 77.163 26.7472L67.378 24.2482L70.137 14.5672C70.553 13.1442 70.224 11.9302 69.148 10.9232C68.142 9.84721 66.927 9.51825 65.504 9.93425L55.823 12.6922L53.324 2.90722C52.977 1.48422 52.093 0.599223 50.67 0.253223C49.247 -0.128777 48.033 0.201237 47.026 1.24224L40 8.47826L32.973 1.24321C31.967 0.167214 30.752 -0.161739 29.33 0.254261C27.907 0.601261 27.022 1.48525 26.675 2.90825L24.176 12.6932L14.495 9.93523C13.073 9.51823 11.858 9.84824 10.852 10.9242C9.77598 11.9302 9.44597 13.1452 9.86297 14.5682L12.622 24.2493L2.83697 26.7482C1.44897 27.0952 0.546 27.9802 0.13 29.4022C-0.217 30.8602 0.130016 32.0743 1.17102 33.0463L8.354 40.0732L1.17102 47.1002C0.130016 48.0722 -0.217 49.2863 0.13 50.7443C0.547 52.1663 1.44897 53.0512 2.83697 53.3982L12.622 55.8962L9.86297 65.5782C9.44597 67.0002 9.77598 68.2152 10.852 69.2222C11.858 70.2972 13.073 70.6273 14.495 70.2103L24.176 67.4512L26.675 77.2372C27.022 78.6592 27.907 79.5612 29.33 79.9432C30.787 80.2902 32.002 79.9432 32.973 78.9022L40 71.7192L47.026 78.9022C47.72 79.6662 48.605 80.0482 49.681 80.0482C49.923 80.0482 50.253 80.0132 50.669 79.9442C52.092 79.5282 52.977 78.6262 53.323 77.2382L55.822 67.4523L65.503 70.2112C66.926 70.6282 68.141 70.2983 69.147 69.2233C70.223 68.2163 70.552 67.0012 70.136 65.5792L67.377 55.8972L77.162 53.3992C78.551 53.0512 79.452 52.1672 79.869 50.7452C80.216 49.2872 79.869 48.0732 78.828 47.1012L71.646 40.0723ZM55.563 33.6362L38.593 50.6063C38.006 51.1933 37.237 51.4862 36.468 51.4852C35.697 51.4872 34.925 51.1962 34.336 50.6072L24.436 40.7082C23.265 39.5362 23.265 37.6373 24.436 36.4653C25.608 35.2943 27.507 35.2943 28.679 36.4653L36.465 44.2502L51.321 29.3942C52.492 28.2222 54.391 28.2222 55.563 29.3942C56.735 30.5662 56.735 32.4642 55.563 33.6362Z" fill="#8B9296"/>
</svg>
