<svg width="50" height="50" viewBox="0 0 50 50" fill="none" xmlns="http://www.w3.org/2000/svg">
<path opacity="0.4" d="M25 50C18.3696 50 12.0107 47.3661 7.32233 42.6777C2.63392 37.9893 0 31.6304 0 25C0 18.3696 2.63392 12.0107 7.32233 7.32233C12.0107 2.63392 18.3696 0 25 0C31.6304 0 37.9893 2.63392 42.6777 7.32233C47.3661 12.0107 50 18.3696 50 25C50 31.6304 47.3661 37.9893 42.6777 42.6777C37.9893 47.3661 31.6304 50 25 50ZM17.5 15V20C17.5 21.9891 18.2902 23.8968 19.6967 25.3033C21.1032 26.7098 23.0109 27.5 25 27.5C26.9891 27.5 28.8968 26.7098 30.3033 25.3033C31.7098 23.8968 32.5 21.9891 32.5 20V15C32.5 13.0109 31.7098 11.1032 30.3033 9.6967C28.8968 8.29018 26.9891 7.5 25 7.5C23.0109 7.5 21.1032 8.29018 19.6967 9.6967C18.2902 11.1032 17.5 13.0109 17.5 15ZM8.375 36.1C10.2026 38.8329 12.6758 41.0731 15.5756 42.6223C18.4753 44.1715 21.7123 44.982 25 44.982C28.2877 44.982 31.5247 44.1715 34.4244 42.6223C37.3242 41.0731 39.7974 38.8329 41.625 36.1C36.4096 33.7059 30.7386 32.4665 25 32.4665C19.2614 32.4665 13.5904 33.7059 8.375 36.1Z" fill="#8B9296"/>
</svg>
