<svg width="50" height="50" viewBox="0 0 50 50" fill="none" xmlns="http://www.w3.org/2000/svg">
    <circle cx="25" cy="25" r="25" fill="#FD9816"/>
    <path d="M26.3333 32.2222C23.55 32.2222 21.1333 30.6444 19.9278 28.3333H26.3333V26.1111H19.2056C19.15 25.75 19.1111 25.3778 19.1111 25C19.1111 24.6222 19.15 24.25 19.2056 23.8889H26.3333V21.6667H19.9278C21.1333 19.3556 23.5444 17.7778 26.3333 17.7778C28.1278 17.7778 29.7667 18.4333 31.0278 19.5167L33 17.5556C31.2333 15.9722 28.8944 15 26.3333 15C21.9833 15 18.2889 17.7833 16.9167 21.6667H13V23.8889H16.4C16.3556 24.2556 16.3333 24.6222 16.3333 25C16.3333 25.3778 16.3556 25.7444 16.4 26.1111H13V28.3333H16.9167C18.2889 32.2167 21.9833 35 26.3333 35C28.8944 35 31.2333 34.0278 33 32.4444L31.0278 30.4778C29.7667 31.5611 28.1278 32.2222 26.3333 32.2222Z" fill="white"/>
</svg>
