<svg width="80" height="80" viewBox="0 0 80 80" fill="none" xmlns="http://www.w3.org/2000/svg">
<path d="M17.24 40C17.24 37.402 17.672 34.911 18.443 32.574L18.441 32.573C21.549 23.145 30.402 16.363 40.911 16.363C46.556 16.363 51.655 18.363 55.66 21.636L67.312 10C60.213 3.817 51.109 0 40.912 0C25.081 0 11.476 9.052 4.962 22.279C2.333 27.613 0.854004 33.625 0.854004 40C0.854004 46.371 2.333 52.376 4.956 57.706L18.43 47.393C17.667 45.067 17.24 42.585 17.24 40Z" fill="#8B9296"/>
<path d="M78.2351 32.7271H40.9111V48.182H62.3931C61.3211 53.453 58.3981 57.5001 54.2111 60.1391C50.6031 62.4151 46.0541 63.6371 40.9101 63.6371C30.4011 63.6371 21.5481 56.8541 18.4421 47.4261L4.96106 57.7201C11.4761 70.9481 25.0801 80 40.9111 80C50.6821 80 60.0071 76.53 67.0101 70.028C74.3601 63.203 79.1471 53.0401 79.1471 40.0001C79.1471 37.6371 78.7821 35.0901 78.2351 32.7271Z" fill="#8B9296"/>
</svg>
