<svg width="80" height="72" viewBox="0 0 80 72" fill="none" xmlns="http://www.w3.org/2000/svg">
<path d="M73.329 8.64801H50.482C50.296 4.21001 46.65 0.666992 42.167 0.666992H37.832C33.349 0.666992 29.702 4.21101 29.517 8.64801H6.66602C2.98202 8.64801 0 11.627 0 15.304V64.57C0 68.246 2.99002 71.226 6.66602 71.226H73.329C77.015 71.226 79.999 68.246 79.999 64.57V15.304C79.999 11.63 77.011 8.64801 73.329 8.64801ZM39.5 50.188H26.5C24.566 50.188 23 48.621 23 46.688C23 44.754 24.566 43.188 26.5 43.188H39.5C41.432 43.188 42.999 44.754 42.999 46.688C42.999 48.62 41.432 50.188 39.5 50.188ZM53.499 36.688H26.5C24.566 36.688 23 35.121 23 33.188C23 31.254 24.566 29.688 26.5 29.688H53.499C55.432 29.688 56.999 31.254 56.999 33.188C56.999 35.12 55.432 36.688 53.499 36.688Z" fill="#8B9296"/>
</svg>
