<svg width="68" height="80" viewBox="0 0 68 80" fill="none" xmlns="http://www.w3.org/2000/svg">
<path d="M60.604 33.3261H57.276V23.3281C57.276 10.4421 46.842 -0.00585938 33.973 -0.00585938C21.104 -0.00585938 10.671 10.4421 10.671 23.3281V33.3261H7.34301C3.66801 33.3261 0.687012 36.3141 0.687012 39.9951V73.3281C0.687012 77.0111 3.66601 79.9941 7.34301 79.9941H60.604C64.28 79.9941 67.26 77.0041 67.26 73.3281V39.9951C67.26 36.3111 64.279 33.3261 60.604 33.3261ZM15.66 61.6491C12.902 61.6491 10.668 59.4141 10.668 56.6581C10.668 53.9001 12.902 51.6641 15.66 51.6641C18.418 51.6641 20.653 53.9001 20.653 56.6581C20.653 59.4141 18.418 61.6491 15.66 61.6491ZM33.973 61.6491C31.216 61.6491 28.981 59.4141 28.981 56.6581C28.981 53.9001 31.216 51.6641 33.973 51.6641C36.731 51.6641 38.966 53.9001 38.966 56.6581C38.966 59.4141 36.73 61.6491 33.973 61.6491ZM47.288 33.3261H20.656V23.3281C20.656 15.9661 26.619 9.99614 33.972 9.99614C41.324 9.99614 47.288 15.9661 47.288 23.3281V33.3261ZM52.285 61.6491C49.527 61.6491 47.293 59.4141 47.293 56.6581C47.293 53.9001 49.527 51.6641 52.285 51.6641C55.043 51.6641 57.278 53.9001 57.278 56.6581C57.278 59.4141 55.043 61.6491 52.285 61.6491Z" fill="#8B9296"/>
</svg>
