<svg width="58" height="80" viewBox="0 0 58 80" fill="none" xmlns="http://www.w3.org/2000/svg">
<path d="M50.4301 0H7.16506C3.49006 0 0.508057 2.988 0.508057 6.669V73.333C0.508057 77.017 3.48706 80 7.16506 80H50.4301C54.1061 80 57.0861 77.01 57.0861 73.333V6.669C57.0861 2.985 54.1051 0 50.4301 0ZM28.7961 75.334C26.6331 75.334 24.8791 73.58 24.8791 71.417C24.8791 69.254 26.6331 67.5 28.7961 67.5C30.9601 67.5 32.7131 69.254 32.7131 71.417C32.7131 73.58 30.9601 75.334 28.7961 75.334ZM49.4631 59.167C49.4631 60.824 48.1201 62.167 46.4631 62.167H11.1301C9.47306 62.167 8.13006 60.824 8.13006 59.167V10.334C8.13006 8.677 9.47306 7.334 11.1301 7.334H46.4631C48.1201 7.334 49.4631 8.677 49.4631 10.334V59.167Z" fill="#8B9296"/>
</svg>
