<svg width="22" height="20" viewBox="0 0 22 20" fill="none" xmlns="http://www.w3.org/2000/svg">
<path d="M19 2H14C14 0.896 13.104 0 12 0H10C8.896 0 8 0.896 8 2H3C1.346 2 0 3.388 0 5.042V17.042C0 18.696 1.346 20 3 20H19C20.654 20 22 18.696 22 17.042V5.042C22 3.388 20.654 2 19 2ZM10 2H12L12.002 4H10V2ZM20 17.042C20 17.594 19.552 18 19 18H3C2.449 18 2 17.594 2 17.042V5.042C2 4.49 2.449 4 3 4H8C8 5.104 8.896 6 10 6H12C13.104 6 14 5.104 14 4H19C19.552 4 20 4.49 20 5.042V17.042Z" fill="#8B9296"/>
<path d="M15 8H7C6.447 8 6 8.447 6 9C6 9.553 6.447 10 7 10H15C15.553 10 16 9.553 16 9C16 8.447 15.553 8 15 8Z" fill="#8B9296"/>
<path d="M11 12H7C6.447 12 6 12.447 6 13C6 13.553 6.447 14 7 14H11C11.553 14 12 13.553 12 13C12 12.447 11.553 12 11 12Z" fill="#8B9296"/>
</svg>
