<svg width="22" height="22" viewBox="0 0 22 22" fill="none" xmlns="http://www.w3.org/2000/svg">
<path d="M11 2C15.963 2 20 6.037 20 11C20 15.963 15.963 20 11 20C6.038 20 2 15.963 2 11C2 6.037 6.038 2 11 2ZM11 0C4.925 0 0 4.925 0 11C0 17.076 4.925 22 11 22C17.075 22 22 17.076 22 11C22 4.925 17.075 0 11 0Z" fill="#8B9296"/>
<path d="M11 7C13.205 7 15 8.794 15 11C15 13.206 13.205 15 11 15C8.794 15 7 13.206 7 11C7 8.794 8.794 7 11 7ZM11 5C7.687 5 5 7.688 5 11C5 14.313 7.687 17 11 17C14.313 17 17 14.312 17 11C17 7.688 14.313 5 11 5Z" fill="#8B9296"/>
<path d="M10.917 12.083C11.4693 12.083 11.917 11.6353 11.917 11.083C11.917 10.5307 11.4693 10.083 10.917 10.083C10.3647 10.083 9.91699 10.5307 9.91699 11.083C9.91699 11.6353 10.3647 12.083 10.917 12.083Z" fill="#8B9296"/>
</svg>
