<svg width="20" height="22" viewBox="0 0 20 22" fill="none" xmlns="http://www.w3.org/2000/svg">
<path d="M17.979 11.845C17.284 11.391 17 10.799 17 10.073V7.122H16.996C16.996 7.122 17 7.121 17 7.092C17 3.16 13.866 0 10 0C6.134 0 3 3.146 3 7.079C3 7.108 3.004 7.122 3.004 7.122H3V10.073C3 10.799 2.716 11.391 2.021 11.845C0.368 12.926 0 14.515 0 16.049C0 16.975 0.39 17.494 0.717 17.792C1.127 18.166 1.614 18.267 2 18.297V18.313H2.414C2.435 18.313 3.963 18.313 6.038 18.313C6.23 20.376 7.923 22 10 22C12.078 22 13.77 20.376 13.962 18.312C16.037 18.312 17.565 18.312 17.586 18.312H18V18.29C18.386 18.254 18.873 18.141 19.283 17.766C19.61 17.468 20 16.945 20 16.02C20 14.485 19.632 12.926 17.979 11.845ZM10 19.966C9.025 19.966 8.215 19.252 8.038 18.313C9.32 18.313 10.68 18.313 11.962 18.313C11.786 19.252 10.975 19.966 10 19.966ZM17.891 16.277H3.095C2.487 16.27 2.119 16.261 2.11 16.253C2.085 16.23 2.116 16.167 2.116 16.023C2.116 14.513 2.418 13.992 3.104 13.543C4.771 12.452 5 10.789 5 10.073V7.122H5.008C5.008 7.122 5 7.122 5 7.092C5 4.288 7.243 2.034 10 2.034C12.757 2.034 15 4.274 15 7.078C15 7.107 14.992 7.121 14.991 7.121H15V10.072C15 10.788 15.229 12.465 16.896 13.555C17.583 14.004 17.884 14.526 17.884 16.034C17.885 16.179 17.914 16.253 17.891 16.277Z" fill="#8B9296"/>
</svg>
