<svg width="50" height="50" viewBox="0 0 50 50" fill="none" xmlns="http://www.w3.org/2000/svg">
    <circle cx="25" cy="25" r="25" fill="#00913A"/>
    <path d="M31.482 20.5178C31.482 19.5234 31.1604 18.718 30.5172 18.1016C29.874 17.4851 29.0279 17.1768 27.9789 17.1768H23.2289V23.8587H27.9789C29.0279 23.8587 29.874 23.5504 30.5172 22.9339C31.1604 22.3175 31.482 21.5121 31.482 20.5178ZM35 20.5178C35 22.4368 34.3741 24.0028 33.1223 25.2159C31.8704 26.429 30.2549 27.0355 28.2758 27.0355H23.2289V28.7955H30.725C30.8635 28.7955 30.9773 28.8402 31.0664 28.9297C31.1555 29.0192 31.2 29.1335 31.2 29.2727V31.1818C31.2 31.321 31.1555 31.4354 31.0664 31.5249C30.9773 31.6143 30.8635 31.6591 30.725 31.6591H23.2289V34.5227C23.2289 34.6619 23.1819 34.7763 23.0879 34.8658C22.9939 34.9553 22.8826 35 22.7539 35H20.275C20.1365 35 20.0227 34.9553 19.9336 34.8658C19.8445 34.7763 19.8 34.6619 19.8 34.5227V31.6591H16.475C16.3365 31.6591 16.2227 31.6143 16.1336 31.5249C16.0445 31.4354 16 31.321 16 31.1818V29.2727C16 29.1335 16.0445 29.0192 16.1336 28.9297C16.2227 28.8402 16.3365 28.7955 16.475 28.7955H19.8V27.0355H16.475C16.3365 27.0355 16.2227 26.9908 16.1336 26.9013C16.0445 26.8118 16 26.6974 16 26.5582V24.3359C16 24.2067 16.0445 24.0948 16.1336 24.0004C16.2227 23.9059 16.3365 23.8587 16.475 23.8587H19.8V14.4773C19.8 14.3381 19.8445 14.2237 19.9336 14.1342C20.0227 14.0447 20.1365 14 20.275 14H28.2758C30.2549 14 31.8704 14.6065 33.1223 15.8196C34.3741 17.0327 35 18.5987 35 20.5178Z" fill="white"/>
</svg>
