<svg width="50" height="50" viewBox="0 0 50 50" fill="none" xmlns="http://www.w3.org/2000/svg">
    <circle cx="25" cy="25" r="25" fill="#54AE94"/>
    <g clip-path="url(#clip0_0:1)">
        <path d="M37.0111 24.3936C37.0111 22.8861 32.909 21.6283 27.4578 21.3381L27.4573 18.936H34.2638V13.937H15.652V18.936H22.458V21.3498C17.106 21.6599 13.1025 22.9046 13.1025 24.3936C13.1025 25.8829 17.106 27.1277 22.458 27.4372V36.0629H27.4573V27.449C32.909 27.1594 37.0111 25.9012 37.0111 24.3936ZM25.0568 25.8788C19.2056 25.8788 14.4621 24.9732 14.4621 23.8554C14.4621 22.9089 17.8634 22.1143 22.458 21.8933V22.463H22.4585V24.7975C23.2869 24.8439 24.1574 24.8683 25.0568 24.8683C25.8849 24.8683 26.6891 24.8472 27.4579 24.8087V21.8846C32.152 22.0921 35.6516 22.8951 35.6516 23.8554C35.6515 24.9732 30.9079 25.8788 25.0568 25.8788Z" fill="white"/>
    </g>
    <defs>
        <clipPath id="clip0_0:1">
            <rect width="24" height="24" fill="white" transform="translate(13 13)"/>
        </clipPath>
    </defs>
</svg>
